<?xml version="1.0" encoding="utf-8" standalone="no"?>
<!DOCTYPE svg PUBLIC "-//W3C//DTD SVG 1.1//EN"
  "http://www.w3.org/Graphics/SVG/1.1/DTD/svg11.dtd">
<!-- Created with matplotlib (https://matplotlib.org/) -->
<svg height="324pt" version="1.1" viewBox="0 0 576 324" width="576pt" xmlns="http://www.w3.org/2000/svg" xmlns:xlink="http://www.w3.org/1999/xlink">
 <metadata>
  <rdf:RDF xmlns:cc="http://creativecommons.org/ns#" xmlns:dc="http://purl.org/dc/elements/1.1/" xmlns:rdf="http://www.w3.org/1999/02/22-rdf-syntax-ns#">
   <cc:Work>
    <dc:type rdf:resource="http://purl.org/dc/dcmitype/StillImage"/>
    <dc:date>2021-07-02T15:38:48.300074</dc:date>
    <dc:format>image/svg+xml</dc:format>
    <dc:creator>
     <cc:Agent>
      <dc:title>Matplotlib v3.3.4, https://matplotlib.org/</dc:title>
     </cc:Agent>
    </dc:creator>
   </cc:Work>
  </rdf:RDF>
 </metadata>
 <defs>
  <style type="text/css">*{stroke-linecap:butt;stroke-linejoin:round;}</style>
 </defs>
 <g id="figure_1">
  <g id="patch_1">
   <path d="M 0 324 
L 576 324 
L 576 0 
L 0 0 
z
" style="fill:#ffffff;"/>
  </g>
  <g id="axes_1">
   <g id="patch_2">
    <path d="M 72 288.36 
L 274.909091 288.36 
L 274.909091 38.88 
L 72 38.88 
z
" style="fill:#eaeaf2;"/>
   </g>
   <g id="matplotlib.axis_1">
    <g id="xtick_1">
     <g id="line2d_1">
      <path clip-path="url(#pbb60909b71)" d="M 81.22314 288.36 
L 81.22314 38.88 
" style="fill:none;stroke:#ffffff;stroke-linecap:round;"/>
     </g>
     <g id="text_1">
      <!-- 0 -->
      <g style="fill:#262626;" transform="translate(78.164625 305.733594)scale(0.11 -0.11)">
       <defs>
        <path d="M 4.15625 35.296875 
Q 4.15625 48 6.765625 55.734375 
Q 9.375 63.484375 14.515625 67.671875 
Q 19.671875 71.875 27.484375 71.875 
Q 33.25 71.875 37.59375 69.546875 
Q 41.9375 67.234375 44.765625 62.859375 
Q 47.609375 58.5 49.21875 52.21875 
Q 50.828125 45.953125 50.828125 35.296875 
Q 50.828125 22.703125 48.234375 14.96875 
Q 45.65625 7.234375 40.5 3 
Q 35.359375 -1.21875 27.484375 -1.21875 
Q 17.140625 -1.21875 11.234375 6.203125 
Q 4.15625 15.140625 4.15625 35.296875 
z
M 13.1875 35.296875 
Q 13.1875 17.671875 17.3125 11.828125 
Q 21.4375 6 27.484375 6 
Q 33.546875 6 37.671875 11.859375 
Q 41.796875 17.71875 41.796875 35.296875 
Q 41.796875 52.984375 37.671875 58.78125 
Q 33.546875 64.59375 27.390625 64.59375 
Q 21.34375 64.59375 17.71875 59.46875 
Q 13.1875 52.9375 13.1875 35.296875 
z
" id="ArialMT-48"/>
       </defs>
       <use xlink:href="#ArialMT-48"/>
      </g>
     </g>
    </g>
    <g id="xtick_2">
     <g id="line2d_2">
      <path clip-path="url(#pbb60909b71)" d="M 118.115702 288.36 
L 118.115702 38.88 
" style="fill:none;stroke:#ffffff;stroke-linecap:round;"/>
     </g>
     <g id="text_2">
      <!-- 1 -->
      <g style="fill:#262626;" transform="translate(115.057187 305.733594)scale(0.11 -0.11)">
       <defs>
        <path d="M 37.25 0 
L 28.46875 0 
L 28.46875 56 
Q 25.296875 52.984375 20.140625 49.953125 
Q 14.984375 46.921875 10.890625 45.40625 
L 10.890625 53.90625 
Q 18.265625 57.375 23.78125 62.296875 
Q 29.296875 67.234375 31.59375 71.875 
L 37.25 71.875 
z
" id="ArialMT-49"/>
       </defs>
       <use xlink:href="#ArialMT-49"/>
      </g>
     </g>
    </g>
    <g id="xtick_3">
     <g id="line2d_3">
      <path clip-path="url(#pbb60909b71)" d="M 155.008264 288.36 
L 155.008264 38.88 
" style="fill:none;stroke:#ffffff;stroke-linecap:round;"/>
     </g>
     <g id="text_3">
      <!-- 2 -->
      <g style="fill:#262626;" transform="translate(151.949749 305.733594)scale(0.11 -0.11)">
       <defs>
        <path d="M 50.34375 8.453125 
L 50.34375 0 
L 3.03125 0 
Q 2.9375 3.171875 4.046875 6.109375 
Q 5.859375 10.9375 9.828125 15.625 
Q 13.8125 20.3125 21.34375 26.46875 
Q 33.015625 36.03125 37.109375 41.625 
Q 41.21875 47.21875 41.21875 52.203125 
Q 41.21875 57.421875 37.46875 61 
Q 33.734375 64.59375 27.734375 64.59375 
Q 21.390625 64.59375 17.578125 60.78125 
Q 13.765625 56.984375 13.71875 50.25 
L 4.6875 51.171875 
Q 5.609375 61.28125 11.65625 66.578125 
Q 17.71875 71.875 27.9375 71.875 
Q 38.234375 71.875 44.234375 66.15625 
Q 50.25 60.453125 50.25 52 
Q 50.25 47.703125 48.484375 43.546875 
Q 46.734375 39.40625 42.65625 34.8125 
Q 38.578125 30.21875 29.109375 22.21875 
Q 21.1875 15.578125 18.9375 13.203125 
Q 16.703125 10.84375 15.234375 8.453125 
z
" id="ArialMT-50"/>
       </defs>
       <use xlink:href="#ArialMT-50"/>
      </g>
     </g>
    </g>
    <g id="xtick_4">
     <g id="line2d_4">
      <path clip-path="url(#pbb60909b71)" d="M 191.900826 288.36 
L 191.900826 38.88 
" style="fill:none;stroke:#ffffff;stroke-linecap:round;"/>
     </g>
     <g id="text_4">
      <!-- 3 -->
      <g style="fill:#262626;" transform="translate(188.842311 305.733594)scale(0.11 -0.11)">
       <defs>
        <path d="M 4.203125 18.890625 
L 12.984375 20.0625 
Q 14.5 12.59375 18.140625 9.296875 
Q 21.78125 6 27 6 
Q 33.203125 6 37.46875 10.296875 
Q 41.75 14.59375 41.75 20.953125 
Q 41.75 27 37.796875 30.921875 
Q 33.84375 34.859375 27.734375 34.859375 
Q 25.25 34.859375 21.53125 33.890625 
L 22.515625 41.609375 
Q 23.390625 41.5 23.921875 41.5 
Q 29.546875 41.5 34.03125 44.421875 
Q 38.53125 47.359375 38.53125 53.46875 
Q 38.53125 58.296875 35.25 61.46875 
Q 31.984375 64.65625 26.8125 64.65625 
Q 21.6875 64.65625 18.265625 61.421875 
Q 14.84375 58.203125 13.875 51.765625 
L 5.078125 53.328125 
Q 6.6875 62.15625 12.390625 67.015625 
Q 18.109375 71.875 26.609375 71.875 
Q 32.46875 71.875 37.390625 69.359375 
Q 42.328125 66.84375 44.9375 62.5 
Q 47.5625 58.15625 47.5625 53.265625 
Q 47.5625 48.640625 45.0625 44.828125 
Q 42.578125 41.015625 37.703125 38.765625 
Q 44.046875 37.3125 47.5625 32.6875 
Q 51.078125 28.078125 51.078125 21.140625 
Q 51.078125 11.765625 44.234375 5.25 
Q 37.40625 -1.265625 26.953125 -1.265625 
Q 17.53125 -1.265625 11.296875 4.34375 
Q 5.078125 9.96875 4.203125 18.890625 
z
" id="ArialMT-51"/>
       </defs>
       <use xlink:href="#ArialMT-51"/>
      </g>
     </g>
    </g>
    <g id="xtick_5">
     <g id="line2d_5">
      <path clip-path="url(#pbb60909b71)" d="M 228.793388 288.36 
L 228.793388 38.88 
" style="fill:none;stroke:#ffffff;stroke-linecap:round;"/>
     </g>
     <g id="text_5">
      <!-- 4 -->
      <g style="fill:#262626;" transform="translate(225.734873 305.733594)scale(0.11 -0.11)">
       <defs>
        <path d="M 32.328125 0 
L 32.328125 17.140625 
L 1.265625 17.140625 
L 1.265625 25.203125 
L 33.9375 71.578125 
L 41.109375 71.578125 
L 41.109375 25.203125 
L 50.78125 25.203125 
L 50.78125 17.140625 
L 41.109375 17.140625 
L 41.109375 0 
z
M 32.328125 25.203125 
L 32.328125 57.46875 
L 9.90625 25.203125 
z
" id="ArialMT-52"/>
       </defs>
       <use xlink:href="#ArialMT-52"/>
      </g>
     </g>
    </g>
    <g id="xtick_6">
     <g id="line2d_6">
      <path clip-path="url(#pbb60909b71)" d="M 265.68595 288.36 
L 265.68595 38.88 
" style="fill:none;stroke:#ffffff;stroke-linecap:round;"/>
     </g>
     <g id="text_6">
      <!-- 5 -->
      <g style="fill:#262626;" transform="translate(262.627435 305.733594)scale(0.11 -0.11)">
       <defs>
        <path d="M 4.15625 18.75 
L 13.375 19.53125 
Q 14.40625 12.796875 18.140625 9.390625 
Q 21.875 6 27.15625 6 
Q 33.5 6 37.890625 10.78125 
Q 42.28125 15.578125 42.28125 23.484375 
Q 42.28125 31 38.0625 35.34375 
Q 33.84375 39.703125 27 39.703125 
Q 22.75 39.703125 19.328125 37.765625 
Q 15.921875 35.84375 13.96875 32.765625 
L 5.71875 33.84375 
L 12.640625 70.609375 
L 48.25 70.609375 
L 48.25 62.203125 
L 19.671875 62.203125 
L 15.828125 42.96875 
Q 22.265625 47.46875 29.34375 47.46875 
Q 38.71875 47.46875 45.15625 40.96875 
Q 51.609375 34.46875 51.609375 24.265625 
Q 51.609375 14.546875 45.953125 7.46875 
Q 39.0625 -1.21875 27.15625 -1.21875 
Q 17.390625 -1.21875 11.203125 4.25 
Q 5.03125 9.71875 4.15625 18.75 
z
" id="ArialMT-53"/>
       </defs>
       <use xlink:href="#ArialMT-53"/>
      </g>
     </g>
    </g>
    <g id="text_7">
     <!-- $r$ -->
     <g style="fill:#262626;" transform="translate(170.934545 320.509219)scale(0.12 -0.12)">
      <defs>
       <path d="M 44.578125 46.390625 
Q 43.21875 47.125 41.453125 47.515625 
Q 39.703125 47.90625 37.703125 47.90625 
Q 30.515625 47.90625 25.140625 42.453125 
Q 19.78125 37.015625 18.015625 27.875 
L 12.5 0 
L 3.515625 0 
L 14.203125 54.6875 
L 23.1875 54.6875 
L 21.484375 46.1875 
Q 25.046875 50.921875 30 53.453125 
Q 34.96875 56 40.578125 56 
Q 42.046875 56 43.453125 55.828125 
Q 44.875 55.671875 46.296875 55.28125 
z
" id="DejaVuSans-Oblique-114"/>
      </defs>
      <use xlink:href="#DejaVuSans-Oblique-114"/>
     </g>
    </g>
   </g>
   <g id="matplotlib.axis_2">
    <g id="ytick_1">
     <g id="line2d_7">
      <path clip-path="url(#pbb60909b71)" d="M 72 288.36 
L 274.909091 288.36 
" style="fill:none;stroke:#ffffff;stroke-linecap:round;"/>
     </g>
     <g id="text_8">
      <!-- 0.0 -->
      <g style="fill:#262626;" transform="translate(47.21 292.296797)scale(0.11 -0.11)">
       <defs>
        <path d="M 9.078125 0 
L 9.078125 10.015625 
L 19.09375 10.015625 
L 19.09375 0 
z
" id="ArialMT-46"/>
       </defs>
       <use xlink:href="#ArialMT-48"/>
       <use x="55.615234" xlink:href="#ArialMT-46"/>
       <use x="83.398438" xlink:href="#ArialMT-48"/>
      </g>
     </g>
    </g>
    <g id="ytick_2">
     <g id="line2d_8">
      <path clip-path="url(#pbb60909b71)" d="M 72 254.4426 
L 274.909091 254.4426 
" style="fill:none;stroke:#ffffff;stroke-linecap:round;"/>
     </g>
     <g id="text_9">
      <!-- 0.2 -->
      <g style="fill:#262626;" transform="translate(47.21 258.379397)scale(0.11 -0.11)">
       <use xlink:href="#ArialMT-48"/>
       <use x="55.615234" xlink:href="#ArialMT-46"/>
       <use x="83.398438" xlink:href="#ArialMT-50"/>
      </g>
     </g>
    </g>
    <g id="ytick_3">
     <g id="line2d_9">
      <path clip-path="url(#pbb60909b71)" d="M 72 220.5252 
L 274.909091 220.5252 
" style="fill:none;stroke:#ffffff;stroke-linecap:round;"/>
     </g>
     <g id="text_10">
      <!-- 0.4 -->
      <g style="fill:#262626;" transform="translate(47.21 224.461997)scale(0.11 -0.11)">
       <use xlink:href="#ArialMT-48"/>
       <use x="55.615234" xlink:href="#ArialMT-46"/>
       <use x="83.398438" xlink:href="#ArialMT-52"/>
      </g>
     </g>
    </g>
    <g id="ytick_4">
     <g id="line2d_10">
      <path clip-path="url(#pbb60909b71)" d="M 72 186.6078 
L 274.909091 186.6078 
" style="fill:none;stroke:#ffffff;stroke-linecap:round;"/>
     </g>
     <g id="text_11">
      <!-- 0.6 -->
      <g style="fill:#262626;" transform="translate(47.21 190.544597)scale(0.11 -0.11)">
       <defs>
        <path d="M 49.75 54.046875 
L 41.015625 53.375 
Q 39.84375 58.546875 37.703125 60.890625 
Q 34.125 64.65625 28.90625 64.65625 
Q 24.703125 64.65625 21.53125 62.3125 
Q 17.390625 59.28125 14.984375 53.46875 
Q 12.59375 47.65625 12.5 36.921875 
Q 15.671875 41.75 20.265625 44.09375 
Q 24.859375 46.4375 29.890625 46.4375 
Q 38.671875 46.4375 44.84375 39.96875 
Q 51.03125 33.5 51.03125 23.25 
Q 51.03125 16.5 48.125 10.71875 
Q 45.21875 4.9375 40.140625 1.859375 
Q 35.0625 -1.21875 28.609375 -1.21875 
Q 17.625 -1.21875 10.6875 6.859375 
Q 3.765625 14.9375 3.765625 33.5 
Q 3.765625 54.25 11.421875 63.671875 
Q 18.109375 71.875 29.4375 71.875 
Q 37.890625 71.875 43.28125 67.140625 
Q 48.6875 62.40625 49.75 54.046875 
z
M 13.875 23.1875 
Q 13.875 18.65625 15.796875 14.5 
Q 17.71875 10.359375 21.1875 8.171875 
Q 24.65625 6 28.46875 6 
Q 34.03125 6 38.03125 10.484375 
Q 42.046875 14.984375 42.046875 22.703125 
Q 42.046875 30.125 38.078125 34.390625 
Q 34.125 38.671875 28.125 38.671875 
Q 22.171875 38.671875 18.015625 34.390625 
Q 13.875 30.125 13.875 23.1875 
z
" id="ArialMT-54"/>
       </defs>
       <use xlink:href="#ArialMT-48"/>
       <use x="55.615234" xlink:href="#ArialMT-46"/>
       <use x="83.398438" xlink:href="#ArialMT-54"/>
      </g>
     </g>
    </g>
    <g id="ytick_5">
     <g id="line2d_11">
      <path clip-path="url(#pbb60909b71)" d="M 72 152.6904 
L 274.909091 152.6904 
" style="fill:none;stroke:#ffffff;stroke-linecap:round;"/>
     </g>
     <g id="text_12">
      <!-- 0.8 -->
      <g style="fill:#262626;" transform="translate(47.21 156.627197)scale(0.11 -0.11)">
       <defs>
        <path d="M 17.671875 38.8125 
Q 12.203125 40.828125 9.5625 44.53125 
Q 6.9375 48.25 6.9375 53.421875 
Q 6.9375 61.234375 12.546875 66.546875 
Q 18.171875 71.875 27.484375 71.875 
Q 36.859375 71.875 42.578125 66.421875 
Q 48.296875 60.984375 48.296875 53.171875 
Q 48.296875 48.1875 45.671875 44.5 
Q 43.0625 40.828125 37.75 38.8125 
Q 44.34375 36.671875 47.78125 31.875 
Q 51.21875 27.09375 51.21875 20.453125 
Q 51.21875 11.28125 44.71875 5.03125 
Q 38.234375 -1.21875 27.640625 -1.21875 
Q 17.046875 -1.21875 10.546875 5.046875 
Q 4.046875 11.328125 4.046875 20.703125 
Q 4.046875 27.6875 7.59375 32.390625 
Q 11.140625 37.109375 17.671875 38.8125 
z
M 15.921875 53.71875 
Q 15.921875 48.640625 19.1875 45.40625 
Q 22.46875 42.1875 27.6875 42.1875 
Q 32.765625 42.1875 36.015625 45.375 
Q 39.265625 48.578125 39.265625 53.21875 
Q 39.265625 58.0625 35.90625 61.359375 
Q 32.5625 64.65625 27.59375 64.65625 
Q 22.5625 64.65625 19.234375 61.421875 
Q 15.921875 58.203125 15.921875 53.71875 
z
M 13.09375 20.65625 
Q 13.09375 16.890625 14.875 13.375 
Q 16.65625 9.859375 20.171875 7.921875 
Q 23.6875 6 27.734375 6 
Q 34.03125 6 38.125 10.046875 
Q 42.234375 14.109375 42.234375 20.359375 
Q 42.234375 26.703125 38.015625 30.859375 
Q 33.796875 35.015625 27.4375 35.015625 
Q 21.234375 35.015625 17.15625 30.90625 
Q 13.09375 26.8125 13.09375 20.65625 
z
" id="ArialMT-56"/>
       </defs>
       <use xlink:href="#ArialMT-48"/>
       <use x="55.615234" xlink:href="#ArialMT-46"/>
       <use x="83.398438" xlink:href="#ArialMT-56"/>
      </g>
     </g>
    </g>
    <g id="ytick_6">
     <g id="line2d_12">
      <path clip-path="url(#pbb60909b71)" d="M 72 118.773 
L 274.909091 118.773 
" style="fill:none;stroke:#ffffff;stroke-linecap:round;"/>
     </g>
     <g id="text_13">
      <!-- 1.0 -->
      <g style="fill:#262626;" transform="translate(47.21 122.709797)scale(0.11 -0.11)">
       <use xlink:href="#ArialMT-49"/>
       <use x="55.615234" xlink:href="#ArialMT-46"/>
       <use x="83.398438" xlink:href="#ArialMT-48"/>
      </g>
     </g>
    </g>
    <g id="ytick_7">
     <g id="line2d_13">
      <path clip-path="url(#pbb60909b71)" d="M 72 84.8556 
L 274.909091 84.8556 
" style="fill:none;stroke:#ffffff;stroke-linecap:round;"/>
     </g>
     <g id="text_14">
      <!-- 1.2 -->
      <g style="fill:#262626;" transform="translate(47.21 88.792397)scale(0.11 -0.11)">
       <use xlink:href="#ArialMT-49"/>
       <use x="55.615234" xlink:href="#ArialMT-46"/>
       <use x="83.398438" xlink:href="#ArialMT-50"/>
      </g>
     </g>
    </g>
    <g id="ytick_8">
     <g id="line2d_14">
      <path clip-path="url(#pbb60909b71)" d="M 72 50.9382 
L 274.909091 50.9382 
" style="fill:none;stroke:#ffffff;stroke-linecap:round;"/>
     </g>
     <g id="text_15">
      <!-- 1.4 -->
      <g style="fill:#262626;" transform="translate(47.21 54.874997)scale(0.11 -0.11)">
       <use xlink:href="#ArialMT-49"/>
       <use x="55.615234" xlink:href="#ArialMT-46"/>
       <use x="83.398438" xlink:href="#ArialMT-52"/>
      </g>
     </g>
    </g>
    <g id="text_16">
     <!-- $P(r)$ -->
     <g style="fill:#262626;" transform="translate(40.825 174.42)rotate(-90)scale(0.12 -0.12)">
      <defs>
       <path d="M 16.890625 72.90625 
L 39.703125 72.90625 
Q 49.65625 72.90625 54.875 68.265625 
Q 60.109375 63.625 60.109375 54.6875 
Q 60.109375 42.671875 52.390625 35.984375 
Q 44.671875 29.296875 30.71875 29.296875 
L 18.3125 29.296875 
L 12.59375 0 
L 2.6875 0 
z
M 25.203125 64.796875 
L 19.921875 37.40625 
L 32.328125 37.40625 
Q 40.71875 37.40625 45.203125 41.703125 
Q 49.703125 46 49.703125 54 
Q 49.703125 59.125 46.65625 61.953125 
Q 43.609375 64.796875 38.09375 64.796875 
z
" id="DejaVuSans-Oblique-80"/>
       <path d="M 31 75.875 
Q 24.46875 64.65625 21.28125 53.65625 
Q 18.109375 42.671875 18.109375 31.390625 
Q 18.109375 20.125 21.3125 9.0625 
Q 24.515625 -2 31 -13.1875 
L 23.1875 -13.1875 
Q 15.875 -1.703125 12.234375 9.375 
Q 8.59375 20.453125 8.59375 31.390625 
Q 8.59375 42.28125 12.203125 53.3125 
Q 15.828125 64.359375 23.1875 75.875 
z
" id="DejaVuSans-40"/>
       <path d="M 8.015625 75.875 
L 15.828125 75.875 
Q 23.140625 64.359375 26.78125 53.3125 
Q 30.421875 42.28125 30.421875 31.390625 
Q 30.421875 20.453125 26.78125 9.375 
Q 23.140625 -1.703125 15.828125 -13.1875 
L 8.015625 -13.1875 
Q 14.5 -2 17.703125 9.0625 
Q 20.90625 20.125 20.90625 31.390625 
Q 20.90625 42.671875 17.703125 53.65625 
Q 14.5 64.65625 8.015625 75.875 
z
" id="DejaVuSans-41"/>
      </defs>
      <use transform="translate(0 0.125)" xlink:href="#DejaVuSans-Oblique-80"/>
      <use transform="translate(60.302734 0.125)" xlink:href="#DejaVuSans-40"/>
      <use transform="translate(99.316406 0.125)" xlink:href="#DejaVuSans-Oblique-114"/>
      <use transform="translate(140.429688 0.125)" xlink:href="#DejaVuSans-41"/>
     </g>
    </g>
   </g>
   <g id="patch_3">
    <path clip-path="url(#pbb60909b71)" d="M 81.22314 288.36 
L 81.22314 50.76 
L 83.067769 50.76 
L 83.067769 118.08 
L 84.912397 118.08 
L 84.912397 106.2 
L 86.757025 106.2 
L 86.757025 157.68 
L 88.601653 157.68 
L 88.601653 135.9 
L 90.446281 135.9 
L 90.446281 165.6 
L 92.290909 165.6 
L 92.290909 179.46 
L 94.135537 179.46 
L 94.135537 197.28 
L 95.980165 197.28 
L 95.980165 203.22 
L 97.824793 203.22 
L 97.824793 181.44 
L 99.669421 181.44 
L 99.669421 211.14 
L 101.51405 211.14 
L 101.51405 201.24 
L 103.358678 201.24 
L 103.358678 228.96 
L 105.203306 228.96 
L 105.203306 234.9 
L 107.047934 234.9 
L 107.047934 223.02 
L 108.892562 223.02 
L 108.892562 203.22 
L 110.73719 203.22 
L 110.73719 225 
L 112.581818 225 
L 112.581818 232.92 
L 114.426446 232.92 
L 114.426446 236.88 
L 116.271074 236.88 
L 116.271074 244.8 
L 118.115702 244.8 
L 118.115702 238.86 
L 119.960331 238.86 
L 119.960331 246.78 
L 121.804959 246.78 
L 121.804959 238.86 
L 123.649587 238.86 
L 123.649587 246.78 
L 125.494215 246.78 
L 125.494215 242.82 
L 127.338843 242.82 
L 127.338843 248.76 
L 129.183471 248.76 
L 129.183471 264.6 
L 131.028099 264.6 
L 131.028099 248.76 
L 134.717355 248.76 
L 134.717355 256.68 
L 136.561983 256.68 
L 136.561983 266.58 
L 138.406612 266.58 
L 138.406612 246.78 
L 140.25124 246.78 
L 140.25124 254.7 
L 142.095868 254.7 
L 142.095868 264.6 
L 143.940496 264.6 
L 143.940496 270.54 
L 145.785124 270.54 
L 145.785124 266.58 
L 147.629752 266.58 
L 147.629752 268.56 
L 149.47438 268.56 
L 149.47438 256.68 
L 151.319008 256.68 
L 151.319008 262.62 
L 155.008264 262.62 
L 155.008264 260.64 
L 156.852893 260.64 
L 156.852893 258.66 
L 158.697521 258.66 
L 158.697521 270.54 
L 160.542149 270.54 
L 160.542149 264.6 
L 162.386777 264.6 
L 162.386777 266.58 
L 164.231405 266.58 
L 164.231405 256.68 
L 166.076033 256.68 
L 166.076033 250.74 
L 167.920661 250.74 
L 167.920661 262.62 
L 169.765289 262.62 
L 169.765289 270.54 
L 171.609917 270.54 
L 171.609917 272.52 
L 173.454545 272.52 
L 173.454545 274.5 
L 175.299174 274.5 
L 175.299174 276.48 
L 177.143802 276.48 
L 177.143802 266.58 
L 178.98843 266.58 
L 178.98843 276.48 
L 180.833058 276.48 
L 180.833058 278.46 
L 182.677686 278.46 
L 182.677686 274.5 
L 184.522314 274.5 
L 184.522314 270.54 
L 186.366942 270.54 
L 186.366942 274.5 
L 188.21157 274.5 
L 188.21157 272.52 
L 190.056198 272.52 
L 190.056198 274.5 
L 191.900826 274.5 
L 191.900826 268.56 
L 193.745455 268.56 
L 193.745455 278.46 
L 195.590083 278.46 
L 195.590083 280.44 
L 199.279339 280.44 
L 199.279339 276.48 
L 201.123967 276.48 
L 201.123967 280.44 
L 202.968595 280.44 
L 202.968595 278.46 
L 204.813223 278.46 
L 204.813223 280.44 
L 206.657851 280.44 
L 206.657851 276.48 
L 208.502479 276.48 
L 208.502479 280.44 
L 212.191736 280.44 
L 212.191736 282.42 
L 214.036364 282.42 
L 214.036364 286.38 
L 215.880992 286.38 
L 215.880992 278.46 
L 217.72562 278.46 
L 217.72562 284.4 
L 219.570248 284.4 
L 219.570248 276.48 
L 221.414876 276.48 
L 221.414876 284.4 
L 223.259504 284.4 
L 223.259504 278.46 
L 225.104132 278.46 
L 225.104132 284.4 
L 226.94876 284.4 
L 226.94876 278.46 
L 228.793388 278.46 
L 228.793388 282.42 
L 230.638017 282.42 
L 230.638017 284.4 
L 234.327273 284.4 
L 234.327273 282.42 
L 236.171901 282.42 
L 236.171901 284.4 
L 238.016529 284.4 
L 238.016529 276.48 
L 239.861157 276.48 
L 239.861157 282.42 
L 245.395041 282.42 
L 245.395041 286.38 
L 247.239669 286.38 
L 247.239669 278.46 
L 249.084298 278.46 
L 249.084298 274.5 
L 250.928926 274.5 
L 250.928926 278.46 
L 252.773554 278.46 
L 252.773554 288.36 
L 254.618182 288.36 
L 254.618182 284.4 
L 256.46281 284.4 
L 256.46281 270.54 
L 258.307438 270.54 
L 258.307438 282.42 
L 260.152066 282.42 
L 260.152066 286.38 
L 261.996694 286.38 
L 261.996694 282.42 
L 265.68595 282.42 
L 265.68595 288.36 
L 265.68595 288.36 
" style="fill:none;stroke:#4c72b0;stroke-linejoin:miter;"/>
   </g>
   <g id="line2d_15">
    <path clip-path="url(#pbb60909b71)" d="M 81.22314 118.773 
L 83.086401 134.687461 
L 84.949662 148.462501 
L 86.812923 160.465095 
L 88.676183 170.986779 
L 90.539444 180.261523 
L 92.402705 188.478852 
L 94.265965 195.793605 
L 96.129226 202.333284 
L 97.992487 208.203645 
L 99.855748 213.493004 
L 101.719008 218.275577 
L 103.582269 222.614096 
L 105.44553 226.561882 
L 107.30879 230.164482 
L 109.172051 233.460998 
L 111.035312 236.485146 
L 112.898573 239.266126 
L 114.761833 241.829327 
L 116.625094 244.196906 
L 118.488355 246.388277 
L 120.351615 248.420501 
L 122.214876 250.308623 
L 124.078137 252.065953 
L 125.941397 253.704297 
L 127.804658 255.234159 
L 129.667919 256.664911 
L 131.53118 258.00493 
L 133.39444 259.261732 
L 135.257701 260.442065 
L 137.120962 261.55201 
L 138.984222 262.597055 
L 140.847483 263.582161 
L 142.710744 264.511828 
L 144.574005 265.390138 
L 146.437265 266.220805 
L 148.300526 267.007214 
L 150.163787 267.752455 
L 152.027047 268.45935 
L 153.890308 269.130487 
L 155.753569 269.768237 
L 157.616829 270.374779 
L 159.48009 270.952116 
L 161.343351 271.502093 
L 163.206612 272.026413 
L 165.069872 272.526646 
L 166.933133 273.004246 
L 168.796394 273.460558 
L 170.659654 273.896828 
L 172.522915 274.314214 
L 174.386176 274.713789 
L 176.249437 275.096552 
L 178.112697 275.463435 
L 179.975958 275.815303 
L 181.839219 276.152964 
L 183.702479 276.477174 
L 185.56574 276.788637 
L 187.429001 277.088013 
L 189.292261 277.375919 
L 191.155522 277.652933 
L 193.018783 277.9196 
L 194.882044 278.176426 
L 196.745304 278.423891 
L 198.608565 278.662445 
L 200.471826 278.892509 
L 202.335086 279.114482 
L 204.198347 279.32874 
L 206.061608 279.535635 
L 207.924869 279.7355 
L 209.788129 279.928652 
L 211.65139 280.115387 
L 213.514651 280.295987 
L 215.377911 280.470716 
L 217.241172 280.639828 
L 219.104433 280.80356 
L 220.967693 280.962137 
L 222.830954 281.115775 
L 224.694215 281.264676 
L 226.557476 281.409033 
L 228.420736 281.549029 
L 230.283997 281.684837 
L 232.147258 281.816624 
L 234.010518 281.944546 
L 235.873779 282.068753 
L 237.73704 282.189388 
L 239.600301 282.306586 
L 241.463561 282.420477 
L 243.326822 282.531183 
L 245.190083 282.638823 
L 247.053343 282.743508 
L 248.916604 282.845346 
L 250.779865 282.944439 
L 252.643125 283.040886 
L 254.506386 283.134778 
L 256.369647 283.226206 
L 258.232908 283.315256 
L 260.096168 283.402008 
L 261.959429 283.486542 
L 263.82269 283.568932 
L 265.68595 283.64925 
" style="fill:none;stroke:#dd8452;stroke-linecap:round;stroke-width:1.5;"/>
   </g>
   <g id="line2d_16">
    <path clip-path="url(#pbb60909b71)" d="M 81.22314 288.36 
L 83.086401 284.026002 
L 84.949662 273.001419 
L 86.812923 258.069313 
L 88.676183 241.565883 
L 90.539444 225.26441 
L 92.402705 210.3788 
L 94.265965 197.63617 
L 96.129226 187.378749 
L 97.992487 179.66869 
L 99.855748 174.381073 
L 101.719008 171.278934 
L 103.582269 170.069418 
L 105.44553 170.443086 
L 107.30879 172.099491 
L 109.172051 174.762362 
L 111.035312 178.187319 
L 112.898573 182.164551 
L 114.761833 186.518287 
L 116.625094 191.104372 
L 118.488355 195.806897 
L 120.351615 200.534463 
L 122.214876 205.216478 
L 124.078137 209.799693 
L 125.941397 214.245091 
L 127.804658 218.525179 
L 129.667919 222.621667 
L 131.53118 226.523529 
L 133.39444 230.225388 
L 135.257701 233.726199 
L 137.120962 237.028176 
L 138.984222 240.135938 
L 140.847483 243.055825 
L 142.710744 245.795354 
L 144.574005 248.362804 
L 146.437265 250.766886 
L 148.300526 253.016494 
L 150.163787 255.120522 
L 152.027047 257.087719 
L 153.890308 258.926593 
L 155.753569 260.645339 
L 157.616829 262.251793 
L 159.48009 263.753402 
L 161.343351 265.157212 
L 163.206612 266.469861 
L 165.069872 267.697583 
L 166.933133 268.846218 
L 168.796394 269.921226 
L 170.659654 270.927701 
L 172.522915 271.870387 
L 174.386176 272.753701 
L 176.249437 273.581749 
L 178.112697 274.358345 
L 179.975958 275.087032 
L 181.839219 275.771096 
L 183.702479 276.413588 
L 185.56574 277.017334 
L 187.429001 277.584961 
L 189.292261 278.118901 
L 191.155522 278.62141 
L 193.018783 279.094584 
L 194.882044 279.540363 
L 196.745304 279.960551 
L 198.608565 280.35682 
L 200.471826 280.730724 
L 202.335086 281.083704 
L 204.198347 281.417101 
L 206.061608 281.732159 
L 207.924869 282.030037 
L 209.788129 282.311811 
L 211.65139 282.578483 
L 213.514651 282.830986 
L 215.377911 283.070187 
L 217.241172 283.296895 
L 219.104433 283.511866 
L 220.967693 283.715801 
L 222.830954 283.909357 
L 224.694215 284.093146 
L 226.557476 284.26774 
L 228.420736 284.433672 
L 230.283997 284.591442 
L 232.147258 284.741517 
L 234.010518 284.884333 
L 235.873779 285.020299 
L 237.73704 285.149797 
L 239.600301 285.273187 
L 241.463561 285.390805 
L 243.326822 285.502965 
L 245.190083 285.609963 
L 247.053343 285.712077 
L 248.916604 285.809568 
L 250.779865 285.902679 
L 252.643125 285.991642 
L 254.506386 286.076673 
L 256.369647 286.157975 
L 258.232908 286.23574 
L 260.096168 286.310148 
L 261.959429 286.381369 
L 263.82269 286.449564 
L 265.68595 286.514882 
" style="fill:none;stroke:#55a868;stroke-linecap:round;stroke-width:1.5;"/>
   </g>
   <g id="line2d_17">
    <path clip-path="url(#pbb60909b71)" d="M 81.22314 288.36 
L 83.086401 261.674778 
L 84.949662 239.45773 
L 86.812923 221.558626 
L 88.676183 207.647367 
L 90.539444 197.290034 
L 92.402705 190.008231 
L 94.265965 185.321656 
L 96.129226 182.77603 
L 97.992487 181.959362 
L 99.855748 182.5096 
L 101.719008 184.116368 
L 103.582269 186.518924 
L 105.44553 189.501962 
L 107.30879 192.890385 
L 109.172051 196.543781 
L 111.035312 200.351085 
L 112.898573 204.225674 
L 114.761833 208.101008 
L 116.625094 211.926878 
L 118.488355 215.666209 
L 120.351615 219.292401 
L 122.214876 222.787123 
L 124.078137 226.138526 
L 125.941397 229.339774 
L 127.804658 232.387884 
L 129.667919 235.282777 
L 131.53118 238.026544 
L 133.39444 240.622852 
L 135.257701 243.076483 
L 137.120962 245.392978 
L 138.984222 247.578356 
L 140.847483 249.638901 
L 142.710744 251.581002 
L 144.574005 253.41103 
L 146.437265 255.135247 
L 148.300526 256.759747 
L 150.163787 258.290405 
L 152.027047 259.732852 
L 153.890308 261.092453 
L 155.753569 262.374301 
L 157.616829 263.583212 
L 159.48009 264.723726 
L 161.343351 265.800119 
L 163.206612 266.816403 
L 165.069872 267.776343 
L 166.933133 268.683462 
L 168.796394 269.54106 
L 170.659654 270.352221 
L 172.522915 271.119826 
L 174.386176 271.846569 
L 176.249437 272.534962 
L 178.112697 273.187352 
L 179.975958 273.805931 
L 181.839219 274.392743 
L 183.702479 274.949697 
L 185.56574 275.478576 
L 187.429001 275.981045 
L 189.292261 276.458658 
L 191.155522 276.912868 
L 193.018783 277.345031 
L 194.882044 277.756418 
L 196.745304 278.148214 
L 198.608565 278.521529 
L 200.471826 278.877403 
L 202.335086 279.216807 
L 204.198347 279.540653 
L 206.061608 279.849793 
L 207.924869 280.145028 
L 209.788129 280.427108 
L 211.65139 280.696737 
L 213.514651 280.954575 
L 215.377911 281.201243 
L 217.241172 281.437323 
L 219.104433 281.663364 
L 220.967693 281.87988 
L 222.830954 282.087356 
L 224.694215 282.286248 
L 226.557476 282.476986 
L 228.420736 282.659974 
L 230.283997 282.835594 
L 232.147258 283.004205 
L 234.010518 283.166147 
L 235.873779 283.321739 
L 237.73704 283.471284 
L 239.600301 283.615067 
L 241.463561 283.753359 
L 243.326822 283.886414 
L 245.190083 284.014473 
L 247.053343 284.137766 
L 248.916604 284.256508 
L 250.779865 284.370903 
L 252.643125 284.481147 
L 254.506386 284.587422 
L 256.369647 284.689903 
L 258.232908 284.788755 
L 260.096168 284.884136 
L 261.959429 284.976193 
L 263.82269 285.06507 
L 265.68595 285.150899 
" style="fill:none;stroke:#c44e52;stroke-linecap:round;stroke-width:1.5;"/>
   </g>
   <g id="line2d_18">
    <path clip-path="url(#pbb60909b71)" d="M 81.22314 288.36 
L 83.086401 288.265975 
L 84.949662 287.114012 
L 86.812923 283.237581 
L 88.676183 275.423725 
L 90.539444 263.450491 
L 92.402705 248.039687 
L 94.265965 230.51246 
L 96.129226 212.389539 
L 97.992487 195.074422 
L 99.855748 179.665597 
L 101.719008 166.88709 
L 103.582269 157.102829 
L 105.44553 150.377869 
L 107.30879 146.557197 
L 109.172051 145.343024 
L 111.035312 146.360463 
L 112.898573 149.2079 
L 114.761833 153.492228 
L 116.625094 158.851127 
L 118.488355 164.965211 
L 120.351615 171.562857 
L 122.214876 178.420116 
L 124.078137 185.357583 
L 125.941397 192.235631 
L 127.804658 198.948966 
L 129.667919 205.421118 
L 131.53118 211.599272 
L 133.39444 217.449608 
L 135.257701 222.953267 
L 137.120962 228.102919 
L 138.984222 232.899933 
L 140.847483 237.352055 
L 142.710744 241.47156 
L 144.574005 245.273783 
L 146.437265 248.77598 
L 148.300526 251.996451 
L 150.163787 254.953887 
L 152.027047 257.666882 
L 153.890308 260.15358 
L 155.753569 262.43144 
L 157.616829 264.51707 
L 159.48009 266.426134 
L 161.343351 268.173296 
L 163.206612 269.772214 
L 165.069872 271.235543 
L 166.933133 272.574968 
L 168.796394 273.801243 
L 170.659654 274.924241 
L 172.522915 275.953004 
L 174.386176 276.895803 
L 176.249437 277.760189 
L 178.112697 278.553053 
L 179.975958 279.280671 
L 181.839219 279.948761 
L 183.702479 280.562528 
L 185.56574 281.126705 
L 187.429001 281.645602 
L 189.292261 282.123135 
L 191.155522 282.562867 
L 193.018783 282.968039 
L 194.882044 283.341599 
L 196.745304 283.686229 
L 198.608565 284.00437 
L 200.471826 284.298243 
L 202.335086 284.569873 
L 204.198347 284.821101 
L 206.061608 285.053607 
L 207.924869 285.268923 
L 209.788129 285.468445 
L 211.65139 285.653448 
L 213.514651 285.825095 
L 215.377911 285.98445 
L 217.241172 286.132483 
L 219.104433 286.270084 
L 220.967693 286.398064 
L 222.830954 286.517169 
L 224.694215 286.628081 
L 226.557476 286.731422 
L 228.420736 286.827768 
L 230.283997 286.917643 
L 232.147258 287.001529 
L 234.010518 287.079871 
L 235.873779 287.153076 
L 237.73704 287.221518 
L 239.600301 287.285543 
L 241.463561 287.345468 
L 243.326822 287.401585 
L 245.190083 287.454165 
L 247.053343 287.503456 
L 248.916604 287.549687 
L 250.779865 287.593072 
L 252.643125 287.633804 
L 254.506386 287.672067 
L 256.369647 287.708026 
L 258.232908 287.741838 
L 260.096168 287.773645 
L 261.959429 287.803581 
L 263.82269 287.831769 
L 265.68595 287.858323 
" style="fill:none;stroke:#8172b3;stroke-linecap:round;stroke-width:1.5;"/>
   </g>
   <g id="patch_4">
    <path d="M 72 288.36 
L 72 38.88 
" style="fill:none;stroke:#ffffff;stroke-linecap:square;stroke-linejoin:miter;stroke-width:1.25;"/>
   </g>
   <g id="patch_5">
    <path d="M 274.909091 288.36 
L 274.909091 38.88 
" style="fill:none;stroke:#ffffff;stroke-linecap:square;stroke-linejoin:miter;stroke-width:1.25;"/>
   </g>
   <g id="patch_6">
    <path d="M 72 288.36 
L 274.909091 288.36 
" style="fill:none;stroke:#ffffff;stroke-linecap:square;stroke-linejoin:miter;stroke-width:1.25;"/>
   </g>
   <g id="patch_7">
    <path d="M 72 38.88 
L 274.909091 38.88 
" style="fill:none;stroke:#ffffff;stroke-linecap:square;stroke-linejoin:miter;stroke-width:1.25;"/>
   </g>
   <g id="legend_1">
    <g id="patch_8">
     <path d="M 180.03581 125.479219 
L 267.209091 125.479219 
Q 269.409091 125.479219 269.409091 123.279219 
L 269.409091 46.58 
Q 269.409091 44.38 267.209091 44.38 
L 180.03581 44.38 
Q 177.83581 44.38 177.83581 46.58 
L 177.83581 123.279219 
Q 177.83581 125.479219 180.03581 125.479219 
z
" style="fill:#eaeaf2;opacity:0.8;stroke:#cccccc;stroke-linejoin:miter;"/>
    </g>
    <g id="line2d_19">
     <path d="M 182.23581 52.803594 
L 204.23581 52.803594 
" style="fill:none;stroke:#dd8452;stroke-linecap:round;stroke-width:1.5;"/>
    </g>
    <g id="line2d_20"/>
    <g id="text_17">
     <!-- Poisson -->
     <g style="fill:#262626;" transform="translate(213.03581 56.653594)scale(0.11 -0.11)">
      <defs>
       <path d="M 7.71875 0 
L 7.71875 71.578125 
L 34.71875 71.578125 
Q 41.84375 71.578125 45.609375 70.90625 
Q 50.875 70.015625 54.4375 67.546875 
Q 58.015625 65.09375 60.1875 60.640625 
Q 62.359375 56.203125 62.359375 50.875 
Q 62.359375 41.75 56.546875 35.421875 
Q 50.734375 29.109375 35.546875 29.109375 
L 17.1875 29.109375 
L 17.1875 0 
z
M 17.1875 37.546875 
L 35.6875 37.546875 
Q 44.875 37.546875 48.734375 40.96875 
Q 52.59375 44.390625 52.59375 50.59375 
Q 52.59375 55.078125 50.3125 58.265625 
Q 48.046875 61.46875 44.34375 62.5 
Q 41.9375 63.140625 35.5 63.140625 
L 17.1875 63.140625 
z
" id="ArialMT-80"/>
       <path d="M 3.328125 25.921875 
Q 3.328125 40.328125 11.328125 47.265625 
Q 18.015625 53.03125 27.640625 53.03125 
Q 38.328125 53.03125 45.109375 46.015625 
Q 51.90625 39.015625 51.90625 26.65625 
Q 51.90625 16.65625 48.90625 10.90625 
Q 45.90625 5.171875 40.15625 2 
Q 34.421875 -1.171875 27.640625 -1.171875 
Q 16.75 -1.171875 10.03125 5.8125 
Q 3.328125 12.796875 3.328125 25.921875 
z
M 12.359375 25.921875 
Q 12.359375 15.96875 16.703125 11.015625 
Q 21.046875 6.0625 27.640625 6.0625 
Q 34.1875 6.0625 38.53125 11.03125 
Q 42.875 16.015625 42.875 26.21875 
Q 42.875 35.84375 38.5 40.796875 
Q 34.125 45.75 27.640625 45.75 
Q 21.046875 45.75 16.703125 40.8125 
Q 12.359375 35.890625 12.359375 25.921875 
z
" id="ArialMT-111"/>
       <path d="M 6.640625 61.46875 
L 6.640625 71.578125 
L 15.4375 71.578125 
L 15.4375 61.46875 
z
M 6.640625 0 
L 6.640625 51.859375 
L 15.4375 51.859375 
L 15.4375 0 
z
" id="ArialMT-105"/>
       <path d="M 3.078125 15.484375 
L 11.765625 16.84375 
Q 12.5 11.625 15.84375 8.84375 
Q 19.1875 6.0625 25.203125 6.0625 
Q 31.25 6.0625 34.171875 8.515625 
Q 37.109375 10.984375 37.109375 14.3125 
Q 37.109375 17.28125 34.515625 19 
Q 32.71875 20.171875 25.53125 21.96875 
Q 15.875 24.421875 12.140625 26.203125 
Q 8.40625 27.984375 6.46875 31.125 
Q 4.546875 34.28125 4.546875 38.09375 
Q 4.546875 41.546875 6.125 44.5 
Q 7.71875 47.46875 10.453125 49.421875 
Q 12.5 50.921875 16.03125 51.96875 
Q 19.578125 53.03125 23.640625 53.03125 
Q 29.734375 53.03125 34.34375 51.265625 
Q 38.96875 49.515625 41.15625 46.5 
Q 43.359375 43.5 44.1875 38.484375 
L 35.59375 37.3125 
Q 35.015625 41.3125 32.203125 43.546875 
Q 29.390625 45.796875 24.265625 45.796875 
Q 18.21875 45.796875 15.625 43.796875 
Q 13.03125 41.796875 13.03125 39.109375 
Q 13.03125 37.40625 14.109375 36.03125 
Q 15.1875 34.625 17.484375 33.6875 
Q 18.796875 33.203125 25.25 31.453125 
Q 34.578125 28.953125 38.25 27.359375 
Q 41.9375 25.78125 44.03125 22.75 
Q 46.140625 19.734375 46.140625 15.234375 
Q 46.140625 10.84375 43.578125 6.953125 
Q 41.015625 3.078125 36.171875 0.953125 
Q 31.34375 -1.171875 25.25 -1.171875 
Q 15.140625 -1.171875 9.84375 3.03125 
Q 4.546875 7.234375 3.078125 15.484375 
z
" id="ArialMT-115"/>
       <path d="M 6.59375 0 
L 6.59375 51.859375 
L 14.5 51.859375 
L 14.5 44.484375 
Q 20.21875 53.03125 31 53.03125 
Q 35.6875 53.03125 39.625 51.34375 
Q 43.5625 49.65625 45.515625 46.921875 
Q 47.46875 44.1875 48.25 40.4375 
Q 48.734375 37.984375 48.734375 31.890625 
L 48.734375 0 
L 39.9375 0 
L 39.9375 31.546875 
Q 39.9375 36.921875 38.90625 39.578125 
Q 37.890625 42.234375 35.28125 43.8125 
Q 32.671875 45.40625 29.15625 45.40625 
Q 23.53125 45.40625 19.453125 41.84375 
Q 15.375 38.28125 15.375 28.328125 
L 15.375 0 
z
" id="ArialMT-110"/>
      </defs>
      <use xlink:href="#ArialMT-80"/>
      <use x="66.699219" xlink:href="#ArialMT-111"/>
      <use x="122.314453" xlink:href="#ArialMT-105"/>
      <use x="144.53125" xlink:href="#ArialMT-115"/>
      <use x="194.53125" xlink:href="#ArialMT-115"/>
      <use x="244.53125" xlink:href="#ArialMT-111"/>
      <use x="300.146484" xlink:href="#ArialMT-110"/>
     </g>
    </g>
    <g id="line2d_21">
     <path d="M 182.23581 68.363437 
L 204.23581 68.363437 
" style="fill:none;stroke:#55a868;stroke-linecap:round;stroke-width:1.5;"/>
    </g>
    <g id="line2d_22"/>
    <g id="text_18">
     <!-- CUE -->
     <g style="fill:#262626;" transform="translate(213.03581 72.213437)scale(0.11 -0.11)">
      <defs>
       <path d="M 58.796875 25.09375 
L 68.265625 22.703125 
Q 65.28125 11.03125 57.546875 4.90625 
Q 49.8125 -1.21875 38.625 -1.21875 
Q 27.046875 -1.21875 19.796875 3.484375 
Q 12.546875 8.203125 8.765625 17.140625 
Q 4.984375 26.078125 4.984375 36.328125 
Q 4.984375 47.515625 9.25 55.828125 
Q 13.53125 64.15625 21.40625 68.46875 
Q 29.296875 72.796875 38.765625 72.796875 
Q 49.515625 72.796875 56.828125 67.328125 
Q 64.15625 61.859375 67.046875 51.953125 
L 57.71875 49.75 
Q 55.21875 57.5625 50.484375 61.125 
Q 45.75 64.703125 38.578125 64.703125 
Q 30.328125 64.703125 24.78125 60.734375 
Q 19.234375 56.78125 16.984375 50.109375 
Q 14.75 43.453125 14.75 36.375 
Q 14.75 27.25 17.40625 20.4375 
Q 20.0625 13.625 25.671875 10.25 
Q 31.296875 6.890625 37.84375 6.890625 
Q 45.796875 6.890625 51.3125 11.46875 
Q 56.84375 16.0625 58.796875 25.09375 
z
" id="ArialMT-67"/>
       <path d="M 54.6875 71.578125 
L 64.15625 71.578125 
L 64.15625 30.21875 
Q 64.15625 19.4375 61.71875 13.078125 
Q 59.28125 6.734375 52.90625 2.75 
Q 46.53125 -1.21875 36.1875 -1.21875 
Q 26.125 -1.21875 19.71875 2.25 
Q 13.328125 5.71875 10.59375 12.28125 
Q 7.859375 18.84375 7.859375 30.21875 
L 7.859375 71.578125 
L 17.328125 71.578125 
L 17.328125 30.28125 
Q 17.328125 20.953125 19.0625 16.53125 
Q 20.796875 12.109375 25.015625 9.71875 
Q 29.25 7.328125 35.359375 7.328125 
Q 45.796875 7.328125 50.234375 12.0625 
Q 54.6875 16.796875 54.6875 30.28125 
z
" id="ArialMT-85"/>
       <path d="M 7.90625 0 
L 7.90625 71.578125 
L 59.671875 71.578125 
L 59.671875 63.140625 
L 17.390625 63.140625 
L 17.390625 41.21875 
L 56.984375 41.21875 
L 56.984375 32.8125 
L 17.390625 32.8125 
L 17.390625 8.453125 
L 61.328125 8.453125 
L 61.328125 0 
z
" id="ArialMT-69"/>
      </defs>
      <use xlink:href="#ArialMT-67"/>
      <use x="72.216797" xlink:href="#ArialMT-85"/>
      <use x="144.433594" xlink:href="#ArialMT-69"/>
     </g>
    </g>
    <g id="line2d_23">
     <path d="M 182.23581 83.923281 
L 204.23581 83.923281 
" style="fill:none;stroke:#c44e52;stroke-linecap:round;stroke-width:1.5;"/>
    </g>
    <g id="line2d_24"/>
    <g id="text_19">
     <!-- COE -->
     <g style="fill:#262626;" transform="translate(213.03581 87.773281)scale(0.11 -0.11)">
      <defs>
       <path d="M 4.828125 34.859375 
Q 4.828125 52.6875 14.390625 62.765625 
Q 23.96875 72.859375 39.109375 72.859375 
Q 49.03125 72.859375 56.984375 68.109375 
Q 64.9375 63.375 69.109375 54.90625 
Q 73.296875 46.4375 73.296875 35.6875 
Q 73.296875 24.8125 68.890625 16.21875 
Q 64.5 7.625 56.4375 3.203125 
Q 48.390625 -1.21875 39.0625 -1.21875 
Q 28.953125 -1.21875 20.984375 3.65625 
Q 13.03125 8.546875 8.921875 16.984375 
Q 4.828125 25.4375 4.828125 34.859375 
z
M 14.59375 34.71875 
Q 14.59375 21.78125 21.546875 14.328125 
Q 28.515625 6.890625 39.015625 6.890625 
Q 49.703125 6.890625 56.609375 14.40625 
Q 63.53125 21.921875 63.53125 35.75 
Q 63.53125 44.484375 60.578125 51 
Q 57.625 57.515625 51.921875 61.109375 
Q 46.234375 64.703125 39.15625 64.703125 
Q 29.109375 64.703125 21.84375 57.78125 
Q 14.59375 50.875 14.59375 34.71875 
z
" id="ArialMT-79"/>
      </defs>
      <use xlink:href="#ArialMT-67"/>
      <use x="72.216797" xlink:href="#ArialMT-79"/>
      <use x="150" xlink:href="#ArialMT-69"/>
     </g>
    </g>
    <g id="line2d_25">
     <path d="M 182.23581 99.483125 
L 204.23581 99.483125 
" style="fill:none;stroke:#8172b3;stroke-linecap:round;stroke-width:1.5;"/>
    </g>
    <g id="line2d_26"/>
    <g id="text_20">
     <!-- CSE -->
     <g style="fill:#262626;" transform="translate(213.03581 103.333125)scale(0.11 -0.11)">
      <defs>
       <path d="M 4.5 23 
L 13.421875 23.78125 
Q 14.0625 18.40625 16.375 14.96875 
Q 18.703125 11.53125 23.578125 9.40625 
Q 28.46875 7.28125 34.578125 7.28125 
Q 39.984375 7.28125 44.140625 8.890625 
Q 48.296875 10.5 50.3125 13.296875 
Q 52.34375 16.109375 52.34375 19.4375 
Q 52.34375 22.796875 50.390625 25.3125 
Q 48.4375 27.828125 43.953125 29.546875 
Q 41.0625 30.671875 31.203125 33.03125 
Q 21.34375 35.40625 17.390625 37.5 
Q 12.25 40.1875 9.734375 44.15625 
Q 7.234375 48.140625 7.234375 53.078125 
Q 7.234375 58.5 10.296875 63.203125 
Q 13.375 67.921875 19.28125 70.359375 
Q 25.203125 72.796875 32.421875 72.796875 
Q 40.375 72.796875 46.453125 70.234375 
Q 52.546875 67.671875 55.8125 62.6875 
Q 59.078125 57.71875 59.328125 51.421875 
L 50.25 50.734375 
Q 49.515625 57.515625 45.28125 60.984375 
Q 41.0625 64.453125 32.8125 64.453125 
Q 24.21875 64.453125 20.28125 61.296875 
Q 16.359375 58.15625 16.359375 53.71875 
Q 16.359375 49.859375 19.140625 47.359375 
Q 21.875 44.875 33.421875 42.265625 
Q 44.96875 39.65625 49.265625 37.703125 
Q 55.515625 34.8125 58.484375 30.390625 
Q 61.46875 25.984375 61.46875 20.21875 
Q 61.46875 14.5 58.203125 9.4375 
Q 54.9375 4.390625 48.796875 1.578125 
Q 42.671875 -1.21875 35.015625 -1.21875 
Q 25.296875 -1.21875 18.71875 1.609375 
Q 12.15625 4.4375 8.421875 10.125 
Q 4.6875 15.828125 4.5 23 
z
" id="ArialMT-83"/>
      </defs>
      <use xlink:href="#ArialMT-67"/>
      <use x="72.216797" xlink:href="#ArialMT-83"/>
      <use x="138.916016" xlink:href="#ArialMT-69"/>
     </g>
    </g>
    <g id="patch_9">
     <path d="M 182.23581 118.892969 
L 204.23581 118.892969 
L 204.23581 111.192969 
L 182.23581 111.192969 
z
" style="fill:none;stroke:#4c72b0;stroke-linejoin:miter;"/>
    </g>
    <g id="text_21">
     <!-- Calculated -->
     <g style="fill:#262626;" transform="translate(213.03581 118.892969)scale(0.11 -0.11)">
      <defs>
       <path d="M 40.4375 6.390625 
Q 35.546875 2.25 31.03125 0.53125 
Q 26.515625 -1.171875 21.34375 -1.171875 
Q 12.796875 -1.171875 8.203125 3 
Q 3.609375 7.171875 3.609375 13.671875 
Q 3.609375 17.484375 5.34375 20.625 
Q 7.078125 23.78125 9.890625 25.6875 
Q 12.703125 27.59375 16.21875 28.5625 
Q 18.796875 29.25 24.03125 29.890625 
Q 34.671875 31.15625 39.703125 32.90625 
Q 39.75 34.71875 39.75 35.203125 
Q 39.75 40.578125 37.25 42.78125 
Q 33.890625 45.75 27.25 45.75 
Q 21.046875 45.75 18.09375 43.578125 
Q 15.140625 41.40625 13.71875 35.890625 
L 5.125 37.0625 
Q 6.296875 42.578125 8.984375 45.96875 
Q 11.671875 49.359375 16.75 51.1875 
Q 21.828125 53.03125 28.515625 53.03125 
Q 35.15625 53.03125 39.296875 51.46875 
Q 43.453125 49.90625 45.40625 47.53125 
Q 47.359375 45.171875 48.140625 41.546875 
Q 48.578125 39.3125 48.578125 33.453125 
L 48.578125 21.734375 
Q 48.578125 9.46875 49.140625 6.21875 
Q 49.703125 2.984375 51.375 0 
L 42.1875 0 
Q 40.828125 2.734375 40.4375 6.390625 
z
M 39.703125 26.03125 
Q 34.90625 24.078125 25.34375 22.703125 
Q 19.921875 21.921875 17.671875 20.9375 
Q 15.4375 19.96875 14.203125 18.09375 
Q 12.984375 16.21875 12.984375 13.921875 
Q 12.984375 10.40625 15.640625 8.0625 
Q 18.3125 5.71875 23.4375 5.71875 
Q 28.515625 5.71875 32.46875 7.9375 
Q 36.421875 10.15625 38.28125 14.015625 
Q 39.703125 17 39.703125 22.796875 
z
" id="ArialMT-97"/>
       <path d="M 6.390625 0 
L 6.390625 71.578125 
L 15.1875 71.578125 
L 15.1875 0 
z
" id="ArialMT-108"/>
       <path d="M 40.4375 19 
L 49.078125 17.875 
Q 47.65625 8.9375 41.8125 3.875 
Q 35.984375 -1.171875 27.484375 -1.171875 
Q 16.84375 -1.171875 10.375 5.78125 
Q 3.90625 12.75 3.90625 25.734375 
Q 3.90625 34.125 6.6875 40.421875 
Q 9.46875 46.734375 15.15625 49.875 
Q 20.84375 53.03125 27.546875 53.03125 
Q 35.984375 53.03125 41.359375 48.75 
Q 46.734375 44.484375 48.25 36.625 
L 39.703125 35.296875 
Q 38.484375 40.53125 35.375 43.15625 
Q 32.28125 45.796875 27.875 45.796875 
Q 21.234375 45.796875 17.078125 41.03125 
Q 12.9375 36.28125 12.9375 25.984375 
Q 12.9375 15.53125 16.9375 10.796875 
Q 20.953125 6.0625 27.390625 6.0625 
Q 32.5625 6.0625 36.03125 9.234375 
Q 39.5 12.40625 40.4375 19 
z
" id="ArialMT-99"/>
       <path d="M 40.578125 0 
L 40.578125 7.625 
Q 34.515625 -1.171875 24.125 -1.171875 
Q 19.53125 -1.171875 15.546875 0.578125 
Q 11.578125 2.34375 9.640625 5 
Q 7.71875 7.671875 6.9375 11.53125 
Q 6.390625 14.109375 6.390625 19.734375 
L 6.390625 51.859375 
L 15.1875 51.859375 
L 15.1875 23.09375 
Q 15.1875 16.21875 15.71875 13.8125 
Q 16.546875 10.359375 19.234375 8.375 
Q 21.921875 6.390625 25.875 6.390625 
Q 29.828125 6.390625 33.296875 8.421875 
Q 36.765625 10.453125 38.203125 13.9375 
Q 39.65625 17.4375 39.65625 24.078125 
L 39.65625 51.859375 
L 48.4375 51.859375 
L 48.4375 0 
z
" id="ArialMT-117"/>
       <path d="M 25.78125 7.859375 
L 27.046875 0.09375 
Q 23.34375 -0.6875 20.40625 -0.6875 
Q 15.625 -0.6875 12.984375 0.828125 
Q 10.359375 2.34375 9.28125 4.8125 
Q 8.203125 7.28125 8.203125 15.1875 
L 8.203125 45.015625 
L 1.765625 45.015625 
L 1.765625 51.859375 
L 8.203125 51.859375 
L 8.203125 64.703125 
L 16.9375 69.96875 
L 16.9375 51.859375 
L 25.78125 51.859375 
L 25.78125 45.015625 
L 16.9375 45.015625 
L 16.9375 14.703125 
Q 16.9375 10.9375 17.40625 9.859375 
Q 17.875 8.796875 18.921875 8.15625 
Q 19.96875 7.515625 21.921875 7.515625 
Q 23.390625 7.515625 25.78125 7.859375 
z
" id="ArialMT-116"/>
       <path d="M 42.09375 16.703125 
L 51.171875 15.578125 
Q 49.03125 7.625 43.21875 3.21875 
Q 37.40625 -1.171875 28.375 -1.171875 
Q 17 -1.171875 10.328125 5.828125 
Q 3.65625 12.84375 3.65625 25.484375 
Q 3.65625 38.578125 10.390625 45.796875 
Q 17.140625 53.03125 27.875 53.03125 
Q 38.28125 53.03125 44.875 45.953125 
Q 51.46875 38.875 51.46875 26.03125 
Q 51.46875 25.25 51.421875 23.6875 
L 12.75 23.6875 
Q 13.234375 15.140625 17.578125 10.59375 
Q 21.921875 6.0625 28.421875 6.0625 
Q 33.25 6.0625 36.671875 8.59375 
Q 40.09375 11.140625 42.09375 16.703125 
z
M 13.234375 30.90625 
L 42.1875 30.90625 
Q 41.609375 37.453125 38.875 40.71875 
Q 34.671875 45.796875 27.984375 45.796875 
Q 21.921875 45.796875 17.796875 41.75 
Q 13.671875 37.703125 13.234375 30.90625 
z
" id="ArialMT-101"/>
       <path d="M 40.234375 0 
L 40.234375 6.546875 
Q 35.296875 -1.171875 25.734375 -1.171875 
Q 19.53125 -1.171875 14.328125 2.25 
Q 9.125 5.671875 6.265625 11.796875 
Q 3.421875 17.921875 3.421875 25.875 
Q 3.421875 33.640625 6 39.96875 
Q 8.59375 46.296875 13.765625 49.65625 
Q 18.953125 53.03125 25.34375 53.03125 
Q 30.03125 53.03125 33.6875 51.046875 
Q 37.359375 49.078125 39.65625 45.90625 
L 39.65625 71.578125 
L 48.390625 71.578125 
L 48.390625 0 
z
M 12.453125 25.875 
Q 12.453125 15.921875 16.640625 10.984375 
Q 20.84375 6.0625 26.5625 6.0625 
Q 32.328125 6.0625 36.34375 10.765625 
Q 40.375 15.484375 40.375 25.140625 
Q 40.375 35.796875 36.265625 40.765625 
Q 32.171875 45.75 26.171875 45.75 
Q 20.3125 45.75 16.375 40.96875 
Q 12.453125 36.1875 12.453125 25.875 
z
" id="ArialMT-100"/>
      </defs>
      <use xlink:href="#ArialMT-67"/>
      <use x="72.216797" xlink:href="#ArialMT-97"/>
      <use x="127.832031" xlink:href="#ArialMT-108"/>
      <use x="150.048828" xlink:href="#ArialMT-99"/>
      <use x="200.048828" xlink:href="#ArialMT-117"/>
      <use x="255.664062" xlink:href="#ArialMT-108"/>
      <use x="277.880859" xlink:href="#ArialMT-97"/>
      <use x="333.496094" xlink:href="#ArialMT-116"/>
      <use x="361.279297" xlink:href="#ArialMT-101"/>
      <use x="416.894531" xlink:href="#ArialMT-100"/>
     </g>
    </g>
   </g>
  </g>
  <g id="axes_2">
   <g id="patch_10">
    <path d="M 315.490909 288.36 
L 518.4 288.36 
L 518.4 38.88 
L 315.490909 38.88 
z
" style="fill:#eaeaf2;"/>
   </g>
   <g id="matplotlib.axis_3">
    <g id="xtick_7">
     <g id="line2d_27">
      <path clip-path="url(#paba989453f)" d="M 324.71405 288.36 
L 324.71405 38.88 
" style="fill:none;stroke:#ffffff;stroke-linecap:round;"/>
     </g>
     <g id="text_22">
      <!-- 0 -->
      <g style="fill:#262626;" transform="translate(321.655534 305.733594)scale(0.11 -0.11)">
       <use xlink:href="#ArialMT-48"/>
      </g>
     </g>
    </g>
    <g id="xtick_8">
     <g id="line2d_28">
      <path clip-path="url(#paba989453f)" d="M 361.606612 288.36 
L 361.606612 38.88 
" style="fill:none;stroke:#ffffff;stroke-linecap:round;"/>
     </g>
     <g id="text_23">
      <!-- 1 -->
      <g style="fill:#262626;" transform="translate(358.548096 305.733594)scale(0.11 -0.11)">
       <use xlink:href="#ArialMT-49"/>
      </g>
     </g>
    </g>
    <g id="xtick_9">
     <g id="line2d_29">
      <path clip-path="url(#paba989453f)" d="M 398.499174 288.36 
L 398.499174 38.88 
" style="fill:none;stroke:#ffffff;stroke-linecap:round;"/>
     </g>
     <g id="text_24">
      <!-- 2 -->
      <g style="fill:#262626;" transform="translate(395.440658 305.733594)scale(0.11 -0.11)">
       <use xlink:href="#ArialMT-50"/>
      </g>
     </g>
    </g>
    <g id="xtick_10">
     <g id="line2d_30">
      <path clip-path="url(#paba989453f)" d="M 435.391736 288.36 
L 435.391736 38.88 
" style="fill:none;stroke:#ffffff;stroke-linecap:round;"/>
     </g>
     <g id="text_25">
      <!-- 3 -->
      <g style="fill:#262626;" transform="translate(432.33322 305.733594)scale(0.11 -0.11)">
       <use xlink:href="#ArialMT-51"/>
      </g>
     </g>
    </g>
    <g id="xtick_11">
     <g id="line2d_31">
      <path clip-path="url(#paba989453f)" d="M 472.284298 288.36 
L 472.284298 38.88 
" style="fill:none;stroke:#ffffff;stroke-linecap:round;"/>
     </g>
     <g id="text_26">
      <!-- 4 -->
      <g style="fill:#262626;" transform="translate(469.225782 305.733594)scale(0.11 -0.11)">
       <use xlink:href="#ArialMT-52"/>
      </g>
     </g>
    </g>
    <g id="xtick_12">
     <g id="line2d_32">
      <path clip-path="url(#paba989453f)" d="M 509.17686 288.36 
L 509.17686 38.88 
" style="fill:none;stroke:#ffffff;stroke-linecap:round;"/>
     </g>
     <g id="text_27">
      <!-- 5 -->
      <g style="fill:#262626;" transform="translate(506.118344 305.733594)scale(0.11 -0.11)">
       <use xlink:href="#ArialMT-53"/>
      </g>
     </g>
    </g>
    <g id="text_28">
     <!-- $s$ -->
     <g style="fill:#262626;" transform="translate(413.765455 320.509219)scale(0.12 -0.12)">
      <defs>
       <path d="M 50 53.078125 
L 48.296875 44.578125 
Q 44.734375 46.53125 40.765625 47.5 
Q 36.8125 48.484375 32.625 48.484375 
Q 25.53125 48.484375 21.453125 46.0625 
Q 17.390625 43.65625 17.390625 39.5 
Q 17.390625 34.671875 26.859375 32.078125 
Q 27.59375 31.890625 27.9375 31.78125 
L 30.8125 30.90625 
Q 39.796875 28.421875 42.796875 25.6875 
Q 45.796875 22.953125 45.796875 18.21875 
Q 45.796875 9.515625 38.890625 4.046875 
Q 31.984375 -1.421875 20.796875 -1.421875 
Q 16.453125 -1.421875 11.671875 -0.578125 
Q 6.890625 0.25 1.125 2 
L 2.875 11.28125 
Q 7.8125 8.734375 12.59375 7.421875 
Q 17.390625 6.109375 21.78125 6.109375 
Q 28.375 6.109375 32.5 8.9375 
Q 36.625 11.765625 36.625 16.109375 
Q 36.625 20.796875 25.78125 23.6875 
L 24.859375 23.921875 
L 21.78125 24.703125 
Q 14.9375 26.515625 11.765625 29.46875 
Q 8.59375 32.421875 8.59375 37.015625 
Q 8.59375 45.75 15.15625 50.875 
Q 21.734375 56 33.015625 56 
Q 37.453125 56 41.671875 55.265625 
Q 45.90625 54.546875 50 53.078125 
z
" id="DejaVuSans-Oblique-115"/>
      </defs>
      <use xlink:href="#DejaVuSans-Oblique-115"/>
     </g>
    </g>
   </g>
   <g id="matplotlib.axis_4">
    <g id="ytick_9">
     <g id="line2d_33">
      <path clip-path="url(#paba989453f)" d="M 315.490909 288.36 
L 518.4 288.36 
" style="fill:none;stroke:#ffffff;stroke-linecap:round;"/>
     </g>
     <g id="text_29">
      <!-- 0.0 -->
      <g style="fill:#262626;" transform="translate(290.700909 292.296797)scale(0.11 -0.11)">
       <use xlink:href="#ArialMT-48"/>
       <use x="55.615234" xlink:href="#ArialMT-46"/>
       <use x="83.398438" xlink:href="#ArialMT-48"/>
      </g>
     </g>
    </g>
    <g id="ytick_10">
     <g id="line2d_34">
      <path clip-path="url(#paba989453f)" d="M 315.490909 249.533143 
L 518.4 249.533143 
" style="fill:none;stroke:#ffffff;stroke-linecap:round;"/>
     </g>
     <g id="text_30">
      <!-- 0.2 -->
      <g style="fill:#262626;" transform="translate(290.700909 253.46994)scale(0.11 -0.11)">
       <use xlink:href="#ArialMT-48"/>
       <use x="55.615234" xlink:href="#ArialMT-46"/>
       <use x="83.398438" xlink:href="#ArialMT-50"/>
      </g>
     </g>
    </g>
    <g id="ytick_11">
     <g id="line2d_35">
      <path clip-path="url(#paba989453f)" d="M 315.490909 210.706286 
L 518.4 210.706286 
" style="fill:none;stroke:#ffffff;stroke-linecap:round;"/>
     </g>
     <g id="text_31">
      <!-- 0.4 -->
      <g style="fill:#262626;" transform="translate(290.700909 214.643083)scale(0.11 -0.11)">
       <use xlink:href="#ArialMT-48"/>
       <use x="55.615234" xlink:href="#ArialMT-46"/>
       <use x="83.398438" xlink:href="#ArialMT-52"/>
      </g>
     </g>
    </g>
    <g id="ytick_12">
     <g id="line2d_36">
      <path clip-path="url(#paba989453f)" d="M 315.490909 171.879429 
L 518.4 171.879429 
" style="fill:none;stroke:#ffffff;stroke-linecap:round;"/>
     </g>
     <g id="text_32">
      <!-- 0.6 -->
      <g style="fill:#262626;" transform="translate(290.700909 175.816225)scale(0.11 -0.11)">
       <use xlink:href="#ArialMT-48"/>
       <use x="55.615234" xlink:href="#ArialMT-46"/>
       <use x="83.398438" xlink:href="#ArialMT-54"/>
      </g>
     </g>
    </g>
    <g id="ytick_13">
     <g id="line2d_37">
      <path clip-path="url(#paba989453f)" d="M 315.490909 133.052571 
L 518.4 133.052571 
" style="fill:none;stroke:#ffffff;stroke-linecap:round;"/>
     </g>
     <g id="text_33">
      <!-- 0.8 -->
      <g style="fill:#262626;" transform="translate(290.700909 136.989368)scale(0.11 -0.11)">
       <use xlink:href="#ArialMT-48"/>
       <use x="55.615234" xlink:href="#ArialMT-46"/>
       <use x="83.398438" xlink:href="#ArialMT-56"/>
      </g>
     </g>
    </g>
    <g id="ytick_14">
     <g id="line2d_38">
      <path clip-path="url(#paba989453f)" d="M 315.490909 94.225714 
L 518.4 94.225714 
" style="fill:none;stroke:#ffffff;stroke-linecap:round;"/>
     </g>
     <g id="text_34">
      <!-- 1.0 -->
      <g style="fill:#262626;" transform="translate(290.700909 98.162511)scale(0.11 -0.11)">
       <use xlink:href="#ArialMT-49"/>
       <use x="55.615234" xlink:href="#ArialMT-46"/>
       <use x="83.398438" xlink:href="#ArialMT-48"/>
      </g>
     </g>
    </g>
    <g id="ytick_15">
     <g id="line2d_39">
      <path clip-path="url(#paba989453f)" d="M 315.490909 55.398857 
L 518.4 55.398857 
" style="fill:none;stroke:#ffffff;stroke-linecap:round;"/>
     </g>
     <g id="text_35">
      <!-- 1.2 -->
      <g style="fill:#262626;" transform="translate(290.700909 59.335654)scale(0.11 -0.11)">
       <use xlink:href="#ArialMT-49"/>
       <use x="55.615234" xlink:href="#ArialMT-46"/>
       <use x="83.398438" xlink:href="#ArialMT-50"/>
      </g>
     </g>
    </g>
    <g id="text_36">
     <!-- $P(s)$ -->
     <g style="fill:#262626;" transform="translate(284.315909 175.08)rotate(-90)scale(0.12 -0.12)">
      <use transform="translate(0 0.125)" xlink:href="#DejaVuSans-Oblique-80"/>
      <use transform="translate(60.302734 0.125)" xlink:href="#DejaVuSans-40"/>
      <use transform="translate(99.316406 0.125)" xlink:href="#DejaVuSans-Oblique-115"/>
      <use transform="translate(151.416016 0.125)" xlink:href="#DejaVuSans-41"/>
     </g>
    </g>
   </g>
   <g id="patch_11">
    <path clip-path="url(#paba989453f)" d="M 324.71405 288.36 
L 324.71405 50.76 
L 326.558678 50.76 
L 326.558678 126.188571 
L 328.403306 126.188571 
L 328.403306 122.417143 
L 330.247934 122.417143 
L 330.247934 139.388571 
L 332.092562 139.388571 
L 332.092562 131.845714 
L 333.93719 131.845714 
L 333.93719 126.188571 
L 335.781818 126.188571 
L 335.781818 156.36 
L 337.626446 156.36 
L 337.626446 169.56 
L 339.471074 169.56 
L 339.471074 162.017143 
L 341.315702 162.017143 
L 341.315702 167.674286 
L 343.160331 167.674286 
L 343.160331 171.445714 
L 345.004959 171.445714 
L 345.004959 169.56 
L 346.849587 169.56 
L 346.849587 195.96 
L 348.694215 195.96 
L 348.694215 205.388571 
L 350.538843 205.388571 
L 350.538843 195.96 
L 352.383471 195.96 
L 352.383471 231.788571 
L 354.228099 231.788571 
L 354.228099 214.817143 
L 356.072727 214.817143 
L 356.072727 207.274286 
L 357.917355 207.274286 
L 357.917355 205.388571 
L 359.761983 205.388571 
L 359.761983 195.96 
L 361.606612 195.96 
L 361.606612 201.617143 
L 363.45124 201.617143 
L 363.45124 216.702857 
L 365.295868 216.702857 
L 365.295868 239.331429 
L 367.140496 239.331429 
L 367.140496 212.931429 
L 368.985124 212.931429 
L 368.985124 228.017143 
L 370.829752 228.017143 
L 370.829752 239.331429 
L 372.67438 239.331429 
L 372.67438 224.245714 
L 374.519008 224.245714 
L 374.519008 246.874286 
L 376.363636 246.874286 
L 376.363636 224.245714 
L 378.208264 224.245714 
L 378.208264 260.074286 
L 380.052893 260.074286 
L 380.052893 254.417143 
L 381.897521 254.417143 
L 381.897521 228.017143 
L 383.742149 228.017143 
L 383.742149 237.445714 
L 385.586777 237.445714 
L 385.586777 252.531429 
L 389.276033 252.531429 
L 389.276033 241.217143 
L 391.120661 241.217143 
L 391.120661 260.074286 
L 392.965289 260.074286 
L 392.965289 254.417143 
L 394.809917 254.417143 
L 394.809917 267.617143 
L 396.654545 267.617143 
L 396.654545 261.96 
L 398.499174 261.96 
L 398.499174 271.388571 
L 400.343802 271.388571 
L 400.343802 256.302857 
L 402.18843 256.302857 
L 402.18843 271.388571 
L 404.033058 271.388571 
L 404.033058 261.96 
L 405.877686 261.96 
L 405.877686 273.274286 
L 407.722314 273.274286 
L 407.722314 269.502857 
L 409.566942 269.502857 
L 409.566942 267.617143 
L 411.41157 267.617143 
L 411.41157 265.731429 
L 413.256198 265.731429 
L 413.256198 261.96 
L 415.100826 261.96 
L 415.100826 265.731429 
L 416.945455 265.731429 
L 416.945455 273.274286 
L 420.634711 273.274286 
L 420.634711 278.931429 
L 424.323967 278.931429 
L 424.323967 273.274286 
L 426.168595 273.274286 
L 426.168595 277.045714 
L 428.013223 277.045714 
L 428.013223 284.588571 
L 429.857851 284.588571 
L 429.857851 277.045714 
L 433.547107 277.045714 
L 433.547107 271.388571 
L 435.391736 271.388571 
L 435.391736 280.817143 
L 437.236364 280.817143 
L 437.236364 284.588571 
L 439.080992 284.588571 
L 439.080992 282.702857 
L 440.92562 282.702857 
L 440.92562 278.931429 
L 442.770248 278.931429 
L 442.770248 275.16 
L 444.614876 275.16 
L 444.614876 280.817143 
L 446.459504 280.817143 
L 446.459504 277.045714 
L 448.304132 277.045714 
L 448.304132 286.474286 
L 450.14876 286.474286 
L 450.14876 273.274286 
L 451.993388 273.274286 
L 451.993388 278.931429 
L 453.838017 278.931429 
L 453.838017 282.702857 
L 457.527273 282.702857 
L 457.527273 288.36 
L 459.371901 288.36 
L 459.371901 278.931429 
L 461.216529 278.931429 
L 461.216529 286.474286 
L 463.061157 286.474286 
L 463.061157 280.817143 
L 464.905785 280.817143 
L 464.905785 286.474286 
L 472.284298 286.474286 
L 472.284298 284.588571 
L 474.128926 284.588571 
L 474.128926 286.474286 
L 475.973554 286.474286 
L 475.973554 284.588571 
L 479.66281 284.588571 
L 479.66281 286.474286 
L 481.507438 286.474286 
L 481.507438 288.36 
L 485.196694 288.36 
L 485.196694 286.474286 
L 487.041322 286.474286 
L 487.041322 288.36 
L 492.575207 288.36 
L 492.575207 282.702857 
L 494.419835 282.702857 
L 494.419835 286.474286 
L 498.109091 286.474286 
L 498.109091 284.588571 
L 499.953719 284.588571 
L 499.953719 288.36 
L 501.798347 288.36 
L 501.798347 286.474286 
L 505.487603 286.474286 
L 505.487603 288.36 
L 507.332231 288.36 
L 507.332231 284.588571 
L 509.17686 284.588571 
L 509.17686 288.36 
L 509.17686 288.36 
" style="fill:none;stroke:#4c72b0;stroke-linejoin:miter;"/>
   </g>
   <g id="line2d_40">
    <path clip-path="url(#paba989453f)" d="M 324.71405 94.225714 
L 326.57731 103.786997 
L 328.440571 112.877379 
L 330.303832 121.520051 
L 332.167092 129.737064 
L 334.030353 137.549382 
L 335.893614 144.976937 
L 337.756875 152.038678 
L 339.620135 158.752622 
L 341.483396 165.135899 
L 343.346657 171.204793 
L 345.209917 176.974789 
L 347.073178 182.460608 
L 348.936439 187.676246 
L 350.799699 192.635009 
L 352.66296 197.349548 
L 354.526221 201.831892 
L 356.389482 206.093477 
L 358.252742 210.145175 
L 360.116003 213.997324 
L 361.979264 217.65975 
L 363.842524 221.141799 
L 365.705785 224.452354 
L 367.569046 227.599862 
L 369.432307 230.592352 
L 371.295567 233.437459 
L 373.158828 236.142442 
L 375.022089 238.714202 
L 376.885349 241.159301 
L 378.74861 243.483977 
L 380.611871 245.69416 
L 382.475131 247.79549 
L 384.338392 249.793327 
L 386.201653 251.69277 
L 388.064914 253.498663 
L 389.928174 255.215614 
L 391.791435 256.848004 
L 393.654696 258.399997 
L 395.517956 259.875554 
L 397.381217 261.278438 
L 399.244478 262.612228 
L 401.107739 263.880328 
L 402.970999 265.085974 
L 404.83426 266.23224 
L 406.697521 267.322051 
L 408.560781 268.358189 
L 410.424042 269.343295 
L 412.287303 270.279885 
L 414.150563 271.170346 
L 416.013824 272.016951 
L 417.877085 272.821861 
L 419.740346 273.587128 
L 421.603606 274.314705 
L 423.466867 275.006448 
L 425.330128 275.664122 
L 427.193388 276.289405 
L 429.056649 276.883892 
L 430.91991 277.449101 
L 432.783171 277.986472 
L 434.646431 278.497377 
L 436.509692 278.98312 
L 438.372953 279.44494 
L 440.236213 279.884014 
L 442.099474 280.301464 
L 443.962735 280.698354 
L 445.825995 281.075696 
L 447.689256 281.434455 
L 449.552517 281.775544 
L 451.415778 282.099834 
L 453.279038 282.408153 
L 455.142299 282.701286 
L 457.00556 282.979983 
L 458.86882 283.244954 
L 460.732081 283.496874 
L 462.595342 283.736387 
L 464.458603 283.964104 
L 466.321863 284.180606 
L 468.185124 284.386445 
L 470.048385 284.582146 
L 471.911645 284.768208 
L 473.774906 284.945107 
L 475.638167 285.113294 
L 477.501427 285.273197 
L 479.364688 285.425225 
L 481.227949 285.569765 
L 483.09121 285.707186 
L 484.95447 285.83784 
L 486.817731 285.962058 
L 488.680992 286.080159 
L 490.544252 286.192443 
L 492.407513 286.299197 
L 494.270774 286.400694 
L 496.134035 286.497191 
L 497.997295 286.588936 
L 499.860556 286.676163 
L 501.723817 286.759093 
L 503.587077 286.837939 
L 505.450338 286.912902 
L 507.313599 286.984173 
L 509.17686 287.051933 
" style="fill:none;stroke:#dd8452;stroke-linecap:round;stroke-width:1.5;"/>
   </g>
   <g id="line2d_41">
    <path clip-path="url(#paba989453f)" d="M 324.71405 288.36 
L 326.57731 286.759662 
L 328.440571 282.020716 
L 330.303832 274.326359 
L 332.167092 263.972092 
L 334.030353 251.351598 
L 335.893614 236.938155 
L 337.756875 221.262689 
L 339.620135 204.889705 
L 341.483396 188.392463 
L 343.346657 172.328734 
L 345.209917 157.218388 
L 347.073178 143.523902 
L 348.936439 131.634645 
L 350.799699 121.855521 
L 352.66296 114.400272 
L 354.526221 109.389448 
L 356.389482 106.852772 
L 358.252742 106.735422 
L 360.116003 108.907548 
L 361.979264 113.176245 
L 363.842524 119.299117 
L 365.705785 126.998595 
L 367.569046 135.9762 
L 369.432307 145.926059 
L 371.295567 156.547085 
L 373.158828 167.553406 
L 375.022089 178.682756 
L 376.885349 189.702711 
L 378.74861 200.414771 
L 380.611871 210.65642 
L 382.475131 220.30137 
L 384.338392 229.25828 
L 386.201653 237.468242 
L 388.064914 244.901386 
L 389.928174 251.552896 
L 391.791435 257.438742 
L 393.654696 262.591375 
L 395.517956 267.055581 
L 397.381217 270.884667 
L 399.244478 274.13707 
L 401.107739 276.873475 
L 402.970999 279.154435 
L 404.83426 281.038521 
L 406.697521 282.580952 
L 408.560781 283.83265 
L 410.424042 284.839682 
L 412.287303 285.643009 
L 414.150563 286.278482 
L 416.013824 286.777024 
L 417.877085 287.164952 
L 419.740346 287.464371 
L 421.603606 287.693629 
L 423.466867 287.867777 
L 425.330128 287.999025 
L 427.193388 288.097171 
L 429.056649 288.169996 
L 430.91991 288.223619 
L 432.783171 288.262803 
L 434.646431 288.291218 
L 436.509692 288.311668 
L 438.372953 288.326277 
L 440.236213 288.336636 
L 442.099474 288.343925 
L 443.962735 288.349018 
L 445.825995 288.352549 
L 447.689256 288.35498 
L 449.552517 288.356641 
L 451.415778 288.357768 
L 453.279038 288.358527 
L 455.142299 288.359035 
L 457.00556 288.359372 
L 458.86882 288.359594 
L 460.732081 288.359739 
L 462.595342 288.359834 
L 464.458603 288.359895 
L 466.321863 288.359934 
L 468.185124 288.359959 
L 470.048385 288.359974 
L 471.911645 288.359984 
L 473.774906 288.35999 
L 475.638167 288.359994 
L 477.501427 288.359996 
L 479.364688 288.359998 
L 481.227949 288.359999 
L 483.09121 288.359999 
L 484.95447 288.36 
L 486.817731 288.36 
L 488.680992 288.36 
L 490.544252 288.36 
L 492.407513 288.36 
L 494.270774 288.36 
L 496.134035 288.36 
L 497.997295 288.36 
L 499.860556 288.36 
L 501.723817 288.36 
L 503.587077 288.36 
L 505.450338 288.36 
L 507.313599 288.36 
L 509.17686 288.36 
" style="fill:none;stroke:#55a868;stroke-linecap:round;stroke-width:1.5;"/>
   </g>
   <g id="line2d_42">
    <path clip-path="url(#paba989453f)" d="M 324.71405 288.36 
L 326.57731 272.989539 
L 328.440571 257.80328 
L 330.303832 242.98175 
L 332.167092 228.69823 
L 334.030353 215.115385 
L 335.893614 202.382184 
L 337.756875 190.631202 
L 339.620135 179.976351 
L 341.483396 170.511122 
L 343.346657 162.307342 
L 345.209917 155.414494 
L 347.073178 149.85958 
L 348.936439 145.647516 
L 350.799699 142.76203 
L 352.66296 141.167013 
L 354.526221 140.808266 
L 356.389482 141.615568 
L 358.252742 143.504999 
L 360.116003 146.38144 
L 361.979264 150.14116 
L 363.842524 154.674432 
L 365.705785 159.868086 
L 367.569046 165.607954 
L 369.432307 171.781133 
L 371.295567 178.278031 
L 373.158828 184.994165 
L 375.022089 191.831663 
L 376.885349 198.700485 
L 378.74861 205.51934 
L 380.611871 212.216313 
L 382.475131 218.729207 
L 384.338392 225.005637 
L 386.201653 231.002886 
L 388.064914 236.68756 
L 389.928174 242.035077 
L 391.791435 247.029024 
L 393.654696 251.660403 
L 395.517956 255.926824 
L 397.381217 259.831647 
L 399.244478 263.383119 
L 401.107739 266.593526 
L 402.970999 269.478372 
L 404.83426 272.055615 
L 406.697521 274.34496 
L 408.560781 276.367222 
L 410.424042 278.14377 
L 412.287303 279.696047 
L 414.150563 281.04516 
L 416.013824 282.211561 
L 417.877085 283.21478 
L 419.740346 284.07324 
L 421.603606 284.804119 
L 423.466867 285.423266 
L 425.330128 285.945166 
L 427.193388 286.382936 
L 429.056649 286.74835 
L 430.91991 287.051897 
L 432.783171 287.302843 
L 434.646431 287.509317 
L 436.509692 287.678398 
L 438.372953 287.816207 
L 440.236213 287.928004 
L 442.099474 288.018279 
L 443.962735 288.090837 
L 445.825995 288.148888 
L 447.689256 288.195121 
L 449.552517 288.231773 
L 451.415778 288.260698 
L 453.279038 288.283422 
L 455.142299 288.301195 
L 457.00556 288.315033 
L 458.86882 288.325758 
L 460.732081 288.334035 
L 462.595342 288.340394 
L 464.458603 288.345257 
L 466.321863 288.34896 
L 468.185124 288.351768 
L 470.048385 288.353887 
L 471.911645 288.355479 
L 473.774906 288.356671 
L 475.638167 288.357559 
L 477.501427 288.358217 
L 479.364688 288.358703 
L 481.227949 288.359061 
L 483.09121 288.359323 
L 484.95447 288.359513 
L 486.817731 288.359652 
L 488.680992 288.359752 
L 490.544252 288.359824 
L 492.407513 288.359876 
L 494.270774 288.359913 
L 496.134035 288.359939 
L 497.997295 288.359957 
L 499.860556 288.35997 
L 501.723817 288.359979 
L 503.587077 288.359986 
L 505.450338 288.35999 
L 507.313599 288.359993 
L 509.17686 288.359995 
" style="fill:none;stroke:#c44e52;stroke-linecap:round;stroke-width:1.5;"/>
   </g>
   <g id="line2d_43">
    <path clip-path="url(#paba989453f)" d="M 324.71405 288.36 
L 326.57731 288.345435 
L 328.440571 288.130969 
L 330.303832 287.233525 
L 332.167092 284.940803 
L 334.030353 280.435047 
L 335.893614 272.938055 
L 337.756875 261.854942 
L 339.620135 246.894778 
L 341.483396 228.150292 
L 343.346657 206.125526 
L 345.209917 181.70847 
L 347.073178 156.093836 
L 348.936439 130.668023 
L 350.799699 106.872908 
L 352.66296 86.066915 
L 354.526221 69.400734 
L 356.389482 57.721676 
L 358.252742 51.515562 
L 360.116003 50.889345 
L 361.979264 55.592202 
L 363.842524 65.068364 
L 365.705785 78.532041 
L 367.569046 95.053558 
L 369.432307 113.646167 
L 371.295567 133.344654 
L 373.158828 153.269322 
L 375.022089 172.671719 
L 376.885349 190.961167 
L 378.74861 207.713425 
L 380.611871 222.664404 
L 382.475131 235.69279 
L 384.338392 246.795675 
L 386.201653 256.061016 
L 388.064914 263.640138 
L 389.928174 269.722622 
L 391.791435 274.515097 
L 393.654696 278.224643 
L 395.517956 281.046861 
L 397.381217 283.158243 
L 399.244478 284.712134 
L 401.107739 285.837527 
L 402.970999 286.639853 
L 404.83426 287.203077 
L 406.697521 287.592482 
L 408.560781 287.857704 
L 410.424042 288.035691 
L 412.287303 288.153405 
L 414.150563 288.230138 
L 416.013824 288.279449 
L 417.877085 288.310691 
L 419.740346 288.33021 
L 421.603606 288.342236 
L 423.466867 288.349545 
L 425.330128 288.353926 
L 427.193388 288.356516 
L 429.056649 288.358027 
L 430.91991 288.358897 
L 432.783171 288.359391 
L 434.646431 288.359668 
L 436.509692 288.359822 
L 438.372953 288.359905 
L 440.236213 288.35995 
L 442.099474 288.359974 
L 443.962735 288.359987 
L 445.825995 288.359993 
L 447.689256 288.359997 
L 449.552517 288.359998 
L 451.415778 288.359999 
L 453.279038 288.36 
L 455.142299 288.36 
L 457.00556 288.36 
L 458.86882 288.36 
L 460.732081 288.36 
L 462.595342 288.36 
L 464.458603 288.36 
L 466.321863 288.36 
L 468.185124 288.36 
L 470.048385 288.36 
L 471.911645 288.36 
L 473.774906 288.36 
L 475.638167 288.36 
L 477.501427 288.36 
L 479.364688 288.36 
L 481.227949 288.36 
L 483.09121 288.36 
L 484.95447 288.36 
L 486.817731 288.36 
L 488.680992 288.36 
L 490.544252 288.36 
L 492.407513 288.36 
L 494.270774 288.36 
L 496.134035 288.36 
L 497.997295 288.36 
L 499.860556 288.36 
L 501.723817 288.36 
L 503.587077 288.36 
L 505.450338 288.36 
L 507.313599 288.36 
L 509.17686 288.36 
" style="fill:none;stroke:#8172b3;stroke-linecap:round;stroke-width:1.5;"/>
   </g>
   <g id="patch_12">
    <path d="M 315.490909 288.36 
L 315.490909 38.88 
" style="fill:none;stroke:#ffffff;stroke-linecap:square;stroke-linejoin:miter;stroke-width:1.25;"/>
   </g>
   <g id="patch_13">
    <path d="M 518.4 288.36 
L 518.4 38.88 
" style="fill:none;stroke:#ffffff;stroke-linecap:square;stroke-linejoin:miter;stroke-width:1.25;"/>
   </g>
   <g id="patch_14">
    <path d="M 315.490909 288.36 
L 518.4 288.36 
" style="fill:none;stroke:#ffffff;stroke-linecap:square;stroke-linejoin:miter;stroke-width:1.25;"/>
   </g>
   <g id="patch_15">
    <path d="M 315.490909 38.88 
L 518.4 38.88 
" style="fill:none;stroke:#ffffff;stroke-linecap:square;stroke-linejoin:miter;stroke-width:1.25;"/>
   </g>
   <g id="legend_2">
    <g id="patch_16">
     <path d="M 423.526719 125.479219 
L 510.7 125.479219 
Q 512.9 125.479219 512.9 123.279219 
L 512.9 46.58 
Q 512.9 44.38 510.7 44.38 
L 423.526719 44.38 
Q 421.326719 44.38 421.326719 46.58 
L 421.326719 123.279219 
Q 421.326719 125.479219 423.526719 125.479219 
z
" style="fill:#eaeaf2;opacity:0.8;stroke:#cccccc;stroke-linejoin:miter;"/>
    </g>
    <g id="line2d_44">
     <path d="M 425.726719 52.803594 
L 447.726719 52.803594 
" style="fill:none;stroke:#dd8452;stroke-linecap:round;stroke-width:1.5;"/>
    </g>
    <g id="line2d_45"/>
    <g id="text_37">
     <!-- Poisson -->
     <g style="fill:#262626;" transform="translate(456.526719 56.653594)scale(0.11 -0.11)">
      <use xlink:href="#ArialMT-80"/>
      <use x="66.699219" xlink:href="#ArialMT-111"/>
      <use x="122.314453" xlink:href="#ArialMT-105"/>
      <use x="144.53125" xlink:href="#ArialMT-115"/>
      <use x="194.53125" xlink:href="#ArialMT-115"/>
      <use x="244.53125" xlink:href="#ArialMT-111"/>
      <use x="300.146484" xlink:href="#ArialMT-110"/>
     </g>
    </g>
    <g id="line2d_46">
     <path d="M 425.726719 68.363437 
L 447.726719 68.363437 
" style="fill:none;stroke:#55a868;stroke-linecap:round;stroke-width:1.5;"/>
    </g>
    <g id="line2d_47"/>
    <g id="text_38">
     <!-- CUE -->
     <g style="fill:#262626;" transform="translate(456.526719 72.213437)scale(0.11 -0.11)">
      <use xlink:href="#ArialMT-67"/>
      <use x="72.216797" xlink:href="#ArialMT-85"/>
      <use x="144.433594" xlink:href="#ArialMT-69"/>
     </g>
    </g>
    <g id="line2d_48">
     <path d="M 425.726719 83.923281 
L 447.726719 83.923281 
" style="fill:none;stroke:#c44e52;stroke-linecap:round;stroke-width:1.5;"/>
    </g>
    <g id="line2d_49"/>
    <g id="text_39">
     <!-- COE -->
     <g style="fill:#262626;" transform="translate(456.526719 87.773281)scale(0.11 -0.11)">
      <use xlink:href="#ArialMT-67"/>
      <use x="72.216797" xlink:href="#ArialMT-79"/>
      <use x="150" xlink:href="#ArialMT-69"/>
     </g>
    </g>
    <g id="line2d_50">
     <path d="M 425.726719 99.483125 
L 447.726719 99.483125 
" style="fill:none;stroke:#8172b3;stroke-linecap:round;stroke-width:1.5;"/>
    </g>
    <g id="line2d_51"/>
    <g id="text_40">
     <!-- CSE -->
     <g style="fill:#262626;" transform="translate(456.526719 103.333125)scale(0.11 -0.11)">
      <use xlink:href="#ArialMT-67"/>
      <use x="72.216797" xlink:href="#ArialMT-83"/>
      <use x="138.916016" xlink:href="#ArialMT-69"/>
     </g>
    </g>
    <g id="patch_17">
     <path d="M 425.726719 118.892969 
L 447.726719 118.892969 
L 447.726719 111.192969 
L 425.726719 111.192969 
z
" style="fill:none;stroke:#4c72b0;stroke-linejoin:miter;"/>
    </g>
    <g id="text_41">
     <!-- Calculated -->
     <g style="fill:#262626;" transform="translate(456.526719 118.892969)scale(0.11 -0.11)">
      <use xlink:href="#ArialMT-67"/>
      <use x="72.216797" xlink:href="#ArialMT-97"/>
      <use x="127.832031" xlink:href="#ArialMT-108"/>
      <use x="150.048828" xlink:href="#ArialMT-99"/>
      <use x="200.048828" xlink:href="#ArialMT-117"/>
      <use x="255.664062" xlink:href="#ArialMT-108"/>
      <use x="277.880859" xlink:href="#ArialMT-97"/>
      <use x="333.496094" xlink:href="#ArialMT-116"/>
      <use x="361.279297" xlink:href="#ArialMT-101"/>
      <use x="416.894531" xlink:href="#ArialMT-100"/>
     </g>
    </g>
   </g>
  </g>
  <g id="text_42">
   <!-- Quantum Kicked Rotor (K = 5.0) -->
   <g style="fill:#262626;" transform="translate(185.3595 16.97175)scale(0.144 -0.144)">
    <defs>
     <path d="M 61.96875 7.671875 
Q 68.5625 3.125 74.125 1.03125 
L 71.34375 -5.5625 
Q 63.625 -2.78125 55.953125 3.21875 
Q 48 -1.21875 38.375 -1.21875 
Q 28.65625 -1.21875 20.75 3.46875 
Q 12.84375 8.15625 8.5625 16.640625 
Q 4.296875 25.140625 4.296875 35.796875 
Q 4.296875 46.390625 8.59375 55.078125 
Q 12.890625 63.765625 20.828125 68.3125 
Q 28.765625 72.859375 38.578125 72.859375 
Q 48.484375 72.859375 56.4375 68.140625 
Q 64.40625 63.421875 68.578125 54.953125 
Q 72.75 46.484375 72.75 35.84375 
Q 72.75 27 70.0625 19.9375 
Q 67.390625 12.890625 61.96875 7.671875 
z
M 41.109375 19.78125 
Q 49.3125 17.484375 54.640625 12.9375 
Q 62.984375 20.5625 62.984375 35.84375 
Q 62.984375 44.53125 60.03125 51.015625 
Q 57.078125 57.515625 51.390625 61.109375 
Q 45.703125 64.703125 38.625 64.703125 
Q 28.03125 64.703125 21.046875 57.453125 
Q 14.0625 50.203125 14.0625 35.796875 
Q 14.0625 21.828125 20.96875 14.359375 
Q 27.875 6.890625 38.625 6.890625 
Q 43.703125 6.890625 48.1875 8.796875 
Q 43.75 11.671875 38.8125 12.890625 
z
" id="ArialMT-81"/>
     <path d="M 6.59375 0 
L 6.59375 51.859375 
L 14.453125 51.859375 
L 14.453125 44.578125 
Q 16.890625 48.390625 20.9375 50.703125 
Q 25 53.03125 30.171875 53.03125 
Q 35.9375 53.03125 39.625 50.640625 
Q 43.3125 48.25 44.828125 43.953125 
Q 50.984375 53.03125 60.84375 53.03125 
Q 68.5625 53.03125 72.703125 48.75 
Q 76.859375 44.484375 76.859375 35.59375 
L 76.859375 0 
L 68.109375 0 
L 68.109375 32.671875 
Q 68.109375 37.9375 67.25 40.25 
Q 66.40625 42.578125 64.15625 43.984375 
Q 61.921875 45.40625 58.890625 45.40625 
Q 53.421875 45.40625 49.796875 41.765625 
Q 46.1875 38.140625 46.1875 30.125 
L 46.1875 0 
L 37.40625 0 
L 37.40625 33.6875 
Q 37.40625 39.546875 35.25 42.46875 
Q 33.109375 45.40625 28.21875 45.40625 
Q 24.515625 45.40625 21.359375 43.453125 
Q 18.21875 41.5 16.796875 37.734375 
Q 15.375 33.984375 15.375 26.90625 
L 15.375 0 
z
" id="ArialMT-109"/>
     <path id="ArialMT-32"/>
     <path d="M 7.328125 0 
L 7.328125 71.578125 
L 16.796875 71.578125 
L 16.796875 36.078125 
L 52.34375 71.578125 
L 65.1875 71.578125 
L 35.15625 42.578125 
L 66.5 0 
L 54 0 
L 28.515625 36.234375 
L 16.796875 24.8125 
L 16.796875 0 
z
" id="ArialMT-75"/>
     <path d="M 6.640625 0 
L 6.640625 71.578125 
L 15.4375 71.578125 
L 15.4375 30.765625 
L 36.234375 51.859375 
L 47.609375 51.859375 
L 27.78125 32.625 
L 49.609375 0 
L 38.765625 0 
L 21.625 26.515625 
L 15.4375 20.5625 
L 15.4375 0 
z
" id="ArialMT-107"/>
     <path d="M 7.859375 0 
L 7.859375 71.578125 
L 39.59375 71.578125 
Q 49.171875 71.578125 54.140625 69.640625 
Q 59.125 67.71875 62.109375 62.828125 
Q 65.09375 57.953125 65.09375 52.046875 
Q 65.09375 44.4375 60.15625 39.203125 
Q 55.21875 33.984375 44.921875 32.5625 
Q 48.6875 30.765625 50.640625 29 
Q 54.78125 25.203125 58.5 19.484375 
L 70.953125 0 
L 59.03125 0 
L 49.5625 14.890625 
Q 45.40625 21.34375 42.71875 24.75 
Q 40.046875 28.171875 37.921875 29.53125 
Q 35.796875 30.90625 33.59375 31.453125 
Q 31.984375 31.78125 28.328125 31.78125 
L 17.328125 31.78125 
L 17.328125 0 
z
M 17.328125 39.984375 
L 37.703125 39.984375 
Q 44.1875 39.984375 47.84375 41.328125 
Q 51.515625 42.671875 53.421875 45.625 
Q 55.328125 48.578125 55.328125 52.046875 
Q 55.328125 57.125 51.640625 60.390625 
Q 47.953125 63.671875 39.984375 63.671875 
L 17.328125 63.671875 
z
" id="ArialMT-82"/>
     <path d="M 6.5 0 
L 6.5 51.859375 
L 14.40625 51.859375 
L 14.40625 44 
Q 17.4375 49.515625 20 51.265625 
Q 22.5625 53.03125 25.640625 53.03125 
Q 30.078125 53.03125 34.671875 50.203125 
L 31.640625 42.046875 
Q 28.421875 43.953125 25.203125 43.953125 
Q 22.3125 43.953125 20.015625 42.21875 
Q 17.71875 40.484375 16.75 37.40625 
Q 15.28125 32.71875 15.28125 27.15625 
L 15.28125 0 
z
" id="ArialMT-114"/>
     <path d="M 23.390625 -21.046875 
Q 16.109375 -11.859375 11.078125 0.4375 
Q 6.0625 12.75 6.0625 25.921875 
Q 6.0625 37.546875 9.8125 48.1875 
Q 14.203125 60.546875 23.390625 72.796875 
L 29.6875 72.796875 
Q 23.78125 62.640625 21.875 58.296875 
Q 18.890625 51.5625 17.1875 44.234375 
Q 15.09375 35.109375 15.09375 25.875 
Q 15.09375 2.390625 29.6875 -21.046875 
z
" id="ArialMT-40"/>
     <path d="M 52.828125 42.09375 
L 5.5625 42.09375 
L 5.5625 50.296875 
L 52.828125 50.296875 
z
M 52.828125 20.359375 
L 5.5625 20.359375 
L 5.5625 28.5625 
L 52.828125 28.5625 
z
" id="ArialMT-61"/>
     <path d="M 12.359375 -21.046875 
L 6.0625 -21.046875 
Q 20.65625 2.390625 20.65625 25.875 
Q 20.65625 35.0625 18.5625 44.09375 
Q 16.890625 51.421875 13.921875 58.15625 
Q 12.015625 62.546875 6.0625 72.796875 
L 12.359375 72.796875 
Q 21.53125 60.546875 25.921875 48.1875 
Q 29.6875 37.546875 29.6875 25.921875 
Q 29.6875 12.75 24.625 0.4375 
Q 19.578125 -11.859375 12.359375 -21.046875 
z
" id="ArialMT-41"/>
    </defs>
    <use xlink:href="#ArialMT-81"/>
    <use x="77.783203" xlink:href="#ArialMT-117"/>
    <use x="133.398438" xlink:href="#ArialMT-97"/>
    <use x="189.013672" xlink:href="#ArialMT-110"/>
    <use x="244.628906" xlink:href="#ArialMT-116"/>
    <use x="272.412109" xlink:href="#ArialMT-117"/>
    <use x="328.027344" xlink:href="#ArialMT-109"/>
    <use x="411.328125" xlink:href="#ArialMT-32"/>
    <use x="439.111328" xlink:href="#ArialMT-75"/>
    <use x="505.810547" xlink:href="#ArialMT-105"/>
    <use x="528.027344" xlink:href="#ArialMT-99"/>
    <use x="578.027344" xlink:href="#ArialMT-107"/>
    <use x="628.027344" xlink:href="#ArialMT-101"/>
    <use x="683.642578" xlink:href="#ArialMT-100"/>
    <use x="739.257812" xlink:href="#ArialMT-32"/>
    <use x="767.041016" xlink:href="#ArialMT-82"/>
    <use x="839.257812" xlink:href="#ArialMT-111"/>
    <use x="894.873047" xlink:href="#ArialMT-116"/>
    <use x="922.65625" xlink:href="#ArialMT-111"/>
    <use x="978.271484" xlink:href="#ArialMT-114"/>
    <use x="1011.572266" xlink:href="#ArialMT-32"/>
    <use x="1039.355469" xlink:href="#ArialMT-40"/>
    <use x="1072.65625" xlink:href="#ArialMT-75"/>
    <use x="1139.355469" xlink:href="#ArialMT-32"/>
    <use x="1167.138672" xlink:href="#ArialMT-61"/>
    <use x="1225.537109" xlink:href="#ArialMT-32"/>
    <use x="1253.320312" xlink:href="#ArialMT-53"/>
    <use x="1308.935547" xlink:href="#ArialMT-46"/>
    <use x="1336.71875" xlink:href="#ArialMT-48"/>
    <use x="1392.333984" xlink:href="#ArialMT-41"/>
   </g>
  </g>
 </g>
 <defs>
  <clipPath id="pbb60909b71">
   <rect height="249.48" width="202.909091" x="72" y="38.88"/>
  </clipPath>
  <clipPath id="paba989453f">
   <rect height="249.48" width="202.909091" x="315.490909" y="38.88"/>
  </clipPath>
 </defs>
</svg>
