<?xml version="1.0" encoding="utf-8" standalone="no"?>
<!DOCTYPE svg PUBLIC "-//W3C//DTD SVG 1.1//EN"
  "http://www.w3.org/Graphics/SVG/1.1/DTD/svg11.dtd">
<!-- Created with matplotlib (https://matplotlib.org/) -->
<svg height="324pt" version="1.1" viewBox="0 0 576 324" width="576pt" xmlns="http://www.w3.org/2000/svg" xmlns:xlink="http://www.w3.org/1999/xlink">
 <metadata>
  <rdf:RDF xmlns:cc="http://creativecommons.org/ns#" xmlns:dc="http://purl.org/dc/elements/1.1/" xmlns:rdf="http://www.w3.org/1999/02/22-rdf-syntax-ns#">
   <cc:Work>
    <dc:type rdf:resource="http://purl.org/dc/dcmitype/StillImage"/>
    <dc:date>2021-07-06T00:10:27.162544</dc:date>
    <dc:format>image/svg+xml</dc:format>
    <dc:creator>
     <cc:Agent>
      <dc:title>Matplotlib v3.3.4, https://matplotlib.org/</dc:title>
     </cc:Agent>
    </dc:creator>
   </cc:Work>
  </rdf:RDF>
 </metadata>
 <defs>
  <style type="text/css">*{stroke-linecap:butt;stroke-linejoin:round;}</style>
 </defs>
 <g id="figure_1">
  <g id="patch_1">
   <path d="M 0 324 
L 576 324 
L 576 0 
L 0 0 
z
" style="fill:#ffffff;"/>
  </g>
  <g id="axes_1">
   <g id="patch_2">
    <path d="M 53.955 276.3 
L 281.52 276.3 
L 281.52 38.941875 
L 53.955 38.941875 
z
" style="fill:#eaeaf2;"/>
   </g>
   <g id="matplotlib.axis_1">
    <g id="xtick_1">
     <g id="line2d_1">
      <path clip-path="url(#p9cfb17eb3b)" d="M 64.298864 276.3 
L 64.298864 38.941875 
" style="fill:none;stroke:#ffffff;stroke-linecap:round;"/>
     </g>
     <g id="text_1">
      <!-- 0 -->
      <g style="fill:#262626;" transform="translate(61.240348 293.673594)scale(0.11 -0.11)">
       <defs>
        <path d="M 4.15625 35.296875 
Q 4.15625 48 6.765625 55.734375 
Q 9.375 63.484375 14.515625 67.671875 
Q 19.671875 71.875 27.484375 71.875 
Q 33.25 71.875 37.59375 69.546875 
Q 41.9375 67.234375 44.765625 62.859375 
Q 47.609375 58.5 49.21875 52.21875 
Q 50.828125 45.953125 50.828125 35.296875 
Q 50.828125 22.703125 48.234375 14.96875 
Q 45.65625 7.234375 40.5 3 
Q 35.359375 -1.21875 27.484375 -1.21875 
Q 17.140625 -1.21875 11.234375 6.203125 
Q 4.15625 15.140625 4.15625 35.296875 
z
M 13.1875 35.296875 
Q 13.1875 17.671875 17.3125 11.828125 
Q 21.4375 6 27.484375 6 
Q 33.546875 6 37.671875 11.859375 
Q 41.796875 17.71875 41.796875 35.296875 
Q 41.796875 52.984375 37.671875 58.78125 
Q 33.546875 64.59375 27.390625 64.59375 
Q 21.34375 64.59375 17.71875 59.46875 
Q 13.1875 52.9375 13.1875 35.296875 
z
" id="ArialMT-48"/>
       </defs>
       <use xlink:href="#ArialMT-48"/>
      </g>
     </g>
    </g>
    <g id="xtick_2">
     <g id="line2d_2">
      <path clip-path="url(#p9cfb17eb3b)" d="M 105.674318 276.3 
L 105.674318 38.941875 
" style="fill:none;stroke:#ffffff;stroke-linecap:round;"/>
     </g>
     <g id="text_2">
      <!-- 1 -->
      <g style="fill:#262626;" transform="translate(102.615803 293.673594)scale(0.11 -0.11)">
       <defs>
        <path d="M 37.25 0 
L 28.46875 0 
L 28.46875 56 
Q 25.296875 52.984375 20.140625 49.953125 
Q 14.984375 46.921875 10.890625 45.40625 
L 10.890625 53.90625 
Q 18.265625 57.375 23.78125 62.296875 
Q 29.296875 67.234375 31.59375 71.875 
L 37.25 71.875 
z
" id="ArialMT-49"/>
       </defs>
       <use xlink:href="#ArialMT-49"/>
      </g>
     </g>
    </g>
    <g id="xtick_3">
     <g id="line2d_3">
      <path clip-path="url(#p9cfb17eb3b)" d="M 147.049773 276.3 
L 147.049773 38.941875 
" style="fill:none;stroke:#ffffff;stroke-linecap:round;"/>
     </g>
     <g id="text_3">
      <!-- 2 -->
      <g style="fill:#262626;" transform="translate(143.991257 293.673594)scale(0.11 -0.11)">
       <defs>
        <path d="M 50.34375 8.453125 
L 50.34375 0 
L 3.03125 0 
Q 2.9375 3.171875 4.046875 6.109375 
Q 5.859375 10.9375 9.828125 15.625 
Q 13.8125 20.3125 21.34375 26.46875 
Q 33.015625 36.03125 37.109375 41.625 
Q 41.21875 47.21875 41.21875 52.203125 
Q 41.21875 57.421875 37.46875 61 
Q 33.734375 64.59375 27.734375 64.59375 
Q 21.390625 64.59375 17.578125 60.78125 
Q 13.765625 56.984375 13.71875 50.25 
L 4.6875 51.171875 
Q 5.609375 61.28125 11.65625 66.578125 
Q 17.71875 71.875 27.9375 71.875 
Q 38.234375 71.875 44.234375 66.15625 
Q 50.25 60.453125 50.25 52 
Q 50.25 47.703125 48.484375 43.546875 
Q 46.734375 39.40625 42.65625 34.8125 
Q 38.578125 30.21875 29.109375 22.21875 
Q 21.1875 15.578125 18.9375 13.203125 
Q 16.703125 10.84375 15.234375 8.453125 
z
" id="ArialMT-50"/>
       </defs>
       <use xlink:href="#ArialMT-50"/>
      </g>
     </g>
    </g>
    <g id="xtick_4">
     <g id="line2d_4">
      <path clip-path="url(#p9cfb17eb3b)" d="M 188.425227 276.3 
L 188.425227 38.941875 
" style="fill:none;stroke:#ffffff;stroke-linecap:round;"/>
     </g>
     <g id="text_4">
      <!-- 3 -->
      <g style="fill:#262626;" transform="translate(185.366712 293.673594)scale(0.11 -0.11)">
       <defs>
        <path d="M 4.203125 18.890625 
L 12.984375 20.0625 
Q 14.5 12.59375 18.140625 9.296875 
Q 21.78125 6 27 6 
Q 33.203125 6 37.46875 10.296875 
Q 41.75 14.59375 41.75 20.953125 
Q 41.75 27 37.796875 30.921875 
Q 33.84375 34.859375 27.734375 34.859375 
Q 25.25 34.859375 21.53125 33.890625 
L 22.515625 41.609375 
Q 23.390625 41.5 23.921875 41.5 
Q 29.546875 41.5 34.03125 44.421875 
Q 38.53125 47.359375 38.53125 53.46875 
Q 38.53125 58.296875 35.25 61.46875 
Q 31.984375 64.65625 26.8125 64.65625 
Q 21.6875 64.65625 18.265625 61.421875 
Q 14.84375 58.203125 13.875 51.765625 
L 5.078125 53.328125 
Q 6.6875 62.15625 12.390625 67.015625 
Q 18.109375 71.875 26.609375 71.875 
Q 32.46875 71.875 37.390625 69.359375 
Q 42.328125 66.84375 44.9375 62.5 
Q 47.5625 58.15625 47.5625 53.265625 
Q 47.5625 48.640625 45.0625 44.828125 
Q 42.578125 41.015625 37.703125 38.765625 
Q 44.046875 37.3125 47.5625 32.6875 
Q 51.078125 28.078125 51.078125 21.140625 
Q 51.078125 11.765625 44.234375 5.25 
Q 37.40625 -1.265625 26.953125 -1.265625 
Q 17.53125 -1.265625 11.296875 4.34375 
Q 5.078125 9.96875 4.203125 18.890625 
z
" id="ArialMT-51"/>
       </defs>
       <use xlink:href="#ArialMT-51"/>
      </g>
     </g>
    </g>
    <g id="xtick_5">
     <g id="line2d_5">
      <path clip-path="url(#p9cfb17eb3b)" d="M 229.800682 276.3 
L 229.800682 38.941875 
" style="fill:none;stroke:#ffffff;stroke-linecap:round;"/>
     </g>
     <g id="text_5">
      <!-- 4 -->
      <g style="fill:#262626;" transform="translate(226.742166 293.673594)scale(0.11 -0.11)">
       <defs>
        <path d="M 32.328125 0 
L 32.328125 17.140625 
L 1.265625 17.140625 
L 1.265625 25.203125 
L 33.9375 71.578125 
L 41.109375 71.578125 
L 41.109375 25.203125 
L 50.78125 25.203125 
L 50.78125 17.140625 
L 41.109375 17.140625 
L 41.109375 0 
z
M 32.328125 25.203125 
L 32.328125 57.46875 
L 9.90625 25.203125 
z
" id="ArialMT-52"/>
       </defs>
       <use xlink:href="#ArialMT-52"/>
      </g>
     </g>
    </g>
    <g id="xtick_6">
     <g id="line2d_6">
      <path clip-path="url(#p9cfb17eb3b)" d="M 271.176136 276.3 
L 271.176136 38.941875 
" style="fill:none;stroke:#ffffff;stroke-linecap:round;"/>
     </g>
     <g id="text_6">
      <!-- 5 -->
      <g style="fill:#262626;" transform="translate(268.117621 293.673594)scale(0.11 -0.11)">
       <defs>
        <path d="M 4.15625 18.75 
L 13.375 19.53125 
Q 14.40625 12.796875 18.140625 9.390625 
Q 21.875 6 27.15625 6 
Q 33.5 6 37.890625 10.78125 
Q 42.28125 15.578125 42.28125 23.484375 
Q 42.28125 31 38.0625 35.34375 
Q 33.84375 39.703125 27 39.703125 
Q 22.75 39.703125 19.328125 37.765625 
Q 15.921875 35.84375 13.96875 32.765625 
L 5.71875 33.84375 
L 12.640625 70.609375 
L 48.25 70.609375 
L 48.25 62.203125 
L 19.671875 62.203125 
L 15.828125 42.96875 
Q 22.265625 47.46875 29.34375 47.46875 
Q 38.71875 47.46875 45.15625 40.96875 
Q 51.609375 34.46875 51.609375 24.265625 
Q 51.609375 14.546875 45.953125 7.46875 
Q 39.0625 -1.21875 27.15625 -1.21875 
Q 17.390625 -1.21875 11.203125 4.25 
Q 5.03125 9.71875 4.15625 18.75 
z
" id="ArialMT-53"/>
       </defs>
       <use xlink:href="#ArialMT-53"/>
      </g>
     </g>
    </g>
    <g id="text_7">
     <!-- $r$ -->
     <g style="fill:#262626;" transform="translate(165.2175 308.449219)scale(0.12 -0.12)">
      <defs>
       <path d="M 44.578125 46.390625 
Q 43.21875 47.125 41.453125 47.515625 
Q 39.703125 47.90625 37.703125 47.90625 
Q 30.515625 47.90625 25.140625 42.453125 
Q 19.78125 37.015625 18.015625 27.875 
L 12.5 0 
L 3.515625 0 
L 14.203125 54.6875 
L 23.1875 54.6875 
L 21.484375 46.1875 
Q 25.046875 50.921875 30 53.453125 
Q 34.96875 56 40.578125 56 
Q 42.046875 56 43.453125 55.828125 
Q 44.875 55.671875 46.296875 55.28125 
z
" id="DejaVuSans-Oblique-114"/>
      </defs>
      <use xlink:href="#DejaVuSans-Oblique-114"/>
     </g>
    </g>
   </g>
   <g id="matplotlib.axis_2">
    <g id="ytick_1">
     <g id="line2d_7">
      <path clip-path="url(#p9cfb17eb3b)" d="M 53.955 276.3 
L 281.52 276.3 
" style="fill:none;stroke:#ffffff;stroke-linecap:round;"/>
     </g>
     <g id="text_8">
      <!-- 0.0 -->
      <g style="fill:#262626;" transform="translate(29.165 280.236797)scale(0.11 -0.11)">
       <defs>
        <path d="M 9.078125 0 
L 9.078125 10.015625 
L 19.09375 10.015625 
L 19.09375 0 
z
" id="ArialMT-46"/>
       </defs>
       <use xlink:href="#ArialMT-48"/>
       <use x="55.615234" xlink:href="#ArialMT-46"/>
       <use x="83.398438" xlink:href="#ArialMT-48"/>
      </g>
     </g>
    </g>
    <g id="ytick_2">
     <g id="line2d_8">
      <path clip-path="url(#p9cfb17eb3b)" d="M 53.955 237.910248 
L 281.52 237.910248 
" style="fill:none;stroke:#ffffff;stroke-linecap:round;"/>
     </g>
     <g id="text_9">
      <!-- 0.2 -->
      <g style="fill:#262626;" transform="translate(29.165 241.847045)scale(0.11 -0.11)">
       <use xlink:href="#ArialMT-48"/>
       <use x="55.615234" xlink:href="#ArialMT-46"/>
       <use x="83.398438" xlink:href="#ArialMT-50"/>
      </g>
     </g>
    </g>
    <g id="ytick_3">
     <g id="line2d_9">
      <path clip-path="url(#p9cfb17eb3b)" d="M 53.955 199.520496 
L 281.52 199.520496 
" style="fill:none;stroke:#ffffff;stroke-linecap:round;"/>
     </g>
     <g id="text_10">
      <!-- 0.4 -->
      <g style="fill:#262626;" transform="translate(29.165 203.457293)scale(0.11 -0.11)">
       <use xlink:href="#ArialMT-48"/>
       <use x="55.615234" xlink:href="#ArialMT-46"/>
       <use x="83.398438" xlink:href="#ArialMT-52"/>
      </g>
     </g>
    </g>
    <g id="ytick_4">
     <g id="line2d_10">
      <path clip-path="url(#p9cfb17eb3b)" d="M 53.955 161.130744 
L 281.52 161.130744 
" style="fill:none;stroke:#ffffff;stroke-linecap:round;"/>
     </g>
     <g id="text_11">
      <!-- 0.6 -->
      <g style="fill:#262626;" transform="translate(29.165 165.067541)scale(0.11 -0.11)">
       <defs>
        <path d="M 49.75 54.046875 
L 41.015625 53.375 
Q 39.84375 58.546875 37.703125 60.890625 
Q 34.125 64.65625 28.90625 64.65625 
Q 24.703125 64.65625 21.53125 62.3125 
Q 17.390625 59.28125 14.984375 53.46875 
Q 12.59375 47.65625 12.5 36.921875 
Q 15.671875 41.75 20.265625 44.09375 
Q 24.859375 46.4375 29.890625 46.4375 
Q 38.671875 46.4375 44.84375 39.96875 
Q 51.03125 33.5 51.03125 23.25 
Q 51.03125 16.5 48.125 10.71875 
Q 45.21875 4.9375 40.140625 1.859375 
Q 35.0625 -1.21875 28.609375 -1.21875 
Q 17.625 -1.21875 10.6875 6.859375 
Q 3.765625 14.9375 3.765625 33.5 
Q 3.765625 54.25 11.421875 63.671875 
Q 18.109375 71.875 29.4375 71.875 
Q 37.890625 71.875 43.28125 67.140625 
Q 48.6875 62.40625 49.75 54.046875 
z
M 13.875 23.1875 
Q 13.875 18.65625 15.796875 14.5 
Q 17.71875 10.359375 21.1875 8.171875 
Q 24.65625 6 28.46875 6 
Q 34.03125 6 38.03125 10.484375 
Q 42.046875 14.984375 42.046875 22.703125 
Q 42.046875 30.125 38.078125 34.390625 
Q 34.125 38.671875 28.125 38.671875 
Q 22.171875 38.671875 18.015625 34.390625 
Q 13.875 30.125 13.875 23.1875 
z
" id="ArialMT-54"/>
       </defs>
       <use xlink:href="#ArialMT-48"/>
       <use x="55.615234" xlink:href="#ArialMT-46"/>
       <use x="83.398438" xlink:href="#ArialMT-54"/>
      </g>
     </g>
    </g>
    <g id="ytick_5">
     <g id="line2d_11">
      <path clip-path="url(#p9cfb17eb3b)" d="M 53.955 122.740992 
L 281.52 122.740992 
" style="fill:none;stroke:#ffffff;stroke-linecap:round;"/>
     </g>
     <g id="text_12">
      <!-- 0.8 -->
      <g style="fill:#262626;" transform="translate(29.165 126.677789)scale(0.11 -0.11)">
       <defs>
        <path d="M 17.671875 38.8125 
Q 12.203125 40.828125 9.5625 44.53125 
Q 6.9375 48.25 6.9375 53.421875 
Q 6.9375 61.234375 12.546875 66.546875 
Q 18.171875 71.875 27.484375 71.875 
Q 36.859375 71.875 42.578125 66.421875 
Q 48.296875 60.984375 48.296875 53.171875 
Q 48.296875 48.1875 45.671875 44.5 
Q 43.0625 40.828125 37.75 38.8125 
Q 44.34375 36.671875 47.78125 31.875 
Q 51.21875 27.09375 51.21875 20.453125 
Q 51.21875 11.28125 44.71875 5.03125 
Q 38.234375 -1.21875 27.640625 -1.21875 
Q 17.046875 -1.21875 10.546875 5.046875 
Q 4.046875 11.328125 4.046875 20.703125 
Q 4.046875 27.6875 7.59375 32.390625 
Q 11.140625 37.109375 17.671875 38.8125 
z
M 15.921875 53.71875 
Q 15.921875 48.640625 19.1875 45.40625 
Q 22.46875 42.1875 27.6875 42.1875 
Q 32.765625 42.1875 36.015625 45.375 
Q 39.265625 48.578125 39.265625 53.21875 
Q 39.265625 58.0625 35.90625 61.359375 
Q 32.5625 64.65625 27.59375 64.65625 
Q 22.5625 64.65625 19.234375 61.421875 
Q 15.921875 58.203125 15.921875 53.71875 
z
M 13.09375 20.65625 
Q 13.09375 16.890625 14.875 13.375 
Q 16.65625 9.859375 20.171875 7.921875 
Q 23.6875 6 27.734375 6 
Q 34.03125 6 38.125 10.046875 
Q 42.234375 14.109375 42.234375 20.359375 
Q 42.234375 26.703125 38.015625 30.859375 
Q 33.796875 35.015625 27.4375 35.015625 
Q 21.234375 35.015625 17.15625 30.90625 
Q 13.09375 26.8125 13.09375 20.65625 
z
" id="ArialMT-56"/>
       </defs>
       <use xlink:href="#ArialMT-48"/>
       <use x="55.615234" xlink:href="#ArialMT-46"/>
       <use x="83.398438" xlink:href="#ArialMT-56"/>
      </g>
     </g>
    </g>
    <g id="ytick_6">
     <g id="line2d_12">
      <path clip-path="url(#p9cfb17eb3b)" d="M 53.955 84.351241 
L 281.52 84.351241 
" style="fill:none;stroke:#ffffff;stroke-linecap:round;"/>
     </g>
     <g id="text_13">
      <!-- 1.0 -->
      <g style="fill:#262626;" transform="translate(29.165 88.288037)scale(0.11 -0.11)">
       <use xlink:href="#ArialMT-49"/>
       <use x="55.615234" xlink:href="#ArialMT-46"/>
       <use x="83.398438" xlink:href="#ArialMT-48"/>
      </g>
     </g>
    </g>
    <g id="ytick_7">
     <g id="line2d_13">
      <path clip-path="url(#p9cfb17eb3b)" d="M 53.955 45.961489 
L 281.52 45.961489 
" style="fill:none;stroke:#ffffff;stroke-linecap:round;"/>
     </g>
     <g id="text_14">
      <!-- 1.2 -->
      <g style="fill:#262626;" transform="translate(29.165 49.898286)scale(0.11 -0.11)">
       <use xlink:href="#ArialMT-49"/>
       <use x="55.615234" xlink:href="#ArialMT-46"/>
       <use x="83.398438" xlink:href="#ArialMT-50"/>
      </g>
     </g>
    </g>
    <g id="text_15">
     <!-- $P(r)$ -->
     <g style="fill:#262626;" transform="translate(22.78 168.420938)rotate(-90)scale(0.12 -0.12)">
      <defs>
       <path d="M 16.890625 72.90625 
L 39.703125 72.90625 
Q 49.65625 72.90625 54.875 68.265625 
Q 60.109375 63.625 60.109375 54.6875 
Q 60.109375 42.671875 52.390625 35.984375 
Q 44.671875 29.296875 30.71875 29.296875 
L 18.3125 29.296875 
L 12.59375 0 
L 2.6875 0 
z
M 25.203125 64.796875 
L 19.921875 37.40625 
L 32.328125 37.40625 
Q 40.71875 37.40625 45.203125 41.703125 
Q 49.703125 46 49.703125 54 
Q 49.703125 59.125 46.65625 61.953125 
Q 43.609375 64.796875 38.09375 64.796875 
z
" id="DejaVuSans-Oblique-80"/>
       <path d="M 31 75.875 
Q 24.46875 64.65625 21.28125 53.65625 
Q 18.109375 42.671875 18.109375 31.390625 
Q 18.109375 20.125 21.3125 9.0625 
Q 24.515625 -2 31 -13.1875 
L 23.1875 -13.1875 
Q 15.875 -1.703125 12.234375 9.375 
Q 8.59375 20.453125 8.59375 31.390625 
Q 8.59375 42.28125 12.203125 53.3125 
Q 15.828125 64.359375 23.1875 75.875 
z
" id="DejaVuSans-40"/>
       <path d="M 8.015625 75.875 
L 15.828125 75.875 
Q 23.140625 64.359375 26.78125 53.3125 
Q 30.421875 42.28125 30.421875 31.390625 
Q 30.421875 20.453125 26.78125 9.375 
Q 23.140625 -1.703125 15.828125 -13.1875 
L 8.015625 -13.1875 
Q 14.5 -2 17.703125 9.0625 
Q 20.90625 20.125 20.90625 31.390625 
Q 20.90625 42.671875 17.703125 53.65625 
Q 14.5 64.65625 8.015625 75.875 
z
" id="DejaVuSans-41"/>
      </defs>
      <use transform="translate(0 0.125)" xlink:href="#DejaVuSans-Oblique-80"/>
      <use transform="translate(60.302734 0.125)" xlink:href="#DejaVuSans-40"/>
      <use transform="translate(99.316406 0.125)" xlink:href="#DejaVuSans-Oblique-114"/>
      <use transform="translate(140.429688 0.125)" xlink:href="#DejaVuSans-41"/>
     </g>
    </g>
   </g>
   <g id="patch_3">
    <path clip-path="url(#p9cfb17eb3b)" d="M 64.298864 276.3 
L 64.298864 50.244643 
L 66.367636 50.244643 
L 66.367636 81.971711 
L 68.436409 81.971711 
L 68.436409 99.818186 
L 70.505182 99.818186 
L 70.505182 111.054856 
L 72.573955 111.054856 
L 72.573955 132.867215 
L 74.642727 132.867215 
L 74.642727 141.459962 
L 76.7115 141.459962 
L 76.7115 143.442904 
L 78.780273 143.442904 
L 78.780273 155.340555 
L 80.849045 155.340555 
L 80.849045 151.374671 
L 82.917818 151.374671 
L 82.917818 169.221147 
L 84.986591 169.221147 
L 84.986591 172.526049 
L 87.055364 172.526049 
L 87.055364 183.762719 
L 89.124136 183.762719 
L 89.124136 191.033506 
L 93.261682 191.033506 
L 93.261682 194.999389 
L 95.330455 194.999389 
L 95.330455 196.982331 
L 97.399227 196.982331 
L 97.399227 208.219001 
L 99.468 208.219001 
L 99.468 208.879981 
L 101.536773 208.879981 
L 101.536773 214.828806 
L 103.605545 214.828806 
L 103.605545 220.116651 
L 105.674318 220.116651 
L 105.674318 224.082534 
L 107.743091 224.082534 
L 107.743091 219.45567 
L 109.811864 219.45567 
L 109.811864 233.997243 
L 111.880636 233.997243 
L 111.880636 228.709398 
L 113.949409 228.709398 
L 113.949409 236.641165 
L 116.018182 236.641165 
L 116.018182 230.69234 
L 118.086955 230.69234 
L 118.086955 238.624107 
L 120.155727 238.624107 
L 120.155727 241.268029 
L 122.2245 241.268029 
L 122.2245 240.607049 
L 124.293273 240.607049 
L 124.293273 239.285088 
L 126.362045 239.285088 
L 126.362045 243.250971 
L 128.430818 243.250971 
L 128.430818 244.572932 
L 130.499591 244.572932 
L 130.499591 247.877835 
L 132.568364 247.877835 
L 132.568364 246.555874 
L 134.637136 246.555874 
L 134.637136 239.285088 
L 136.705909 239.285088 
L 136.705909 256.470583 
L 138.774682 256.470583 
L 138.774682 242.589991 
L 140.843455 242.589991 
L 140.843455 250.521758 
L 142.912227 250.521758 
L 142.912227 260.436466 
L 144.981 260.436466 
L 144.981 255.809602 
L 147.049773 255.809602 
L 147.049773 243.911952 
L 149.118545 243.911952 
L 149.118545 245.233913 
L 151.187318 245.233913 
L 151.187318 253.16568 
L 153.256091 253.16568 
L 153.256091 254.487641 
L 155.324864 254.487641 
L 155.324864 247.216855 
L 157.393636 247.216855 
L 157.393636 249.860777 
L 159.462409 249.860777 
L 159.462409 262.419408 
L 161.531182 262.419408 
L 161.531182 253.82666 
L 163.599955 253.82666 
L 163.599955 257.792544 
L 165.668727 257.792544 
L 165.668727 259.114505 
L 167.7375 259.114505 
L 167.7375 255.148622 
L 169.806273 255.148622 
L 169.806273 255.809602 
L 173.943818 255.809602 
L 173.943818 263.080388 
L 176.012591 263.080388 
L 176.012591 257.792544 
L 178.081364 257.792544 
L 178.081364 261.758427 
L 180.150136 261.758427 
L 180.150136 259.114505 
L 182.218909 259.114505 
L 182.218909 261.758427 
L 184.287682 261.758427 
L 184.287682 259.775486 
L 186.356455 259.775486 
L 186.356455 253.82666 
L 188.425227 253.82666 
L 188.425227 268.368233 
L 190.494 268.368233 
L 190.494 259.114505 
L 192.562773 259.114505 
L 192.562773 264.40235 
L 194.631545 264.40235 
L 194.631545 260.436466 
L 196.700318 260.436466 
L 196.700318 261.097447 
L 198.769091 261.097447 
L 198.769091 262.419408 
L 200.837864 262.419408 
L 200.837864 259.775486 
L 202.906636 259.775486 
L 202.906636 268.368233 
L 204.975409 268.368233 
L 204.975409 263.741369 
L 207.044182 263.741369 
L 207.044182 264.40235 
L 209.112955 264.40235 
L 209.112955 263.080388 
L 211.181727 263.080388 
L 211.181727 270.351175 
L 213.2505 270.351175 
L 213.2505 266.385291 
L 215.319273 266.385291 
L 215.319273 265.06333 
L 217.388045 265.06333 
L 217.388045 263.080388 
L 219.456818 263.080388 
L 219.456818 263.741369 
L 221.525591 263.741369 
L 221.525591 266.385291 
L 223.594364 266.385291 
L 223.594364 263.741369 
L 225.663136 263.741369 
L 225.663136 267.707253 
L 227.731909 267.707253 
L 227.731909 263.080388 
L 229.800682 263.080388 
L 229.800682 269.690194 
L 231.869455 269.690194 
L 231.869455 268.368233 
L 233.938227 268.368233 
L 233.938227 265.724311 
L 236.007 265.724311 
L 236.007 268.368233 
L 238.075773 268.368233 
L 238.075773 267.707253 
L 240.144545 267.707253 
L 240.144545 266.385291 
L 244.282091 266.385291 
L 244.282091 264.40235 
L 248.419636 264.40235 
L 248.419636 267.707253 
L 250.488409 267.707253 
L 250.488409 268.368233 
L 252.557182 268.368233 
L 252.557182 265.06333 
L 254.625955 265.06333 
L 254.625955 266.385291 
L 256.694727 266.385291 
L 256.694727 271.012155 
L 258.7635 271.012155 
L 258.7635 269.690194 
L 260.832273 269.690194 
L 260.832273 267.046272 
L 262.901045 267.046272 
L 262.901045 268.368233 
L 264.969818 268.368233 
L 264.969818 270.351175 
L 269.107364 270.351175 
L 269.107364 269.690194 
L 271.176136 269.690194 
L 271.176136 276.3 
L 271.176136 276.3 
" style="fill:none;stroke:#4c72b0;stroke-linejoin:miter;"/>
   </g>
   <g id="line2d_14">
    <path clip-path="url(#p9cfb17eb3b)" d="M 64.298864 84.351241 
L 66.388533 102.364184 
L 68.478202 117.955602 
L 70.567872 131.540859 
L 72.657541 143.449934 
L 74.747211 153.947646 
L 76.83688 163.248513 
L 78.92655 171.527791 
L 81.016219 178.929792 
L 83.105888 185.574219 
L 85.195558 191.561034 
L 87.285227 196.974237 
L 89.374897 201.884835 
L 91.464566 206.353176 
L 93.554236 210.430815 
L 95.643905 214.16201 
L 97.733574 217.584923 
L 99.823244 220.732603 
L 101.912913 223.633787 
L 104.002583 226.313556 
L 106.092252 228.793882 
L 108.181921 231.094075 
L 110.271591 233.231165 
L 112.36126 235.220216 
L 114.45093 237.074592 
L 116.540599 238.806182 
L 118.630269 240.425593 
L 120.719938 241.942308 
L 122.809607 243.364831 
L 124.899277 244.700803 
L 126.988946 245.957106 
L 129.078616 247.13995 
L 131.168285 248.254953 
L 133.257955 249.307206 
L 135.347624 250.30133 
L 137.437293 251.241529 
L 139.526963 252.131634 
L 141.616632 252.975141 
L 143.706302 253.775248 
L 145.795971 254.534881 
L 147.88564 255.256725 
L 149.97531 255.943246 
L 152.064979 256.59671 
L 154.154649 257.219208 
L 156.244318 257.812664 
L 158.333988 258.378858 
L 160.423657 258.919434 
L 162.513326 259.435916 
L 164.602996 259.929713 
L 166.692665 260.402135 
L 168.782335 260.854398 
L 170.872004 261.287633 
L 172.961674 261.702893 
L 175.051343 262.101158 
L 177.141012 262.483343 
L 179.230682 262.850303 
L 181.320351 263.202836 
L 183.410021 263.541687 
L 185.49969 263.867556 
L 187.58936 264.181099 
L 189.679029 264.482927 
L 191.768698 264.773619 
L 193.858368 265.053715 
L 195.948037 265.323724 
L 198.037707 265.584125 
L 200.127376 265.835367 
L 202.217045 266.077877 
L 204.306715 266.312053 
L 206.396384 266.538273 
L 208.486054 266.756894 
L 210.575723 266.968252 
L 212.665393 267.172665 
L 214.755062 267.370434 
L 216.844731 267.561845 
L 218.934401 267.747167 
L 221.02407 267.926654 
L 223.11374 268.100551 
L 225.203409 268.269086 
L 227.293079 268.432478 
L 229.382748 268.590933 
L 231.472417 268.74465 
L 233.562087 268.893814 
L 235.651756 269.038604 
L 237.741426 269.179189 
L 239.831095 269.315731 
L 241.920764 269.448382 
L 244.010434 269.57729 
L 246.100103 269.702594 
L 248.189773 269.824428 
L 250.279442 269.942917 
L 252.369112 270.058183 
L 254.458781 270.170343 
L 256.54845 270.279507 
L 258.63812 270.38578 
L 260.727789 270.489264 
L 262.817459 270.590055 
L 264.907128 270.688247 
L 266.996798 270.783927 
L 269.086467 270.877181 
L 271.176136 270.96809 
" style="fill:none;stroke:#dd8452;stroke-linecap:round;stroke-width:1.5;"/>
   </g>
   <g id="line2d_15">
    <path clip-path="url(#p9cfb17eb3b)" d="M 64.298864 276.3 
L 66.388533 271.394521 
L 68.478202 258.916235 
L 70.567872 242.01518 
L 72.657541 223.335606 
L 74.747211 204.884619 
L 76.83688 188.036191 
L 78.92655 173.613316 
L 81.016219 162.003351 
L 83.105888 153.276642 
L 85.195558 147.2918 
L 87.285227 143.780612 
L 89.374897 142.41161 
L 91.464566 142.834549 
L 93.554236 144.709369 
L 95.643905 147.723366 
L 97.733574 151.599937 
L 99.823244 156.101609 
L 101.912913 161.029428 
L 104.002583 166.220235 
L 106.092252 171.542835 
L 108.181921 176.893779 
L 110.271591 182.193165 
L 112.36126 187.380723 
L 114.45093 192.412292 
L 116.540599 197.256752 
L 118.630269 201.893404 
L 120.719938 206.309766 
L 122.809607 210.499753 
L 124.899277 214.46218 
L 126.988946 218.199556 
L 129.078616 221.717109 
L 131.168285 225.022012 
L 133.257955 228.122776 
L 135.347624 231.02877 
L 137.437293 233.749854 
L 139.526963 236.296096 
L 141.616632 238.677561 
L 143.706302 240.904153 
L 145.795971 242.985501 
L 147.88564 244.930881 
L 149.97531 246.749162 
L 152.064979 248.448774 
L 154.154649 250.03769 
L 156.244318 251.523425 
L 158.333988 252.913034 
L 160.423657 254.213129 
L 162.513326 255.429888 
L 164.602996 256.569076 
L 166.692665 257.636065 
L 168.782335 258.635852 
L 170.872004 259.573087 
L 172.961674 260.452086 
L 175.051343 261.276857 
L 177.141012 262.051122 
L 179.230682 262.778332 
L 181.320351 263.461689 
L 183.410021 264.104163 
L 185.49969 264.708508 
L 187.58936 265.277279 
L 189.679029 265.812845 
L 191.768698 266.317405 
L 193.858368 266.792999 
L 195.948037 267.24152 
L 198.037707 267.664727 
L 200.127376 268.064251 
L 202.217045 268.441609 
L 204.306715 268.798211 
L 206.396384 269.135368 
L 208.486054 269.454296 
L 210.575723 269.756132 
L 212.665393 270.041929 
L 214.755062 270.312671 
L 216.844731 270.569274 
L 218.934401 270.81259 
L 221.02407 271.043417 
L 223.11374 271.262495 
L 225.203409 271.470518 
L 227.293079 271.668134 
L 229.382748 271.855946 
L 231.472417 272.03452 
L 233.562087 272.204383 
L 235.651756 272.366031 
L 237.741426 272.519925 
L 239.831095 272.6665 
L 241.920764 272.80616 
L 244.010434 272.939287 
L 246.100103 273.066236 
L 248.189773 273.187343 
L 250.279442 273.302922 
L 252.369112 273.413267 
L 254.458781 273.518657 
L 256.54845 273.619351 
L 258.63812 273.715594 
L 260.727789 273.807616 
L 262.817459 273.895635 
L 264.907128 273.979854 
L 266.996798 274.060467 
L 269.086467 274.137653 
L 271.176136 274.211585 
" style="fill:none;stroke:#55a868;stroke-linecap:round;stroke-width:1.5;"/>
   </g>
   <g id="line2d_16">
    <path clip-path="url(#p9cfb17eb3b)" d="M 64.298864 276.3 
L 66.388533 246.096062 
L 68.478202 220.949471 
L 70.567872 200.69019 
L 72.657541 184.94459 
L 74.747211 173.221539 
L 76.83688 164.979557 
L 78.92655 159.675009 
L 81.016219 156.793717 
L 83.105888 155.869362 
L 85.195558 156.492155 
L 87.285227 158.310792 
L 89.374897 161.030149 
L 91.464566 164.406531 
L 93.554236 168.241752 
L 95.643905 172.376885 
L 97.733574 176.686221 
L 99.823244 181.071713 
L 101.912913 185.458049 
L 104.002583 189.788399 
L 106.092252 194.020799 
L 108.181921 198.12514 
L 110.271591 202.080677 
L 112.36126 205.873995 
L 114.45093 209.497361 
L 116.540599 212.947395 
L 118.630269 216.224009 
L 120.719938 219.32957 
L 122.809607 222.268227 
L 124.899277 225.045394 
L 126.988946 227.667342 
L 129.078616 230.140884 
L 131.168285 232.473133 
L 133.257955 234.67132 
L 135.347624 236.742655 
L 137.437293 238.694228 
L 139.526963 240.532934 
L 141.616632 242.265425 
L 143.706302 243.898073 
L 145.795971 245.436952 
L 147.88564 246.887824 
L 149.97531 248.256142 
L 152.064979 249.547045 
L 154.154649 250.765371 
L 156.244318 251.915663 
L 158.333988 253.002179 
L 160.423657 254.028912 
L 162.513326 254.999593 
L 164.602996 255.917713 
L 166.692665 256.786535 
L 168.782335 257.609106 
L 170.872004 258.388271 
L 172.961674 259.126686 
L 175.051343 259.82683 
L 177.141012 260.491019 
L 179.230682 261.121413 
L 181.320351 261.720031 
L 183.410021 262.288755 
L 185.49969 262.829346 
L 187.58936 263.343448 
L 189.679029 263.832596 
L 191.768698 264.298229 
L 193.858368 264.741687 
L 195.948037 265.164228 
L 198.037707 265.567027 
L 200.127376 265.951185 
L 202.217045 266.317733 
L 204.306715 266.667636 
L 206.396384 267.001801 
L 208.486054 267.321076 
L 210.575723 267.626258 
L 212.665393 267.918095 
L 214.755062 268.197288 
L 216.844731 268.464498 
L 218.934401 268.720344 
L 221.02407 268.96541 
L 223.11374 269.200244 
L 225.203409 269.425363 
L 227.293079 269.641251 
L 229.382748 269.848368 
L 231.472417 270.047145 
L 233.562087 270.23799 
L 235.651756 270.421285 
L 237.741426 270.597393 
L 239.831095 270.766657 
L 241.920764 270.9294 
L 244.010434 271.085927 
L 246.100103 271.236526 
L 248.189773 271.381472 
L 250.279442 271.521022 
L 252.369112 271.655421 
L 254.458781 271.784901 
L 256.54845 271.909681 
L 258.63812 272.029969 
L 260.727789 272.145963 
L 262.817459 272.25785 
L 264.907128 272.365808 
L 266.996798 272.470004 
L 269.086467 272.5706 
L 271.176136 272.667747 
" style="fill:none;stroke:#c44e52;stroke-linecap:round;stroke-width:1.5;"/>
   </g>
   <g id="line2d_17">
    <path clip-path="url(#p9cfb17eb3b)" d="M 64.298864 276.3 
L 66.388533 276.193577 
L 68.478202 274.889716 
L 70.567872 270.502139 
L 72.657541 261.657946 
L 74.747211 248.105921 
L 76.83688 230.663046 
L 78.92655 210.824678 
L 81.016219 190.312067 
L 83.105888 170.713776 
L 85.195558 153.273142 
L 87.285227 138.80966 
L 89.374897 127.735244 
L 91.464566 120.123531 
L 93.554236 115.799065 
L 95.643905 114.424791 
L 97.733574 115.576389 
L 99.823244 118.799289 
L 101.912913 123.64855 
L 104.002583 129.714074 
L 106.092252 136.634361 
L 108.181921 144.101974 
L 110.271591 151.863432 
L 112.36126 159.715673 
L 114.45093 167.500662 
L 116.540599 175.099217 
L 118.630269 182.424788 
L 120.719938 189.417594 
L 122.809607 196.039357 
L 124.899277 202.268728 
L 126.988946 208.097415 
L 129.078616 213.526963 
L 131.168285 218.566142 
L 133.257955 223.228846 
L 135.347624 227.53243 
L 137.437293 231.496427 
L 139.526963 235.14155 
L 141.616632 238.488954 
L 143.706302 241.559684 
L 145.795971 244.374279 
L 147.88564 246.952497 
L 149.97531 249.313139 
L 152.064979 251.473932 
L 154.154649 253.451475 
L 156.244318 255.261227 
L 158.333988 256.917511 
L 160.423657 258.433552 
L 162.513326 259.821524 
L 164.602996 261.0926 
L 166.692665 262.257016 
L 168.782335 263.324132 
L 170.872004 264.302497 
L 172.961674 265.199908 
L 175.051343 266.02347 
L 177.141012 266.779654 
L 179.230682 267.474352 
L 181.320351 268.112923 
L 183.410021 268.700241 
L 185.49969 269.240741 
L 187.58936 269.738456 
L 189.679029 270.197054 
L 191.768698 270.619872 
L 193.858368 271.009945 
L 195.948037 271.370036 
L 198.037707 271.70266 
L 200.127376 272.010106 
L 202.217045 272.294461 
L 204.306715 272.557626 
L 206.396384 272.801333 
L 208.486054 273.027164 
L 210.575723 273.236562 
L 212.665393 273.430842 
L 214.755062 273.611209 
L 216.844731 273.778762 
L 218.934401 273.934507 
L 221.02407 274.079363 
L 223.11374 274.214174 
L 225.203409 274.339709 
L 227.293079 274.456678 
L 229.382748 274.565728 
L 231.472417 274.667453 
L 233.562087 274.762401 
L 235.651756 274.851073 
L 237.741426 274.933931 
L 239.831095 275.011398 
L 241.920764 275.083865 
L 244.010434 275.151691 
L 246.100103 275.215208 
L 248.189773 275.274721 
L 250.279442 275.330512 
L 252.369112 275.382839 
L 254.458781 275.431944 
L 256.54845 275.478048 
L 258.63812 275.521356 
L 260.727789 275.562057 
L 262.817459 275.600327 
L 264.907128 275.636329 
L 266.996798 275.670212 
L 269.086467 275.702117 
L 271.176136 275.732172 
" style="fill:none;stroke:#8172b3;stroke-linecap:round;stroke-width:1.5;"/>
   </g>
   <g id="patch_4">
    <path d="M 53.955 276.3 
L 53.955 38.941875 
" style="fill:none;stroke:#ffffff;stroke-linecap:square;stroke-linejoin:miter;stroke-width:1.25;"/>
   </g>
   <g id="patch_5">
    <path d="M 281.52 276.3 
L 281.52 38.941875 
" style="fill:none;stroke:#ffffff;stroke-linecap:square;stroke-linejoin:miter;stroke-width:1.25;"/>
   </g>
   <g id="patch_6">
    <path d="M 53.955 276.3 
L 281.52 276.3 
" style="fill:none;stroke:#ffffff;stroke-linecap:square;stroke-linejoin:miter;stroke-width:1.25;"/>
   </g>
   <g id="patch_7">
    <path d="M 53.955 38.941875 
L 281.52 38.941875 
" style="fill:none;stroke:#ffffff;stroke-linecap:square;stroke-linejoin:miter;stroke-width:1.25;"/>
   </g>
   <g id="legend_1">
    <g id="patch_8">
     <path d="M 186.646719 125.541094 
L 273.82 125.541094 
Q 276.02 125.541094 276.02 123.341094 
L 276.02 46.641875 
Q 276.02 44.441875 273.82 44.441875 
L 186.646719 44.441875 
Q 184.446719 44.441875 184.446719 46.641875 
L 184.446719 123.341094 
Q 184.446719 125.541094 186.646719 125.541094 
z
" style="fill:#eaeaf2;opacity:0.8;stroke:#cccccc;stroke-linejoin:miter;"/>
    </g>
    <g id="line2d_18">
     <path d="M 188.846719 52.865469 
L 210.846719 52.865469 
" style="fill:none;stroke:#dd8452;stroke-linecap:round;stroke-width:1.5;"/>
    </g>
    <g id="line2d_19"/>
    <g id="text_16">
     <!-- Poisson -->
     <g style="fill:#262626;" transform="translate(219.646719 56.715469)scale(0.11 -0.11)">
      <defs>
       <path d="M 7.71875 0 
L 7.71875 71.578125 
L 34.71875 71.578125 
Q 41.84375 71.578125 45.609375 70.90625 
Q 50.875 70.015625 54.4375 67.546875 
Q 58.015625 65.09375 60.1875 60.640625 
Q 62.359375 56.203125 62.359375 50.875 
Q 62.359375 41.75 56.546875 35.421875 
Q 50.734375 29.109375 35.546875 29.109375 
L 17.1875 29.109375 
L 17.1875 0 
z
M 17.1875 37.546875 
L 35.6875 37.546875 
Q 44.875 37.546875 48.734375 40.96875 
Q 52.59375 44.390625 52.59375 50.59375 
Q 52.59375 55.078125 50.3125 58.265625 
Q 48.046875 61.46875 44.34375 62.5 
Q 41.9375 63.140625 35.5 63.140625 
L 17.1875 63.140625 
z
" id="ArialMT-80"/>
       <path d="M 3.328125 25.921875 
Q 3.328125 40.328125 11.328125 47.265625 
Q 18.015625 53.03125 27.640625 53.03125 
Q 38.328125 53.03125 45.109375 46.015625 
Q 51.90625 39.015625 51.90625 26.65625 
Q 51.90625 16.65625 48.90625 10.90625 
Q 45.90625 5.171875 40.15625 2 
Q 34.421875 -1.171875 27.640625 -1.171875 
Q 16.75 -1.171875 10.03125 5.8125 
Q 3.328125 12.796875 3.328125 25.921875 
z
M 12.359375 25.921875 
Q 12.359375 15.96875 16.703125 11.015625 
Q 21.046875 6.0625 27.640625 6.0625 
Q 34.1875 6.0625 38.53125 11.03125 
Q 42.875 16.015625 42.875 26.21875 
Q 42.875 35.84375 38.5 40.796875 
Q 34.125 45.75 27.640625 45.75 
Q 21.046875 45.75 16.703125 40.8125 
Q 12.359375 35.890625 12.359375 25.921875 
z
" id="ArialMT-111"/>
       <path d="M 6.640625 61.46875 
L 6.640625 71.578125 
L 15.4375 71.578125 
L 15.4375 61.46875 
z
M 6.640625 0 
L 6.640625 51.859375 
L 15.4375 51.859375 
L 15.4375 0 
z
" id="ArialMT-105"/>
       <path d="M 3.078125 15.484375 
L 11.765625 16.84375 
Q 12.5 11.625 15.84375 8.84375 
Q 19.1875 6.0625 25.203125 6.0625 
Q 31.25 6.0625 34.171875 8.515625 
Q 37.109375 10.984375 37.109375 14.3125 
Q 37.109375 17.28125 34.515625 19 
Q 32.71875 20.171875 25.53125 21.96875 
Q 15.875 24.421875 12.140625 26.203125 
Q 8.40625 27.984375 6.46875 31.125 
Q 4.546875 34.28125 4.546875 38.09375 
Q 4.546875 41.546875 6.125 44.5 
Q 7.71875 47.46875 10.453125 49.421875 
Q 12.5 50.921875 16.03125 51.96875 
Q 19.578125 53.03125 23.640625 53.03125 
Q 29.734375 53.03125 34.34375 51.265625 
Q 38.96875 49.515625 41.15625 46.5 
Q 43.359375 43.5 44.1875 38.484375 
L 35.59375 37.3125 
Q 35.015625 41.3125 32.203125 43.546875 
Q 29.390625 45.796875 24.265625 45.796875 
Q 18.21875 45.796875 15.625 43.796875 
Q 13.03125 41.796875 13.03125 39.109375 
Q 13.03125 37.40625 14.109375 36.03125 
Q 15.1875 34.625 17.484375 33.6875 
Q 18.796875 33.203125 25.25 31.453125 
Q 34.578125 28.953125 38.25 27.359375 
Q 41.9375 25.78125 44.03125 22.75 
Q 46.140625 19.734375 46.140625 15.234375 
Q 46.140625 10.84375 43.578125 6.953125 
Q 41.015625 3.078125 36.171875 0.953125 
Q 31.34375 -1.171875 25.25 -1.171875 
Q 15.140625 -1.171875 9.84375 3.03125 
Q 4.546875 7.234375 3.078125 15.484375 
z
" id="ArialMT-115"/>
       <path d="M 6.59375 0 
L 6.59375 51.859375 
L 14.5 51.859375 
L 14.5 44.484375 
Q 20.21875 53.03125 31 53.03125 
Q 35.6875 53.03125 39.625 51.34375 
Q 43.5625 49.65625 45.515625 46.921875 
Q 47.46875 44.1875 48.25 40.4375 
Q 48.734375 37.984375 48.734375 31.890625 
L 48.734375 0 
L 39.9375 0 
L 39.9375 31.546875 
Q 39.9375 36.921875 38.90625 39.578125 
Q 37.890625 42.234375 35.28125 43.8125 
Q 32.671875 45.40625 29.15625 45.40625 
Q 23.53125 45.40625 19.453125 41.84375 
Q 15.375 38.28125 15.375 28.328125 
L 15.375 0 
z
" id="ArialMT-110"/>
      </defs>
      <use xlink:href="#ArialMT-80"/>
      <use x="66.699219" xlink:href="#ArialMT-111"/>
      <use x="122.314453" xlink:href="#ArialMT-105"/>
      <use x="144.53125" xlink:href="#ArialMT-115"/>
      <use x="194.53125" xlink:href="#ArialMT-115"/>
      <use x="244.53125" xlink:href="#ArialMT-111"/>
      <use x="300.146484" xlink:href="#ArialMT-110"/>
     </g>
    </g>
    <g id="line2d_20">
     <path d="M 188.846719 68.425313 
L 210.846719 68.425313 
" style="fill:none;stroke:#55a868;stroke-linecap:round;stroke-width:1.5;"/>
    </g>
    <g id="line2d_21"/>
    <g id="text_17">
     <!-- CUE -->
     <g style="fill:#262626;" transform="translate(219.646719 72.275313)scale(0.11 -0.11)">
      <defs>
       <path d="M 58.796875 25.09375 
L 68.265625 22.703125 
Q 65.28125 11.03125 57.546875 4.90625 
Q 49.8125 -1.21875 38.625 -1.21875 
Q 27.046875 -1.21875 19.796875 3.484375 
Q 12.546875 8.203125 8.765625 17.140625 
Q 4.984375 26.078125 4.984375 36.328125 
Q 4.984375 47.515625 9.25 55.828125 
Q 13.53125 64.15625 21.40625 68.46875 
Q 29.296875 72.796875 38.765625 72.796875 
Q 49.515625 72.796875 56.828125 67.328125 
Q 64.15625 61.859375 67.046875 51.953125 
L 57.71875 49.75 
Q 55.21875 57.5625 50.484375 61.125 
Q 45.75 64.703125 38.578125 64.703125 
Q 30.328125 64.703125 24.78125 60.734375 
Q 19.234375 56.78125 16.984375 50.109375 
Q 14.75 43.453125 14.75 36.375 
Q 14.75 27.25 17.40625 20.4375 
Q 20.0625 13.625 25.671875 10.25 
Q 31.296875 6.890625 37.84375 6.890625 
Q 45.796875 6.890625 51.3125 11.46875 
Q 56.84375 16.0625 58.796875 25.09375 
z
" id="ArialMT-67"/>
       <path d="M 54.6875 71.578125 
L 64.15625 71.578125 
L 64.15625 30.21875 
Q 64.15625 19.4375 61.71875 13.078125 
Q 59.28125 6.734375 52.90625 2.75 
Q 46.53125 -1.21875 36.1875 -1.21875 
Q 26.125 -1.21875 19.71875 2.25 
Q 13.328125 5.71875 10.59375 12.28125 
Q 7.859375 18.84375 7.859375 30.21875 
L 7.859375 71.578125 
L 17.328125 71.578125 
L 17.328125 30.28125 
Q 17.328125 20.953125 19.0625 16.53125 
Q 20.796875 12.109375 25.015625 9.71875 
Q 29.25 7.328125 35.359375 7.328125 
Q 45.796875 7.328125 50.234375 12.0625 
Q 54.6875 16.796875 54.6875 30.28125 
z
" id="ArialMT-85"/>
       <path d="M 7.90625 0 
L 7.90625 71.578125 
L 59.671875 71.578125 
L 59.671875 63.140625 
L 17.390625 63.140625 
L 17.390625 41.21875 
L 56.984375 41.21875 
L 56.984375 32.8125 
L 17.390625 32.8125 
L 17.390625 8.453125 
L 61.328125 8.453125 
L 61.328125 0 
z
" id="ArialMT-69"/>
      </defs>
      <use xlink:href="#ArialMT-67"/>
      <use x="72.216797" xlink:href="#ArialMT-85"/>
      <use x="144.433594" xlink:href="#ArialMT-69"/>
     </g>
    </g>
    <g id="line2d_22">
     <path d="M 188.846719 83.985156 
L 210.846719 83.985156 
" style="fill:none;stroke:#c44e52;stroke-linecap:round;stroke-width:1.5;"/>
    </g>
    <g id="line2d_23"/>
    <g id="text_18">
     <!-- COE -->
     <g style="fill:#262626;" transform="translate(219.646719 87.835156)scale(0.11 -0.11)">
      <defs>
       <path d="M 4.828125 34.859375 
Q 4.828125 52.6875 14.390625 62.765625 
Q 23.96875 72.859375 39.109375 72.859375 
Q 49.03125 72.859375 56.984375 68.109375 
Q 64.9375 63.375 69.109375 54.90625 
Q 73.296875 46.4375 73.296875 35.6875 
Q 73.296875 24.8125 68.890625 16.21875 
Q 64.5 7.625 56.4375 3.203125 
Q 48.390625 -1.21875 39.0625 -1.21875 
Q 28.953125 -1.21875 20.984375 3.65625 
Q 13.03125 8.546875 8.921875 16.984375 
Q 4.828125 25.4375 4.828125 34.859375 
z
M 14.59375 34.71875 
Q 14.59375 21.78125 21.546875 14.328125 
Q 28.515625 6.890625 39.015625 6.890625 
Q 49.703125 6.890625 56.609375 14.40625 
Q 63.53125 21.921875 63.53125 35.75 
Q 63.53125 44.484375 60.578125 51 
Q 57.625 57.515625 51.921875 61.109375 
Q 46.234375 64.703125 39.15625 64.703125 
Q 29.109375 64.703125 21.84375 57.78125 
Q 14.59375 50.875 14.59375 34.71875 
z
" id="ArialMT-79"/>
      </defs>
      <use xlink:href="#ArialMT-67"/>
      <use x="72.216797" xlink:href="#ArialMT-79"/>
      <use x="150" xlink:href="#ArialMT-69"/>
     </g>
    </g>
    <g id="line2d_24">
     <path d="M 188.846719 99.545 
L 210.846719 99.545 
" style="fill:none;stroke:#8172b3;stroke-linecap:round;stroke-width:1.5;"/>
    </g>
    <g id="line2d_25"/>
    <g id="text_19">
     <!-- CSE -->
     <g style="fill:#262626;" transform="translate(219.646719 103.395)scale(0.11 -0.11)">
      <defs>
       <path d="M 4.5 23 
L 13.421875 23.78125 
Q 14.0625 18.40625 16.375 14.96875 
Q 18.703125 11.53125 23.578125 9.40625 
Q 28.46875 7.28125 34.578125 7.28125 
Q 39.984375 7.28125 44.140625 8.890625 
Q 48.296875 10.5 50.3125 13.296875 
Q 52.34375 16.109375 52.34375 19.4375 
Q 52.34375 22.796875 50.390625 25.3125 
Q 48.4375 27.828125 43.953125 29.546875 
Q 41.0625 30.671875 31.203125 33.03125 
Q 21.34375 35.40625 17.390625 37.5 
Q 12.25 40.1875 9.734375 44.15625 
Q 7.234375 48.140625 7.234375 53.078125 
Q 7.234375 58.5 10.296875 63.203125 
Q 13.375 67.921875 19.28125 70.359375 
Q 25.203125 72.796875 32.421875 72.796875 
Q 40.375 72.796875 46.453125 70.234375 
Q 52.546875 67.671875 55.8125 62.6875 
Q 59.078125 57.71875 59.328125 51.421875 
L 50.25 50.734375 
Q 49.515625 57.515625 45.28125 60.984375 
Q 41.0625 64.453125 32.8125 64.453125 
Q 24.21875 64.453125 20.28125 61.296875 
Q 16.359375 58.15625 16.359375 53.71875 
Q 16.359375 49.859375 19.140625 47.359375 
Q 21.875 44.875 33.421875 42.265625 
Q 44.96875 39.65625 49.265625 37.703125 
Q 55.515625 34.8125 58.484375 30.390625 
Q 61.46875 25.984375 61.46875 20.21875 
Q 61.46875 14.5 58.203125 9.4375 
Q 54.9375 4.390625 48.796875 1.578125 
Q 42.671875 -1.21875 35.015625 -1.21875 
Q 25.296875 -1.21875 18.71875 1.609375 
Q 12.15625 4.4375 8.421875 10.125 
Q 4.6875 15.828125 4.5 23 
z
" id="ArialMT-83"/>
      </defs>
      <use xlink:href="#ArialMT-67"/>
      <use x="72.216797" xlink:href="#ArialMT-83"/>
      <use x="138.916016" xlink:href="#ArialMT-69"/>
     </g>
    </g>
    <g id="patch_9">
     <path d="M 188.846719 118.954844 
L 210.846719 118.954844 
L 210.846719 111.254844 
L 188.846719 111.254844 
z
" style="fill:none;stroke:#4c72b0;stroke-linejoin:miter;"/>
    </g>
    <g id="text_20">
     <!-- Calculated -->
     <g style="fill:#262626;" transform="translate(219.646719 118.954844)scale(0.11 -0.11)">
      <defs>
       <path d="M 40.4375 6.390625 
Q 35.546875 2.25 31.03125 0.53125 
Q 26.515625 -1.171875 21.34375 -1.171875 
Q 12.796875 -1.171875 8.203125 3 
Q 3.609375 7.171875 3.609375 13.671875 
Q 3.609375 17.484375 5.34375 20.625 
Q 7.078125 23.78125 9.890625 25.6875 
Q 12.703125 27.59375 16.21875 28.5625 
Q 18.796875 29.25 24.03125 29.890625 
Q 34.671875 31.15625 39.703125 32.90625 
Q 39.75 34.71875 39.75 35.203125 
Q 39.75 40.578125 37.25 42.78125 
Q 33.890625 45.75 27.25 45.75 
Q 21.046875 45.75 18.09375 43.578125 
Q 15.140625 41.40625 13.71875 35.890625 
L 5.125 37.0625 
Q 6.296875 42.578125 8.984375 45.96875 
Q 11.671875 49.359375 16.75 51.1875 
Q 21.828125 53.03125 28.515625 53.03125 
Q 35.15625 53.03125 39.296875 51.46875 
Q 43.453125 49.90625 45.40625 47.53125 
Q 47.359375 45.171875 48.140625 41.546875 
Q 48.578125 39.3125 48.578125 33.453125 
L 48.578125 21.734375 
Q 48.578125 9.46875 49.140625 6.21875 
Q 49.703125 2.984375 51.375 0 
L 42.1875 0 
Q 40.828125 2.734375 40.4375 6.390625 
z
M 39.703125 26.03125 
Q 34.90625 24.078125 25.34375 22.703125 
Q 19.921875 21.921875 17.671875 20.9375 
Q 15.4375 19.96875 14.203125 18.09375 
Q 12.984375 16.21875 12.984375 13.921875 
Q 12.984375 10.40625 15.640625 8.0625 
Q 18.3125 5.71875 23.4375 5.71875 
Q 28.515625 5.71875 32.46875 7.9375 
Q 36.421875 10.15625 38.28125 14.015625 
Q 39.703125 17 39.703125 22.796875 
z
" id="ArialMT-97"/>
       <path d="M 6.390625 0 
L 6.390625 71.578125 
L 15.1875 71.578125 
L 15.1875 0 
z
" id="ArialMT-108"/>
       <path d="M 40.4375 19 
L 49.078125 17.875 
Q 47.65625 8.9375 41.8125 3.875 
Q 35.984375 -1.171875 27.484375 -1.171875 
Q 16.84375 -1.171875 10.375 5.78125 
Q 3.90625 12.75 3.90625 25.734375 
Q 3.90625 34.125 6.6875 40.421875 
Q 9.46875 46.734375 15.15625 49.875 
Q 20.84375 53.03125 27.546875 53.03125 
Q 35.984375 53.03125 41.359375 48.75 
Q 46.734375 44.484375 48.25 36.625 
L 39.703125 35.296875 
Q 38.484375 40.53125 35.375 43.15625 
Q 32.28125 45.796875 27.875 45.796875 
Q 21.234375 45.796875 17.078125 41.03125 
Q 12.9375 36.28125 12.9375 25.984375 
Q 12.9375 15.53125 16.9375 10.796875 
Q 20.953125 6.0625 27.390625 6.0625 
Q 32.5625 6.0625 36.03125 9.234375 
Q 39.5 12.40625 40.4375 19 
z
" id="ArialMT-99"/>
       <path d="M 40.578125 0 
L 40.578125 7.625 
Q 34.515625 -1.171875 24.125 -1.171875 
Q 19.53125 -1.171875 15.546875 0.578125 
Q 11.578125 2.34375 9.640625 5 
Q 7.71875 7.671875 6.9375 11.53125 
Q 6.390625 14.109375 6.390625 19.734375 
L 6.390625 51.859375 
L 15.1875 51.859375 
L 15.1875 23.09375 
Q 15.1875 16.21875 15.71875 13.8125 
Q 16.546875 10.359375 19.234375 8.375 
Q 21.921875 6.390625 25.875 6.390625 
Q 29.828125 6.390625 33.296875 8.421875 
Q 36.765625 10.453125 38.203125 13.9375 
Q 39.65625 17.4375 39.65625 24.078125 
L 39.65625 51.859375 
L 48.4375 51.859375 
L 48.4375 0 
z
" id="ArialMT-117"/>
       <path d="M 25.78125 7.859375 
L 27.046875 0.09375 
Q 23.34375 -0.6875 20.40625 -0.6875 
Q 15.625 -0.6875 12.984375 0.828125 
Q 10.359375 2.34375 9.28125 4.8125 
Q 8.203125 7.28125 8.203125 15.1875 
L 8.203125 45.015625 
L 1.765625 45.015625 
L 1.765625 51.859375 
L 8.203125 51.859375 
L 8.203125 64.703125 
L 16.9375 69.96875 
L 16.9375 51.859375 
L 25.78125 51.859375 
L 25.78125 45.015625 
L 16.9375 45.015625 
L 16.9375 14.703125 
Q 16.9375 10.9375 17.40625 9.859375 
Q 17.875 8.796875 18.921875 8.15625 
Q 19.96875 7.515625 21.921875 7.515625 
Q 23.390625 7.515625 25.78125 7.859375 
z
" id="ArialMT-116"/>
       <path d="M 42.09375 16.703125 
L 51.171875 15.578125 
Q 49.03125 7.625 43.21875 3.21875 
Q 37.40625 -1.171875 28.375 -1.171875 
Q 17 -1.171875 10.328125 5.828125 
Q 3.65625 12.84375 3.65625 25.484375 
Q 3.65625 38.578125 10.390625 45.796875 
Q 17.140625 53.03125 27.875 53.03125 
Q 38.28125 53.03125 44.875 45.953125 
Q 51.46875 38.875 51.46875 26.03125 
Q 51.46875 25.25 51.421875 23.6875 
L 12.75 23.6875 
Q 13.234375 15.140625 17.578125 10.59375 
Q 21.921875 6.0625 28.421875 6.0625 
Q 33.25 6.0625 36.671875 8.59375 
Q 40.09375 11.140625 42.09375 16.703125 
z
M 13.234375 30.90625 
L 42.1875 30.90625 
Q 41.609375 37.453125 38.875 40.71875 
Q 34.671875 45.796875 27.984375 45.796875 
Q 21.921875 45.796875 17.796875 41.75 
Q 13.671875 37.703125 13.234375 30.90625 
z
" id="ArialMT-101"/>
       <path d="M 40.234375 0 
L 40.234375 6.546875 
Q 35.296875 -1.171875 25.734375 -1.171875 
Q 19.53125 -1.171875 14.328125 2.25 
Q 9.125 5.671875 6.265625 11.796875 
Q 3.421875 17.921875 3.421875 25.875 
Q 3.421875 33.640625 6 39.96875 
Q 8.59375 46.296875 13.765625 49.65625 
Q 18.953125 53.03125 25.34375 53.03125 
Q 30.03125 53.03125 33.6875 51.046875 
Q 37.359375 49.078125 39.65625 45.90625 
L 39.65625 71.578125 
L 48.390625 71.578125 
L 48.390625 0 
z
M 12.453125 25.875 
Q 12.453125 15.921875 16.640625 10.984375 
Q 20.84375 6.0625 26.5625 6.0625 
Q 32.328125 6.0625 36.34375 10.765625 
Q 40.375 15.484375 40.375 25.140625 
Q 40.375 35.796875 36.265625 40.765625 
Q 32.171875 45.75 26.171875 45.75 
Q 20.3125 45.75 16.375 40.96875 
Q 12.453125 36.1875 12.453125 25.875 
z
" id="ArialMT-100"/>
      </defs>
      <use xlink:href="#ArialMT-67"/>
      <use x="72.216797" xlink:href="#ArialMT-97"/>
      <use x="127.832031" xlink:href="#ArialMT-108"/>
      <use x="150.048828" xlink:href="#ArialMT-99"/>
      <use x="200.048828" xlink:href="#ArialMT-117"/>
      <use x="255.664062" xlink:href="#ArialMT-108"/>
      <use x="277.880859" xlink:href="#ArialMT-97"/>
      <use x="333.496094" xlink:href="#ArialMT-116"/>
      <use x="361.279297" xlink:href="#ArialMT-101"/>
      <use x="416.894531" xlink:href="#ArialMT-100"/>
     </g>
    </g>
   </g>
  </g>
  <g id="axes_2">
   <g id="patch_10">
    <path d="M 335.475 276.3 
L 563.04 276.3 
L 563.04 38.941875 
L 335.475 38.941875 
z
" style="fill:#eaeaf2;"/>
   </g>
   <g id="matplotlib.axis_3">
    <g id="xtick_7">
     <g id="line2d_26">
      <path clip-path="url(#pdcb241e8ba)" d="M 345.818864 276.3 
L 345.818864 38.941875 
" style="fill:none;stroke:#ffffff;stroke-linecap:round;"/>
     </g>
     <g id="text_21">
      <!-- 0 -->
      <g style="fill:#262626;" transform="translate(342.760348 293.673594)scale(0.11 -0.11)">
       <use xlink:href="#ArialMT-48"/>
      </g>
     </g>
    </g>
    <g id="xtick_8">
     <g id="line2d_27">
      <path clip-path="url(#pdcb241e8ba)" d="M 387.194318 276.3 
L 387.194318 38.941875 
" style="fill:none;stroke:#ffffff;stroke-linecap:round;"/>
     </g>
     <g id="text_22">
      <!-- 1 -->
      <g style="fill:#262626;" transform="translate(384.135803 293.673594)scale(0.11 -0.11)">
       <use xlink:href="#ArialMT-49"/>
      </g>
     </g>
    </g>
    <g id="xtick_9">
     <g id="line2d_28">
      <path clip-path="url(#pdcb241e8ba)" d="M 428.569773 276.3 
L 428.569773 38.941875 
" style="fill:none;stroke:#ffffff;stroke-linecap:round;"/>
     </g>
     <g id="text_23">
      <!-- 2 -->
      <g style="fill:#262626;" transform="translate(425.511257 293.673594)scale(0.11 -0.11)">
       <use xlink:href="#ArialMT-50"/>
      </g>
     </g>
    </g>
    <g id="xtick_10">
     <g id="line2d_29">
      <path clip-path="url(#pdcb241e8ba)" d="M 469.945227 276.3 
L 469.945227 38.941875 
" style="fill:none;stroke:#ffffff;stroke-linecap:round;"/>
     </g>
     <g id="text_24">
      <!-- 3 -->
      <g style="fill:#262626;" transform="translate(466.886712 293.673594)scale(0.11 -0.11)">
       <use xlink:href="#ArialMT-51"/>
      </g>
     </g>
    </g>
    <g id="xtick_11">
     <g id="line2d_30">
      <path clip-path="url(#pdcb241e8ba)" d="M 511.320682 276.3 
L 511.320682 38.941875 
" style="fill:none;stroke:#ffffff;stroke-linecap:round;"/>
     </g>
     <g id="text_25">
      <!-- 4 -->
      <g style="fill:#262626;" transform="translate(508.262166 293.673594)scale(0.11 -0.11)">
       <use xlink:href="#ArialMT-52"/>
      </g>
     </g>
    </g>
    <g id="xtick_12">
     <g id="line2d_31">
      <path clip-path="url(#pdcb241e8ba)" d="M 552.696136 276.3 
L 552.696136 38.941875 
" style="fill:none;stroke:#ffffff;stroke-linecap:round;"/>
     </g>
     <g id="text_26">
      <!-- 5 -->
      <g style="fill:#262626;" transform="translate(549.637621 293.673594)scale(0.11 -0.11)">
       <use xlink:href="#ArialMT-53"/>
      </g>
     </g>
    </g>
    <g id="text_27">
     <!-- $s$ -->
     <g style="fill:#262626;" transform="translate(446.0775 308.449219)scale(0.12 -0.12)">
      <defs>
       <path d="M 50 53.078125 
L 48.296875 44.578125 
Q 44.734375 46.53125 40.765625 47.5 
Q 36.8125 48.484375 32.625 48.484375 
Q 25.53125 48.484375 21.453125 46.0625 
Q 17.390625 43.65625 17.390625 39.5 
Q 17.390625 34.671875 26.859375 32.078125 
Q 27.59375 31.890625 27.9375 31.78125 
L 30.8125 30.90625 
Q 39.796875 28.421875 42.796875 25.6875 
Q 45.796875 22.953125 45.796875 18.21875 
Q 45.796875 9.515625 38.890625 4.046875 
Q 31.984375 -1.421875 20.796875 -1.421875 
Q 16.453125 -1.421875 11.671875 -0.578125 
Q 6.890625 0.25 1.125 2 
L 2.875 11.28125 
Q 7.8125 8.734375 12.59375 7.421875 
Q 17.390625 6.109375 21.78125 6.109375 
Q 28.375 6.109375 32.5 8.9375 
Q 36.625 11.765625 36.625 16.109375 
Q 36.625 20.796875 25.78125 23.6875 
L 24.859375 23.921875 
L 21.78125 24.703125 
Q 14.9375 26.515625 11.765625 29.46875 
Q 8.59375 32.421875 8.59375 37.015625 
Q 8.59375 45.75 15.15625 50.875 
Q 21.734375 56 33.015625 56 
Q 37.453125 56 41.671875 55.265625 
Q 45.90625 54.546875 50 53.078125 
z
" id="DejaVuSans-Oblique-115"/>
      </defs>
      <use xlink:href="#DejaVuSans-Oblique-115"/>
     </g>
    </g>
   </g>
   <g id="matplotlib.axis_4">
    <g id="ytick_8">
     <g id="line2d_32">
      <path clip-path="url(#pdcb241e8ba)" d="M 335.475 276.3 
L 563.04 276.3 
" style="fill:none;stroke:#ffffff;stroke-linecap:round;"/>
     </g>
     <g id="text_28">
      <!-- 0.0 -->
      <g style="fill:#262626;" transform="translate(310.685 280.236797)scale(0.11 -0.11)">
       <use xlink:href="#ArialMT-48"/>
       <use x="55.615234" xlink:href="#ArialMT-46"/>
       <use x="83.398438" xlink:href="#ArialMT-48"/>
      </g>
     </g>
    </g>
    <g id="ytick_9">
     <g id="line2d_33">
      <path clip-path="url(#pdcb241e8ba)" d="M 335.475 239.339563 
L 563.04 239.339563 
" style="fill:none;stroke:#ffffff;stroke-linecap:round;"/>
     </g>
     <g id="text_29">
      <!-- 0.2 -->
      <g style="fill:#262626;" transform="translate(310.685 243.27636)scale(0.11 -0.11)">
       <use xlink:href="#ArialMT-48"/>
       <use x="55.615234" xlink:href="#ArialMT-46"/>
       <use x="83.398438" xlink:href="#ArialMT-50"/>
      </g>
     </g>
    </g>
    <g id="ytick_10">
     <g id="line2d_34">
      <path clip-path="url(#pdcb241e8ba)" d="M 335.475 202.379127 
L 563.04 202.379127 
" style="fill:none;stroke:#ffffff;stroke-linecap:round;"/>
     </g>
     <g id="text_30">
      <!-- 0.4 -->
      <g style="fill:#262626;" transform="translate(310.685 206.315924)scale(0.11 -0.11)">
       <use xlink:href="#ArialMT-48"/>
       <use x="55.615234" xlink:href="#ArialMT-46"/>
       <use x="83.398438" xlink:href="#ArialMT-52"/>
      </g>
     </g>
    </g>
    <g id="ytick_11">
     <g id="line2d_35">
      <path clip-path="url(#pdcb241e8ba)" d="M 335.475 165.41869 
L 563.04 165.41869 
" style="fill:none;stroke:#ffffff;stroke-linecap:round;"/>
     </g>
     <g id="text_31">
      <!-- 0.6 -->
      <g style="fill:#262626;" transform="translate(310.685 169.355487)scale(0.11 -0.11)">
       <use xlink:href="#ArialMT-48"/>
       <use x="55.615234" xlink:href="#ArialMT-46"/>
       <use x="83.398438" xlink:href="#ArialMT-54"/>
      </g>
     </g>
    </g>
    <g id="ytick_12">
     <g id="line2d_36">
      <path clip-path="url(#pdcb241e8ba)" d="M 335.475 128.458254 
L 563.04 128.458254 
" style="fill:none;stroke:#ffffff;stroke-linecap:round;"/>
     </g>
     <g id="text_32">
      <!-- 0.8 -->
      <g style="fill:#262626;" transform="translate(310.685 132.395051)scale(0.11 -0.11)">
       <use xlink:href="#ArialMT-48"/>
       <use x="55.615234" xlink:href="#ArialMT-46"/>
       <use x="83.398438" xlink:href="#ArialMT-56"/>
      </g>
     </g>
    </g>
    <g id="ytick_13">
     <g id="line2d_37">
      <path clip-path="url(#pdcb241e8ba)" d="M 335.475 91.497817 
L 563.04 91.497817 
" style="fill:none;stroke:#ffffff;stroke-linecap:round;"/>
     </g>
     <g id="text_33">
      <!-- 1.0 -->
      <g style="fill:#262626;" transform="translate(310.685 95.434614)scale(0.11 -0.11)">
       <use xlink:href="#ArialMT-49"/>
       <use x="55.615234" xlink:href="#ArialMT-46"/>
       <use x="83.398438" xlink:href="#ArialMT-48"/>
      </g>
     </g>
    </g>
    <g id="ytick_14">
     <g id="line2d_38">
      <path clip-path="url(#pdcb241e8ba)" d="M 335.475 54.537381 
L 563.04 54.537381 
" style="fill:none;stroke:#ffffff;stroke-linecap:round;"/>
     </g>
     <g id="text_34">
      <!-- 1.2 -->
      <g style="fill:#262626;" transform="translate(310.685 58.474178)scale(0.11 -0.11)">
       <use xlink:href="#ArialMT-49"/>
       <use x="55.615234" xlink:href="#ArialMT-46"/>
       <use x="83.398438" xlink:href="#ArialMT-50"/>
      </g>
     </g>
    </g>
    <g id="text_35">
     <!-- $P(s)$ -->
     <g style="fill:#262626;" transform="translate(304.3 169.080938)rotate(-90)scale(0.12 -0.12)">
      <use transform="translate(0 0.125)" xlink:href="#DejaVuSans-Oblique-80"/>
      <use transform="translate(60.302734 0.125)" xlink:href="#DejaVuSans-40"/>
      <use transform="translate(99.316406 0.125)" xlink:href="#DejaVuSans-Oblique-115"/>
      <use transform="translate(151.416016 0.125)" xlink:href="#DejaVuSans-41"/>
     </g>
    </g>
   </g>
   <g id="patch_11">
    <path clip-path="url(#pdcb241e8ba)" d="M 345.818864 276.3 
L 345.818864 106.034625 
L 347.887636 106.034625 
L 347.887636 109.24718 
L 349.956409 109.24718 
L 349.956409 112.459734 
L 352.025182 112.459734 
L 352.025182 137.624742 
L 354.093955 137.624742 
L 354.093955 110.853457 
L 356.162727 110.853457 
L 356.162727 153.152088 
L 358.2315 153.152088 
L 358.2315 131.735059 
L 360.300273 131.735059 
L 360.300273 153.152088 
L 362.369045 153.152088 
L 362.369045 149.404108 
L 364.437818 149.404108 
L 364.437818 155.829216 
L 366.506591 155.829216 
L 366.506591 172.427413 
L 368.575364 172.427413 
L 368.575364 173.498264 
L 370.644136 173.498264 
L 370.644136 186.883907 
L 372.712909 186.883907 
L 372.712909 187.954758 
L 374.781682 187.954758 
L 374.781682 191.702738 
L 376.850455 191.702738 
L 376.850455 192.77359 
L 378.919227 192.77359 
L 378.919227 197.056995 
L 380.988 197.056995 
L 380.988 198.127847 
L 383.056773 198.127847 
L 383.056773 190.096461 
L 385.125545 190.096461 
L 385.125545 212.048915 
L 387.194318 212.048915 
L 387.194318 200.804975 
L 389.263091 200.804975 
L 389.263091 213.119767 
L 391.331864 213.119767 
L 391.331864 210.978064 
L 393.400636 210.978064 
L 393.400636 212.584341 
L 395.469409 212.584341 
L 395.469409 216.332321 
L 397.538182 216.332321 
L 397.538182 225.969984 
L 399.606955 225.969984 
L 399.606955 229.717964 
L 401.675727 229.717964 
L 401.675727 231.859666 
L 403.7445 231.859666 
L 403.7445 234.001369 
L 405.813273 234.001369 
L 405.813273 231.324241 
L 407.882045 231.324241 
L 407.882045 235.607646 
L 409.950818 235.607646 
L 409.950818 243.639032 
L 412.019591 243.639032 
L 412.019591 235.072221 
L 414.088364 235.072221 
L 414.088364 237.213923 
L 416.157136 237.213923 
L 416.157136 245.245309 
L 418.225909 245.245309 
L 418.225909 239.891052 
L 420.294682 239.891052 
L 420.294682 250.599566 
L 422.363455 250.599566 
L 422.363455 238.284775 
L 424.432227 238.284775 
L 424.432227 248.993289 
L 426.501 248.993289 
L 426.501 242.56818 
L 428.569773 242.56818 
L 428.569773 251.134992 
L 432.707318 251.134992 
L 432.707318 252.741269 
L 434.776091 252.741269 
L 434.776091 257.5601 
L 436.844864 257.5601 
L 436.844864 255.418397 
L 438.913636 255.418397 
L 438.913636 249.528715 
L 440.982409 249.528715 
L 440.982409 254.882972 
L 443.051182 254.882972 
L 443.051182 253.81212 
L 445.119955 253.81212 
L 445.119955 258.630952 
L 447.188727 258.630952 
L 447.188727 263.449783 
L 449.2575 263.449783 
L 449.2575 266.662337 
L 451.326273 266.662337 
L 451.326273 262.378932 
L 453.395045 262.378932 
L 453.395045 264.520634 
L 455.463818 264.520634 
L 455.463818 262.378932 
L 457.532591 262.378932 
L 457.532591 264.520634 
L 459.601364 264.520634 
L 459.601364 263.449783 
L 461.670136 263.449783 
L 461.670136 259.701803 
L 463.738909 259.701803 
L 463.738909 265.05606 
L 465.807682 265.05606 
L 465.807682 263.985209 
L 467.876455 263.985209 
L 467.876455 266.662337 
L 469.945227 266.662337 
L 469.945227 270.945743 
L 472.014 270.945743 
L 472.014 265.05606 
L 474.082773 265.05606 
L 474.082773 265.591486 
L 476.151545 265.591486 
L 476.151545 265.05606 
L 478.220318 265.05606 
L 478.220318 268.268614 
L 480.289091 268.268614 
L 480.289091 271.481169 
L 482.357864 271.481169 
L 482.357864 272.016594 
L 486.495409 272.016594 
L 486.495409 271.481169 
L 488.564182 271.481169 
L 488.564182 272.016594 
L 490.632955 272.016594 
L 490.632955 268.268614 
L 492.701727 268.268614 
L 492.701727 270.945743 
L 494.7705 270.945743 
L 494.7705 269.874892 
L 496.839273 269.874892 
L 496.839273 271.481169 
L 498.908045 271.481169 
L 498.908045 273.622871 
L 503.045591 273.622871 
L 503.045591 270.945743 
L 505.114364 270.945743 
L 505.114364 274.158297 
L 507.183136 274.158297 
L 507.183136 270.945743 
L 509.251909 270.945743 
L 509.251909 272.016594 
L 511.320682 272.016594 
L 511.320682 270.945743 
L 513.389455 270.945743 
L 513.389455 274.158297 
L 517.527 274.158297 
L 517.527 274.693723 
L 519.595773 274.693723 
L 519.595773 274.158297 
L 521.664545 274.158297 
L 521.664545 273.087446 
L 523.733318 273.087446 
L 523.733318 273.622871 
L 525.802091 273.622871 
L 525.802091 273.087446 
L 527.870864 273.087446 
L 527.870864 274.693723 
L 529.939636 274.693723 
L 529.939636 275.764574 
L 532.008409 275.764574 
L 532.008409 272.55202 
L 534.077182 272.55202 
L 534.077182 275.229149 
L 536.145955 275.229149 
L 536.145955 275.764574 
L 538.214727 275.764574 
L 538.214727 275.229149 
L 540.2835 275.229149 
L 540.2835 274.693723 
L 542.352273 274.693723 
L 542.352273 275.764574 
L 546.489818 275.764574 
L 546.489818 276.3 
L 550.627364 276.3 
L 550.627364 274.693723 
L 552.696136 274.693723 
L 552.696136 276.3 
L 552.696136 276.3 
" style="fill:none;stroke:#4c72b0;stroke-linejoin:miter;"/>
   </g>
   <g id="line2d_39">
    <path clip-path="url(#pdcb241e8ba)" d="M 345.818864 91.497817 
L 347.908533 100.599486 
L 349.998202 109.25289 
L 352.087872 117.480106 
L 354.177541 125.302124 
L 356.267211 132.738902 
L 358.35688 139.809411 
L 360.44655 146.531692 
L 362.536219 152.922894 
L 364.625888 158.999324 
L 366.715558 164.776485 
L 368.805227 170.269116 
L 370.894897 175.491229 
L 372.984566 180.456149 
L 375.074236 185.176543 
L 377.163905 189.664452 
L 379.253574 193.931329 
L 381.343244 197.988058 
L 383.432913 201.844989 
L 385.522583 205.511964 
L 387.612252 208.998336 
L 389.701921 212.313002 
L 391.791591 215.464417 
L 393.88126 218.460623 
L 395.97093 221.309263 
L 398.060599 224.017605 
L 400.150269 226.592558 
L 402.239938 229.040693 
L 404.329607 231.368255 
L 406.419277 233.581183 
L 408.508946 235.685122 
L 410.598616 237.68544 
L 412.688285 239.587241 
L 414.777955 241.395376 
L 416.867624 243.11446 
L 418.957293 244.748876 
L 421.046963 246.302797 
L 423.136632 247.780185 
L 425.226302 249.184811 
L 427.315971 250.520258 
L 429.40564 251.789933 
L 431.49531 252.997075 
L 433.584979 254.144764 
L 435.674649 255.235929 
L 437.764318 256.273353 
L 439.853988 257.259683 
L 441.943657 258.197435 
L 444.033326 259.089002 
L 446.122996 259.936659 
L 448.212665 260.742568 
L 450.302335 261.508785 
L 452.392004 262.237265 
L 454.481674 262.929867 
L 456.571343 263.588358 
L 458.661012 264.214417 
L 460.750682 264.809643 
L 462.840351 265.375553 
L 464.930021 265.913591 
L 467.01969 266.425131 
L 469.10936 266.911477 
L 471.199029 267.37387 
L 473.288698 267.81349 
L 475.378368 268.231458 
L 477.468037 268.62884 
L 479.557707 269.006652 
L 481.647376 269.365855 
L 483.737045 269.707368 
L 485.826715 270.032061 
L 487.916384 270.340763 
L 490.006054 270.63426 
L 492.095723 270.913303 
L 494.185393 271.178602 
L 496.275062 271.430836 
L 498.364731 271.670646 
L 500.454401 271.898646 
L 502.54407 272.115416 
L 504.63374 272.321511 
L 506.723409 272.517455 
L 508.813079 272.703749 
L 510.902748 272.880867 
L 512.992417 273.049262 
L 515.082087 273.209364 
L 517.171756 273.361581 
L 519.261426 273.5063 
L 521.351095 273.643892 
L 523.440764 273.774708 
L 525.530434 273.899081 
L 527.620103 274.017328 
L 529.709773 274.129752 
L 531.799442 274.236638 
L 533.889112 274.338261 
L 535.978781 274.434878 
L 538.06845 274.526737 
L 540.15812 274.614072 
L 542.247789 274.697105 
L 544.337459 274.776049 
L 546.427128 274.851105 
L 548.516798 274.922464 
L 550.606467 274.990309 
L 552.696136 275.054813 
" style="fill:none;stroke:#dd8452;stroke-linecap:round;stroke-width:1.5;"/>
   </g>
   <g id="line2d_40">
    <path clip-path="url(#pdcb241e8ba)" d="M 345.818864 276.3 
L 347.908533 274.776591 
L 349.998202 270.265448 
L 352.087872 262.940961 
L 354.177541 253.084427 
L 356.267211 241.070604 
L 358.35688 227.350021 
L 360.44655 212.428081 
L 362.536219 196.842151 
L 364.625888 181.137938 
L 366.715558 165.846398 
L 368.805227 151.462411 
L 370.894897 138.426224 
L 372.984566 127.108488 
L 375.074236 117.799449 
L 377.163905 110.702577 
L 379.253574 105.932625 
L 381.343244 103.517888 
L 383.432913 103.406179 
L 385.522583 105.47389 
L 387.612252 109.537389 
L 389.701921 115.365933 
L 391.791591 122.695294 
L 393.88126 131.241343 
L 395.97093 140.712908 
L 398.060599 150.823378 
L 400.150269 161.300621 
L 402.239938 171.89498 
L 404.329607 182.385201 
L 406.419277 192.582329 
L 408.508946 202.331658 
L 410.598616 211.512973 
L 412.688285 220.03932 
L 414.777955 227.854627 
L 416.867624 234.930457 
L 418.957293 241.262226 
L 421.046963 246.865138 
L 423.136632 251.770082 
L 425.226302 256.019692 
L 427.315971 259.664712 
L 429.40564 262.760772 
L 431.49531 265.365636 
L 433.584979 267.536949 
L 435.674649 269.330467 
L 437.764318 270.798753 
L 439.853988 271.990281 
L 441.943657 272.948905 
L 444.033326 273.713616 
L 446.122996 274.318541 
L 448.212665 274.793118 
L 450.302335 275.162398 
L 452.392004 275.447424 
L 454.481674 275.665662 
L 456.571343 275.831438 
L 458.661012 275.956377 
L 460.750682 276.049805 
L 462.840351 276.11913 
L 464.930021 276.170175 
L 467.01969 276.207475 
L 469.10936 276.234524 
L 471.199029 276.253992 
L 473.288698 276.267898 
L 475.378368 276.277759 
L 477.468037 276.284698 
L 479.557707 276.289546 
L 481.647376 276.292907 
L 483.737045 276.295221 
L 485.826715 276.296803 
L 487.916384 276.297876 
L 490.006054 276.298598 
L 492.095723 276.299081 
L 494.185393 276.299402 
L 496.275062 276.299614 
L 498.364731 276.299752 
L 500.454401 276.299842 
L 502.54407 276.2999 
L 504.63374 276.299937 
L 506.723409 276.299961 
L 508.813079 276.299976 
L 510.902748 276.299985 
L 512.992417 276.299991 
L 515.082087 276.299994 
L 517.171756 276.299997 
L 519.261426 276.299998 
L 521.351095 276.299999 
L 523.440764 276.299999 
L 525.530434 276.3 
L 527.620103 276.3 
L 529.709773 276.3 
L 531.799442 276.3 
L 533.889112 276.3 
L 535.978781 276.3 
L 538.06845 276.3 
L 540.15812 276.3 
L 542.247789 276.3 
L 544.337459 276.3 
L 546.427128 276.3 
L 548.516798 276.3 
L 550.606467 276.3 
L 552.696136 276.3 
" style="fill:none;stroke:#55a868;stroke-linecap:round;stroke-width:1.5;"/>
   </g>
   <g id="line2d_41">
    <path clip-path="url(#pdcb241e8ba)" d="M 345.818864 276.3 
L 347.908533 261.668403 
L 349.998202 247.212153 
L 352.087872 233.103099 
L 354.177541 219.506192 
L 356.267211 206.576279 
L 358.35688 194.455168 
L 360.44655 183.269059 
L 362.536219 173.126391 
L 364.625888 164.116159 
L 366.715558 156.306737 
L 368.805227 149.745231 
L 370.894897 144.457344 
L 372.984566 140.447755 
L 375.074236 137.700975 
L 377.163905 136.182632 
L 379.253574 135.84113 
L 381.343244 136.609624 
L 383.432913 138.40823 
L 385.522583 141.146399 
L 387.612252 144.725388 
L 389.701921 149.040744 
L 391.791591 153.984738 
L 393.88126 159.448688 
L 395.97093 165.32512 
L 398.060599 171.50971 
L 400.150269 177.902997 
L 402.239938 184.411814 
L 404.329607 190.950449 
L 406.419277 197.44152 
L 408.508946 203.816567 
L 410.598616 210.016384 
L 412.688285 215.991104 
L 414.777955 221.700063 
L 416.867624 227.111472 
L 418.957293 232.201933 
L 421.046963 236.955818 
L 423.136632 241.364565 
L 425.226302 245.425898 
L 427.315971 249.143015 
L 429.40564 252.523767 
L 431.49531 255.579848 
L 433.584979 258.326019 
L 435.674649 260.779373 
L 437.764318 262.958668 
L 439.853988 264.883719 
L 441.943657 266.574868 
L 444.033326 268.052526 
L 446.122996 269.336787 
L 448.212665 270.447118 
L 450.302335 271.402113 
L 452.392004 272.219306 
L 454.481674 272.915051 
L 456.571343 273.504436 
L 458.661012 274.001248 
L 460.750682 274.417974 
L 462.840351 274.765823 
L 464.930021 275.054778 
L 467.01969 275.293661 
L 469.10936 275.49021 
L 471.199029 275.651163 
L 473.288698 275.782347 
L 475.378368 275.88877 
L 477.468037 275.974705 
L 479.557707 276.043776 
L 481.647376 276.099036 
L 483.737045 276.143046 
L 485.826715 276.177937 
L 487.916384 276.205471 
L 490.006054 276.227104 
L 492.095723 276.244022 
L 494.185393 276.257194 
L 496.275062 276.267404 
L 498.364731 276.275283 
L 500.454401 276.281336 
L 502.54407 276.285966 
L 504.63374 276.289491 
L 506.723409 276.292163 
L 508.813079 276.294181 
L 510.902748 276.295697 
L 512.992417 276.296831 
L 515.082087 276.297676 
L 517.171756 276.298303 
L 519.261426 276.298766 
L 521.351095 276.299106 
L 523.440764 276.299355 
L 525.530434 276.299537 
L 527.620103 276.299669 
L 529.709773 276.299764 
L 531.799442 276.299833 
L 533.889112 276.299882 
L 535.978781 276.299917 
L 538.06845 276.299942 
L 540.15812 276.299959 
L 542.247789 276.299972 
L 544.337459 276.29998 
L 546.427128 276.299987 
L 548.516798 276.299991 
L 550.606467 276.299994 
L 552.696136 276.299996 
" style="fill:none;stroke:#c44e52;stroke-linecap:round;stroke-width:1.5;"/>
   </g>
   <g id="line2d_42">
    <path clip-path="url(#pdcb241e8ba)" d="M 345.818864 276.3 
L 347.908533 276.286136 
L 349.998202 276.081979 
L 352.087872 275.227675 
L 354.177541 273.045165 
L 356.267211 268.756002 
L 358.35688 261.619394 
L 360.44655 251.06905 
L 362.536219 236.828026 
L 364.625888 218.984594 
L 366.715558 198.018566 
L 368.805227 174.775246 
L 370.894897 150.391917 
L 372.984566 126.188331 
L 375.074236 103.537056 
L 377.163905 83.731214 
L 379.253574 67.866183 
L 381.343244 56.748541 
L 383.432913 50.840757 
L 385.522583 50.244643 
L 387.612252 54.721432 
L 389.701921 63.742071 
L 391.791591 76.558544 
L 393.88126 92.285867 
L 395.97093 109.984722 
L 398.060599 128.736296 
L 400.150269 147.703178 
L 402.239938 166.172895 
L 404.329607 183.583163 
L 406.419277 199.530134 
L 408.508946 213.762414 
L 410.598616 226.164522 
L 412.688285 236.733686 
L 414.777955 245.553639 
L 416.867624 252.76843 
L 418.957293 258.558527 
L 421.046963 263.120626 
L 423.136632 266.651853 
L 425.226302 269.338407 
L 427.315971 271.348293 
L 429.40564 272.827488 
L 431.49531 273.898783 
L 433.584979 274.662541 
L 435.674649 275.198691 
L 437.764318 275.569377 
L 439.853988 275.821849 
L 441.943657 275.991281 
L 444.033326 276.103336 
L 446.122996 276.176381 
L 448.212665 276.223321 
L 450.302335 276.253061 
L 452.392004 276.271642 
L 454.481674 276.28309 
L 456.571343 276.290047 
L 458.661012 276.294218 
L 460.750682 276.296684 
L 462.840351 276.298122 
L 464.930021 276.29895 
L 467.01969 276.299421 
L 469.10936 276.299684 
L 471.199029 276.29983 
L 473.288698 276.29991 
L 475.378368 276.299953 
L 477.468037 276.299975 
L 479.557707 276.299987 
L 481.647376 276.299994 
L 483.737045 276.299997 
L 485.826715 276.299998 
L 487.916384 276.299999 
L 490.006054 276.3 
L 492.095723 276.3 
L 494.185393 276.3 
L 496.275062 276.3 
L 498.364731 276.3 
L 500.454401 276.3 
L 502.54407 276.3 
L 504.63374 276.3 
L 506.723409 276.3 
L 508.813079 276.3 
L 510.902748 276.3 
L 512.992417 276.3 
L 515.082087 276.3 
L 517.171756 276.3 
L 519.261426 276.3 
L 521.351095 276.3 
L 523.440764 276.3 
L 525.530434 276.3 
L 527.620103 276.3 
L 529.709773 276.3 
L 531.799442 276.3 
L 533.889112 276.3 
L 535.978781 276.3 
L 538.06845 276.3 
L 540.15812 276.3 
L 542.247789 276.3 
L 544.337459 276.3 
L 546.427128 276.3 
L 548.516798 276.3 
L 550.606467 276.3 
L 552.696136 276.3 
" style="fill:none;stroke:#8172b3;stroke-linecap:round;stroke-width:1.5;"/>
   </g>
   <g id="patch_12">
    <path d="M 335.475 276.3 
L 335.475 38.941875 
" style="fill:none;stroke:#ffffff;stroke-linecap:square;stroke-linejoin:miter;stroke-width:1.25;"/>
   </g>
   <g id="patch_13">
    <path d="M 563.04 276.3 
L 563.04 38.941875 
" style="fill:none;stroke:#ffffff;stroke-linecap:square;stroke-linejoin:miter;stroke-width:1.25;"/>
   </g>
   <g id="patch_14">
    <path d="M 335.475 276.3 
L 563.04 276.3 
" style="fill:none;stroke:#ffffff;stroke-linecap:square;stroke-linejoin:miter;stroke-width:1.25;"/>
   </g>
   <g id="patch_15">
    <path d="M 335.475 38.941875 
L 563.04 38.941875 
" style="fill:none;stroke:#ffffff;stroke-linecap:square;stroke-linejoin:miter;stroke-width:1.25;"/>
   </g>
   <g id="legend_2">
    <g id="patch_16">
     <path d="M 468.166719 125.541094 
L 555.34 125.541094 
Q 557.54 125.541094 557.54 123.341094 
L 557.54 46.641875 
Q 557.54 44.441875 555.34 44.441875 
L 468.166719 44.441875 
Q 465.966719 44.441875 465.966719 46.641875 
L 465.966719 123.341094 
Q 465.966719 125.541094 468.166719 125.541094 
z
" style="fill:#eaeaf2;opacity:0.8;stroke:#cccccc;stroke-linejoin:miter;"/>
    </g>
    <g id="line2d_43">
     <path d="M 470.366719 52.865469 
L 492.366719 52.865469 
" style="fill:none;stroke:#dd8452;stroke-linecap:round;stroke-width:1.5;"/>
    </g>
    <g id="line2d_44"/>
    <g id="text_36">
     <!-- Poisson -->
     <g style="fill:#262626;" transform="translate(501.166719 56.715469)scale(0.11 -0.11)">
      <use xlink:href="#ArialMT-80"/>
      <use x="66.699219" xlink:href="#ArialMT-111"/>
      <use x="122.314453" xlink:href="#ArialMT-105"/>
      <use x="144.53125" xlink:href="#ArialMT-115"/>
      <use x="194.53125" xlink:href="#ArialMT-115"/>
      <use x="244.53125" xlink:href="#ArialMT-111"/>
      <use x="300.146484" xlink:href="#ArialMT-110"/>
     </g>
    </g>
    <g id="line2d_45">
     <path d="M 470.366719 68.425313 
L 492.366719 68.425313 
" style="fill:none;stroke:#55a868;stroke-linecap:round;stroke-width:1.5;"/>
    </g>
    <g id="line2d_46"/>
    <g id="text_37">
     <!-- CUE -->
     <g style="fill:#262626;" transform="translate(501.166719 72.275313)scale(0.11 -0.11)">
      <use xlink:href="#ArialMT-67"/>
      <use x="72.216797" xlink:href="#ArialMT-85"/>
      <use x="144.433594" xlink:href="#ArialMT-69"/>
     </g>
    </g>
    <g id="line2d_47">
     <path d="M 470.366719 83.985156 
L 492.366719 83.985156 
" style="fill:none;stroke:#c44e52;stroke-linecap:round;stroke-width:1.5;"/>
    </g>
    <g id="line2d_48"/>
    <g id="text_38">
     <!-- COE -->
     <g style="fill:#262626;" transform="translate(501.166719 87.835156)scale(0.11 -0.11)">
      <use xlink:href="#ArialMT-67"/>
      <use x="72.216797" xlink:href="#ArialMT-79"/>
      <use x="150" xlink:href="#ArialMT-69"/>
     </g>
    </g>
    <g id="line2d_49">
     <path d="M 470.366719 99.545 
L 492.366719 99.545 
" style="fill:none;stroke:#8172b3;stroke-linecap:round;stroke-width:1.5;"/>
    </g>
    <g id="line2d_50"/>
    <g id="text_39">
     <!-- CSE -->
     <g style="fill:#262626;" transform="translate(501.166719 103.395)scale(0.11 -0.11)">
      <use xlink:href="#ArialMT-67"/>
      <use x="72.216797" xlink:href="#ArialMT-83"/>
      <use x="138.916016" xlink:href="#ArialMT-69"/>
     </g>
    </g>
    <g id="patch_17">
     <path d="M 470.366719 118.954844 
L 492.366719 118.954844 
L 492.366719 111.254844 
L 470.366719 111.254844 
z
" style="fill:none;stroke:#4c72b0;stroke-linejoin:miter;"/>
    </g>
    <g id="text_40">
     <!-- Calculated -->
     <g style="fill:#262626;" transform="translate(501.166719 118.954844)scale(0.11 -0.11)">
      <use xlink:href="#ArialMT-67"/>
      <use x="72.216797" xlink:href="#ArialMT-97"/>
      <use x="127.832031" xlink:href="#ArialMT-108"/>
      <use x="150.048828" xlink:href="#ArialMT-99"/>
      <use x="200.048828" xlink:href="#ArialMT-117"/>
      <use x="255.664062" xlink:href="#ArialMT-108"/>
      <use x="277.880859" xlink:href="#ArialMT-97"/>
      <use x="333.496094" xlink:href="#ArialMT-116"/>
      <use x="361.279297" xlink:href="#ArialMT-101"/>
      <use x="416.894531" xlink:href="#ArialMT-100"/>
     </g>
    </g>
   </g>
  </g>
  <g id="text_41">
   <!-- Quasiperiodic Kicked Rotor (K = 7, Alpha = 0.8) -->
   <g style="fill:#262626;" transform="translate(136.724625 16.97175)scale(0.144 -0.144)">
    <defs>
     <path d="M 61.96875 7.671875 
Q 68.5625 3.125 74.125 1.03125 
L 71.34375 -5.5625 
Q 63.625 -2.78125 55.953125 3.21875 
Q 48 -1.21875 38.375 -1.21875 
Q 28.65625 -1.21875 20.75 3.46875 
Q 12.84375 8.15625 8.5625 16.640625 
Q 4.296875 25.140625 4.296875 35.796875 
Q 4.296875 46.390625 8.59375 55.078125 
Q 12.890625 63.765625 20.828125 68.3125 
Q 28.765625 72.859375 38.578125 72.859375 
Q 48.484375 72.859375 56.4375 68.140625 
Q 64.40625 63.421875 68.578125 54.953125 
Q 72.75 46.484375 72.75 35.84375 
Q 72.75 27 70.0625 19.9375 
Q 67.390625 12.890625 61.96875 7.671875 
z
M 41.109375 19.78125 
Q 49.3125 17.484375 54.640625 12.9375 
Q 62.984375 20.5625 62.984375 35.84375 
Q 62.984375 44.53125 60.03125 51.015625 
Q 57.078125 57.515625 51.390625 61.109375 
Q 45.703125 64.703125 38.625 64.703125 
Q 28.03125 64.703125 21.046875 57.453125 
Q 14.0625 50.203125 14.0625 35.796875 
Q 14.0625 21.828125 20.96875 14.359375 
Q 27.875 6.890625 38.625 6.890625 
Q 43.703125 6.890625 48.1875 8.796875 
Q 43.75 11.671875 38.8125 12.890625 
z
" id="ArialMT-81"/>
     <path d="M 6.59375 -19.875 
L 6.59375 51.859375 
L 14.59375 51.859375 
L 14.59375 45.125 
Q 17.4375 49.078125 21 51.046875 
Q 24.5625 53.03125 29.640625 53.03125 
Q 36.28125 53.03125 41.359375 49.609375 
Q 46.4375 46.1875 49.015625 39.953125 
Q 51.609375 33.734375 51.609375 26.3125 
Q 51.609375 18.359375 48.75 11.984375 
Q 45.90625 5.609375 40.453125 2.21875 
Q 35.015625 -1.171875 29 -1.171875 
Q 24.609375 -1.171875 21.109375 0.6875 
Q 17.625 2.546875 15.375 5.375 
L 15.375 -19.875 
z
M 14.546875 25.640625 
Q 14.546875 15.625 18.59375 10.84375 
Q 22.65625 6.0625 28.421875 6.0625 
Q 34.28125 6.0625 38.453125 11.015625 
Q 42.625 15.96875 42.625 26.375 
Q 42.625 36.28125 38.546875 41.203125 
Q 34.46875 46.140625 28.8125 46.140625 
Q 23.1875 46.140625 18.859375 40.890625 
Q 14.546875 35.640625 14.546875 25.640625 
z
" id="ArialMT-112"/>
     <path d="M 6.5 0 
L 6.5 51.859375 
L 14.40625 51.859375 
L 14.40625 44 
Q 17.4375 49.515625 20 51.265625 
Q 22.5625 53.03125 25.640625 53.03125 
Q 30.078125 53.03125 34.671875 50.203125 
L 31.640625 42.046875 
Q 28.421875 43.953125 25.203125 43.953125 
Q 22.3125 43.953125 20.015625 42.21875 
Q 17.71875 40.484375 16.75 37.40625 
Q 15.28125 32.71875 15.28125 27.15625 
L 15.28125 0 
z
" id="ArialMT-114"/>
     <path id="ArialMT-32"/>
     <path d="M 7.328125 0 
L 7.328125 71.578125 
L 16.796875 71.578125 
L 16.796875 36.078125 
L 52.34375 71.578125 
L 65.1875 71.578125 
L 35.15625 42.578125 
L 66.5 0 
L 54 0 
L 28.515625 36.234375 
L 16.796875 24.8125 
L 16.796875 0 
z
" id="ArialMT-75"/>
     <path d="M 6.640625 0 
L 6.640625 71.578125 
L 15.4375 71.578125 
L 15.4375 30.765625 
L 36.234375 51.859375 
L 47.609375 51.859375 
L 27.78125 32.625 
L 49.609375 0 
L 38.765625 0 
L 21.625 26.515625 
L 15.4375 20.5625 
L 15.4375 0 
z
" id="ArialMT-107"/>
     <path d="M 7.859375 0 
L 7.859375 71.578125 
L 39.59375 71.578125 
Q 49.171875 71.578125 54.140625 69.640625 
Q 59.125 67.71875 62.109375 62.828125 
Q 65.09375 57.953125 65.09375 52.046875 
Q 65.09375 44.4375 60.15625 39.203125 
Q 55.21875 33.984375 44.921875 32.5625 
Q 48.6875 30.765625 50.640625 29 
Q 54.78125 25.203125 58.5 19.484375 
L 70.953125 0 
L 59.03125 0 
L 49.5625 14.890625 
Q 45.40625 21.34375 42.71875 24.75 
Q 40.046875 28.171875 37.921875 29.53125 
Q 35.796875 30.90625 33.59375 31.453125 
Q 31.984375 31.78125 28.328125 31.78125 
L 17.328125 31.78125 
L 17.328125 0 
z
M 17.328125 39.984375 
L 37.703125 39.984375 
Q 44.1875 39.984375 47.84375 41.328125 
Q 51.515625 42.671875 53.421875 45.625 
Q 55.328125 48.578125 55.328125 52.046875 
Q 55.328125 57.125 51.640625 60.390625 
Q 47.953125 63.671875 39.984375 63.671875 
L 17.328125 63.671875 
z
" id="ArialMT-82"/>
     <path d="M 23.390625 -21.046875 
Q 16.109375 -11.859375 11.078125 0.4375 
Q 6.0625 12.75 6.0625 25.921875 
Q 6.0625 37.546875 9.8125 48.1875 
Q 14.203125 60.546875 23.390625 72.796875 
L 29.6875 72.796875 
Q 23.78125 62.640625 21.875 58.296875 
Q 18.890625 51.5625 17.1875 44.234375 
Q 15.09375 35.109375 15.09375 25.875 
Q 15.09375 2.390625 29.6875 -21.046875 
z
" id="ArialMT-40"/>
     <path d="M 52.828125 42.09375 
L 5.5625 42.09375 
L 5.5625 50.296875 
L 52.828125 50.296875 
z
M 52.828125 20.359375 
L 5.5625 20.359375 
L 5.5625 28.5625 
L 52.828125 28.5625 
z
" id="ArialMT-61"/>
     <path d="M 4.734375 62.203125 
L 4.734375 70.65625 
L 51.078125 70.65625 
L 51.078125 63.8125 
Q 44.234375 56.546875 37.515625 44.484375 
Q 30.8125 32.421875 27.15625 19.671875 
Q 24.515625 10.6875 23.78125 0 
L 14.75 0 
Q 14.890625 8.453125 18.0625 20.40625 
Q 21.234375 32.375 27.171875 43.484375 
Q 33.109375 54.59375 39.796875 62.203125 
z
" id="ArialMT-55"/>
     <path d="M 8.890625 0 
L 8.890625 10.015625 
L 18.890625 10.015625 
L 18.890625 0 
Q 18.890625 -5.515625 16.9375 -8.90625 
Q 14.984375 -12.3125 10.75 -14.15625 
L 8.296875 -10.40625 
Q 11.078125 -9.1875 12.390625 -6.8125 
Q 13.71875 -4.4375 13.875 0 
z
" id="ArialMT-44"/>
     <path d="M -0.140625 0 
L 27.34375 71.578125 
L 37.546875 71.578125 
L 66.84375 0 
L 56.0625 0 
L 47.703125 21.6875 
L 17.78125 21.6875 
L 9.90625 0 
z
M 20.515625 29.390625 
L 44.78125 29.390625 
L 37.3125 49.21875 
Q 33.890625 58.25 32.234375 64.0625 
Q 30.859375 57.171875 28.375 50.390625 
z
" id="ArialMT-65"/>
     <path d="M 6.59375 0 
L 6.59375 71.578125 
L 15.375 71.578125 
L 15.375 45.90625 
Q 21.53125 53.03125 30.90625 53.03125 
Q 36.671875 53.03125 40.921875 50.75 
Q 45.171875 48.484375 47 44.484375 
Q 48.828125 40.484375 48.828125 32.859375 
L 48.828125 0 
L 40.046875 0 
L 40.046875 32.859375 
Q 40.046875 39.453125 37.1875 42.453125 
Q 34.328125 45.453125 29.109375 45.453125 
Q 25.203125 45.453125 21.75 43.421875 
Q 18.3125 41.40625 16.84375 37.9375 
Q 15.375 34.46875 15.375 28.375 
L 15.375 0 
z
" id="ArialMT-104"/>
     <path d="M 12.359375 -21.046875 
L 6.0625 -21.046875 
Q 20.65625 2.390625 20.65625 25.875 
Q 20.65625 35.0625 18.5625 44.09375 
Q 16.890625 51.421875 13.921875 58.15625 
Q 12.015625 62.546875 6.0625 72.796875 
L 12.359375 72.796875 
Q 21.53125 60.546875 25.921875 48.1875 
Q 29.6875 37.546875 29.6875 25.921875 
Q 29.6875 12.75 24.625 0.4375 
Q 19.578125 -11.859375 12.359375 -21.046875 
z
" id="ArialMT-41"/>
    </defs>
    <use xlink:href="#ArialMT-81"/>
    <use x="77.783203" xlink:href="#ArialMT-117"/>
    <use x="133.398438" xlink:href="#ArialMT-97"/>
    <use x="189.013672" xlink:href="#ArialMT-115"/>
    <use x="239.013672" xlink:href="#ArialMT-105"/>
    <use x="261.230469" xlink:href="#ArialMT-112"/>
    <use x="316.845703" xlink:href="#ArialMT-101"/>
    <use x="372.460938" xlink:href="#ArialMT-114"/>
    <use x="405.761719" xlink:href="#ArialMT-105"/>
    <use x="427.978516" xlink:href="#ArialMT-111"/>
    <use x="483.59375" xlink:href="#ArialMT-100"/>
    <use x="539.208984" xlink:href="#ArialMT-105"/>
    <use x="561.425781" xlink:href="#ArialMT-99"/>
    <use x="611.425781" xlink:href="#ArialMT-32"/>
    <use x="639.208984" xlink:href="#ArialMT-75"/>
    <use x="705.908203" xlink:href="#ArialMT-105"/>
    <use x="728.125" xlink:href="#ArialMT-99"/>
    <use x="778.125" xlink:href="#ArialMT-107"/>
    <use x="828.125" xlink:href="#ArialMT-101"/>
    <use x="883.740234" xlink:href="#ArialMT-100"/>
    <use x="939.355469" xlink:href="#ArialMT-32"/>
    <use x="967.138672" xlink:href="#ArialMT-82"/>
    <use x="1039.355469" xlink:href="#ArialMT-111"/>
    <use x="1094.970703" xlink:href="#ArialMT-116"/>
    <use x="1122.753906" xlink:href="#ArialMT-111"/>
    <use x="1178.369141" xlink:href="#ArialMT-114"/>
    <use x="1211.669922" xlink:href="#ArialMT-32"/>
    <use x="1239.453125" xlink:href="#ArialMT-40"/>
    <use x="1272.753906" xlink:href="#ArialMT-75"/>
    <use x="1339.453125" xlink:href="#ArialMT-32"/>
    <use x="1367.236328" xlink:href="#ArialMT-61"/>
    <use x="1425.634766" xlink:href="#ArialMT-32"/>
    <use x="1453.417969" xlink:href="#ArialMT-55"/>
    <use x="1509.033203" xlink:href="#ArialMT-44"/>
    <use x="1536.816406" xlink:href="#ArialMT-32"/>
    <use x="1559.099609" xlink:href="#ArialMT-65"/>
    <use x="1625.798828" xlink:href="#ArialMT-108"/>
    <use x="1648.015625" xlink:href="#ArialMT-112"/>
    <use x="1703.630859" xlink:href="#ArialMT-104"/>
    <use x="1759.246094" xlink:href="#ArialMT-97"/>
    <use x="1814.861328" xlink:href="#ArialMT-32"/>
    <use x="1842.644531" xlink:href="#ArialMT-61"/>
    <use x="1901.042969" xlink:href="#ArialMT-32"/>
    <use x="1928.826172" xlink:href="#ArialMT-48"/>
    <use x="1984.441406" xlink:href="#ArialMT-46"/>
    <use x="2012.224609" xlink:href="#ArialMT-56"/>
    <use x="2067.839844" xlink:href="#ArialMT-41"/>
   </g>
  </g>
 </g>
 <defs>
  <clipPath id="p9cfb17eb3b">
   <rect height="237.358125" width="227.565" x="53.955" y="38.941875"/>
  </clipPath>
  <clipPath id="pdcb241e8ba">
   <rect height="237.358125" width="227.565" x="335.475" y="38.941875"/>
  </clipPath>
 </defs>
</svg>
