<?xml version="1.0" encoding="utf-8" standalone="no"?>
<!DOCTYPE svg PUBLIC "-//W3C//DTD SVG 1.1//EN"
  "http://www.w3.org/Graphics/SVG/1.1/DTD/svg11.dtd">
<!-- Created with matplotlib (https://matplotlib.org/) -->
<svg height="324pt" version="1.1" viewBox="0 0 576 324" width="576pt" xmlns="http://www.w3.org/2000/svg" xmlns:xlink="http://www.w3.org/1999/xlink">
 <metadata>
  <rdf:RDF xmlns:cc="http://creativecommons.org/ns#" xmlns:dc="http://purl.org/dc/elements/1.1/" xmlns:rdf="http://www.w3.org/1999/02/22-rdf-syntax-ns#">
   <cc:Work>
    <dc:type rdf:resource="http://purl.org/dc/dcmitype/StillImage"/>
    <dc:date>2021-07-05T22:06:35.864296</dc:date>
    <dc:format>image/svg+xml</dc:format>
    <dc:creator>
     <cc:Agent>
      <dc:title>Matplotlib v3.3.4, https://matplotlib.org/</dc:title>
     </cc:Agent>
    </dc:creator>
   </cc:Work>
  </rdf:RDF>
 </metadata>
 <defs>
  <style type="text/css">*{stroke-linecap:butt;stroke-linejoin:round;}</style>
 </defs>
 <g id="figure_1">
  <g id="patch_1">
   <path d="M 0 324 
L 576 324 
L 576 0 
L 0 0 
z
" style="fill:#ffffff;"/>
  </g>
  <g id="axes_1">
   <g id="patch_2">
    <path d="M 44.82 276.3 
L 276.9525 276.3 
L 276.9525 38.941875 
L 44.82 38.941875 
z
" style="fill:#eaeaf2;"/>
   </g>
   <g id="matplotlib.axis_1">
    <g id="xtick_1">
     <g id="line2d_1">
      <path clip-path="url(#pb7753d090c)" d="M 55.371477 276.3 
L 55.371477 38.941875 
" style="fill:none;stroke:#ffffff;stroke-linecap:round;"/>
     </g>
     <g id="text_1">
      <!-- 0 -->
      <g style="fill:#262626;" transform="translate(52.312962 293.673594)scale(0.11 -0.11)">
       <defs>
        <path d="M 4.15625 35.296875 
Q 4.15625 48 6.765625 55.734375 
Q 9.375 63.484375 14.515625 67.671875 
Q 19.671875 71.875 27.484375 71.875 
Q 33.25 71.875 37.59375 69.546875 
Q 41.9375 67.234375 44.765625 62.859375 
Q 47.609375 58.5 49.21875 52.21875 
Q 50.828125 45.953125 50.828125 35.296875 
Q 50.828125 22.703125 48.234375 14.96875 
Q 45.65625 7.234375 40.5 3 
Q 35.359375 -1.21875 27.484375 -1.21875 
Q 17.140625 -1.21875 11.234375 6.203125 
Q 4.15625 15.140625 4.15625 35.296875 
z
M 13.1875 35.296875 
Q 13.1875 17.671875 17.3125 11.828125 
Q 21.4375 6 27.484375 6 
Q 33.546875 6 37.671875 11.859375 
Q 41.796875 17.71875 41.796875 35.296875 
Q 41.796875 52.984375 37.671875 58.78125 
Q 33.546875 64.59375 27.390625 64.59375 
Q 21.34375 64.59375 17.71875 59.46875 
Q 13.1875 52.9375 13.1875 35.296875 
z
" id="ArialMT-48"/>
       </defs>
       <use xlink:href="#ArialMT-48"/>
      </g>
     </g>
    </g>
    <g id="xtick_2">
     <g id="line2d_2">
      <path clip-path="url(#pb7753d090c)" d="M 97.577386 276.3 
L 97.577386 38.941875 
" style="fill:none;stroke:#ffffff;stroke-linecap:round;"/>
     </g>
     <g id="text_2">
      <!-- 1 -->
      <g style="fill:#262626;" transform="translate(94.518871 293.673594)scale(0.11 -0.11)">
       <defs>
        <path d="M 37.25 0 
L 28.46875 0 
L 28.46875 56 
Q 25.296875 52.984375 20.140625 49.953125 
Q 14.984375 46.921875 10.890625 45.40625 
L 10.890625 53.90625 
Q 18.265625 57.375 23.78125 62.296875 
Q 29.296875 67.234375 31.59375 71.875 
L 37.25 71.875 
z
" id="ArialMT-49"/>
       </defs>
       <use xlink:href="#ArialMT-49"/>
      </g>
     </g>
    </g>
    <g id="xtick_3">
     <g id="line2d_3">
      <path clip-path="url(#pb7753d090c)" d="M 139.783295 276.3 
L 139.783295 38.941875 
" style="fill:none;stroke:#ffffff;stroke-linecap:round;"/>
     </g>
     <g id="text_3">
      <!-- 2 -->
      <g style="fill:#262626;" transform="translate(136.72478 293.673594)scale(0.11 -0.11)">
       <defs>
        <path d="M 50.34375 8.453125 
L 50.34375 0 
L 3.03125 0 
Q 2.9375 3.171875 4.046875 6.109375 
Q 5.859375 10.9375 9.828125 15.625 
Q 13.8125 20.3125 21.34375 26.46875 
Q 33.015625 36.03125 37.109375 41.625 
Q 41.21875 47.21875 41.21875 52.203125 
Q 41.21875 57.421875 37.46875 61 
Q 33.734375 64.59375 27.734375 64.59375 
Q 21.390625 64.59375 17.578125 60.78125 
Q 13.765625 56.984375 13.71875 50.25 
L 4.6875 51.171875 
Q 5.609375 61.28125 11.65625 66.578125 
Q 17.71875 71.875 27.9375 71.875 
Q 38.234375 71.875 44.234375 66.15625 
Q 50.25 60.453125 50.25 52 
Q 50.25 47.703125 48.484375 43.546875 
Q 46.734375 39.40625 42.65625 34.8125 
Q 38.578125 30.21875 29.109375 22.21875 
Q 21.1875 15.578125 18.9375 13.203125 
Q 16.703125 10.84375 15.234375 8.453125 
z
" id="ArialMT-50"/>
       </defs>
       <use xlink:href="#ArialMT-50"/>
      </g>
     </g>
    </g>
    <g id="xtick_4">
     <g id="line2d_4">
      <path clip-path="url(#pb7753d090c)" d="M 181.989205 276.3 
L 181.989205 38.941875 
" style="fill:none;stroke:#ffffff;stroke-linecap:round;"/>
     </g>
     <g id="text_4">
      <!-- 3 -->
      <g style="fill:#262626;" transform="translate(178.930689 293.673594)scale(0.11 -0.11)">
       <defs>
        <path d="M 4.203125 18.890625 
L 12.984375 20.0625 
Q 14.5 12.59375 18.140625 9.296875 
Q 21.78125 6 27 6 
Q 33.203125 6 37.46875 10.296875 
Q 41.75 14.59375 41.75 20.953125 
Q 41.75 27 37.796875 30.921875 
Q 33.84375 34.859375 27.734375 34.859375 
Q 25.25 34.859375 21.53125 33.890625 
L 22.515625 41.609375 
Q 23.390625 41.5 23.921875 41.5 
Q 29.546875 41.5 34.03125 44.421875 
Q 38.53125 47.359375 38.53125 53.46875 
Q 38.53125 58.296875 35.25 61.46875 
Q 31.984375 64.65625 26.8125 64.65625 
Q 21.6875 64.65625 18.265625 61.421875 
Q 14.84375 58.203125 13.875 51.765625 
L 5.078125 53.328125 
Q 6.6875 62.15625 12.390625 67.015625 
Q 18.109375 71.875 26.609375 71.875 
Q 32.46875 71.875 37.390625 69.359375 
Q 42.328125 66.84375 44.9375 62.5 
Q 47.5625 58.15625 47.5625 53.265625 
Q 47.5625 48.640625 45.0625 44.828125 
Q 42.578125 41.015625 37.703125 38.765625 
Q 44.046875 37.3125 47.5625 32.6875 
Q 51.078125 28.078125 51.078125 21.140625 
Q 51.078125 11.765625 44.234375 5.25 
Q 37.40625 -1.265625 26.953125 -1.265625 
Q 17.53125 -1.265625 11.296875 4.34375 
Q 5.078125 9.96875 4.203125 18.890625 
z
" id="ArialMT-51"/>
       </defs>
       <use xlink:href="#ArialMT-51"/>
      </g>
     </g>
    </g>
    <g id="xtick_5">
     <g id="line2d_5">
      <path clip-path="url(#pb7753d090c)" d="M 224.195114 276.3 
L 224.195114 38.941875 
" style="fill:none;stroke:#ffffff;stroke-linecap:round;"/>
     </g>
     <g id="text_5">
      <!-- 4 -->
      <g style="fill:#262626;" transform="translate(221.136598 293.673594)scale(0.11 -0.11)">
       <defs>
        <path d="M 32.328125 0 
L 32.328125 17.140625 
L 1.265625 17.140625 
L 1.265625 25.203125 
L 33.9375 71.578125 
L 41.109375 71.578125 
L 41.109375 25.203125 
L 50.78125 25.203125 
L 50.78125 17.140625 
L 41.109375 17.140625 
L 41.109375 0 
z
M 32.328125 25.203125 
L 32.328125 57.46875 
L 9.90625 25.203125 
z
" id="ArialMT-52"/>
       </defs>
       <use xlink:href="#ArialMT-52"/>
      </g>
     </g>
    </g>
    <g id="xtick_6">
     <g id="line2d_6">
      <path clip-path="url(#pb7753d090c)" d="M 266.401023 276.3 
L 266.401023 38.941875 
" style="fill:none;stroke:#ffffff;stroke-linecap:round;"/>
     </g>
     <g id="text_6">
      <!-- 5 -->
      <g style="fill:#262626;" transform="translate(263.342507 293.673594)scale(0.11 -0.11)">
       <defs>
        <path d="M 4.15625 18.75 
L 13.375 19.53125 
Q 14.40625 12.796875 18.140625 9.390625 
Q 21.875 6 27.15625 6 
Q 33.5 6 37.890625 10.78125 
Q 42.28125 15.578125 42.28125 23.484375 
Q 42.28125 31 38.0625 35.34375 
Q 33.84375 39.703125 27 39.703125 
Q 22.75 39.703125 19.328125 37.765625 
Q 15.921875 35.84375 13.96875 32.765625 
L 5.71875 33.84375 
L 12.640625 70.609375 
L 48.25 70.609375 
L 48.25 62.203125 
L 19.671875 62.203125 
L 15.828125 42.96875 
Q 22.265625 47.46875 29.34375 47.46875 
Q 38.71875 47.46875 45.15625 40.96875 
Q 51.609375 34.46875 51.609375 24.265625 
Q 51.609375 14.546875 45.953125 7.46875 
Q 39.0625 -1.21875 27.15625 -1.21875 
Q 17.390625 -1.21875 11.203125 4.25 
Q 5.03125 9.71875 4.15625 18.75 
z
" id="ArialMT-53"/>
       </defs>
       <use xlink:href="#ArialMT-53"/>
      </g>
     </g>
    </g>
    <g id="text_7">
     <!-- $r$ -->
     <g style="fill:#262626;" transform="translate(158.36625 308.449219)scale(0.12 -0.12)">
      <defs>
       <path d="M 44.578125 46.390625 
Q 43.21875 47.125 41.453125 47.515625 
Q 39.703125 47.90625 37.703125 47.90625 
Q 30.515625 47.90625 25.140625 42.453125 
Q 19.78125 37.015625 18.015625 27.875 
L 12.5 0 
L 3.515625 0 
L 14.203125 54.6875 
L 23.1875 54.6875 
L 21.484375 46.1875 
Q 25.046875 50.921875 30 53.453125 
Q 34.96875 56 40.578125 56 
Q 42.046875 56 43.453125 55.828125 
Q 44.875 55.671875 46.296875 55.28125 
z
" id="DejaVuSans-Oblique-114"/>
      </defs>
      <use xlink:href="#DejaVuSans-Oblique-114"/>
     </g>
    </g>
   </g>
   <g id="matplotlib.axis_2">
    <g id="ytick_1">
     <g id="line2d_7">
      <path clip-path="url(#pb7753d090c)" d="M 44.82 276.3 
L 276.9525 276.3 
" style="fill:none;stroke:#ffffff;stroke-linecap:round;"/>
     </g>
     <g id="text_8">
      <!-- 0 -->
      <g style="fill:#262626;" transform="translate(29.202969 280.236797)scale(0.11 -0.11)">
       <use xlink:href="#ArialMT-48"/>
      </g>
     </g>
    </g>
    <g id="ytick_2">
     <g id="line2d_8">
      <path clip-path="url(#pb7753d090c)" d="M 44.82 230.836353 
L 276.9525 230.836353 
" style="fill:none;stroke:#ffffff;stroke-linecap:round;"/>
     </g>
     <g id="text_9">
      <!-- 1 -->
      <g style="fill:#262626;" transform="translate(29.202969 234.77315)scale(0.11 -0.11)">
       <use xlink:href="#ArialMT-49"/>
      </g>
     </g>
    </g>
    <g id="ytick_3">
     <g id="line2d_9">
      <path clip-path="url(#pb7753d090c)" d="M 44.82 185.372706 
L 276.9525 185.372706 
" style="fill:none;stroke:#ffffff;stroke-linecap:round;"/>
     </g>
     <g id="text_10">
      <!-- 2 -->
      <g style="fill:#262626;" transform="translate(29.202969 189.309502)scale(0.11 -0.11)">
       <use xlink:href="#ArialMT-50"/>
      </g>
     </g>
    </g>
    <g id="ytick_4">
     <g id="line2d_10">
      <path clip-path="url(#pb7753d090c)" d="M 44.82 139.909058 
L 276.9525 139.909058 
" style="fill:none;stroke:#ffffff;stroke-linecap:round;"/>
     </g>
     <g id="text_11">
      <!-- 3 -->
      <g style="fill:#262626;" transform="translate(29.202969 143.845855)scale(0.11 -0.11)">
       <use xlink:href="#ArialMT-51"/>
      </g>
     </g>
    </g>
    <g id="ytick_5">
     <g id="line2d_11">
      <path clip-path="url(#pb7753d090c)" d="M 44.82 94.445411 
L 276.9525 94.445411 
" style="fill:none;stroke:#ffffff;stroke-linecap:round;"/>
     </g>
     <g id="text_12">
      <!-- 4 -->
      <g style="fill:#262626;" transform="translate(29.202969 98.382208)scale(0.11 -0.11)">
       <use xlink:href="#ArialMT-52"/>
      </g>
     </g>
    </g>
    <g id="ytick_6">
     <g id="line2d_12">
      <path clip-path="url(#pb7753d090c)" d="M 44.82 48.981764 
L 276.9525 48.981764 
" style="fill:none;stroke:#ffffff;stroke-linecap:round;"/>
     </g>
     <g id="text_13">
      <!-- 5 -->
      <g style="fill:#262626;" transform="translate(29.202969 52.918561)scale(0.11 -0.11)">
       <use xlink:href="#ArialMT-53"/>
      </g>
     </g>
    </g>
    <g id="text_14">
     <!-- $P(r)$ -->
     <g style="fill:#262626;" transform="translate(22.817969 168.420938)rotate(-90)scale(0.12 -0.12)">
      <defs>
       <path d="M 16.890625 72.90625 
L 39.703125 72.90625 
Q 49.65625 72.90625 54.875 68.265625 
Q 60.109375 63.625 60.109375 54.6875 
Q 60.109375 42.671875 52.390625 35.984375 
Q 44.671875 29.296875 30.71875 29.296875 
L 18.3125 29.296875 
L 12.59375 0 
L 2.6875 0 
z
M 25.203125 64.796875 
L 19.921875 37.40625 
L 32.328125 37.40625 
Q 40.71875 37.40625 45.203125 41.703125 
Q 49.703125 46 49.703125 54 
Q 49.703125 59.125 46.65625 61.953125 
Q 43.609375 64.796875 38.09375 64.796875 
z
" id="DejaVuSans-Oblique-80"/>
       <path d="M 31 75.875 
Q 24.46875 64.65625 21.28125 53.65625 
Q 18.109375 42.671875 18.109375 31.390625 
Q 18.109375 20.125 21.3125 9.0625 
Q 24.515625 -2 31 -13.1875 
L 23.1875 -13.1875 
Q 15.875 -1.703125 12.234375 9.375 
Q 8.59375 20.453125 8.59375 31.390625 
Q 8.59375 42.28125 12.203125 53.3125 
Q 15.828125 64.359375 23.1875 75.875 
z
" id="DejaVuSans-40"/>
       <path d="M 8.015625 75.875 
L 15.828125 75.875 
Q 23.140625 64.359375 26.78125 53.3125 
Q 30.421875 42.28125 30.421875 31.390625 
Q 30.421875 20.453125 26.78125 9.375 
Q 23.140625 -1.703125 15.828125 -13.1875 
L 8.015625 -13.1875 
Q 14.5 -2 17.703125 9.0625 
Q 20.90625 20.125 20.90625 31.390625 
Q 20.90625 42.671875 17.703125 53.65625 
Q 14.5 64.65625 8.015625 75.875 
z
" id="DejaVuSans-41"/>
      </defs>
      <use transform="translate(0 0.125)" xlink:href="#DejaVuSans-Oblique-80"/>
      <use transform="translate(60.302734 0.125)" xlink:href="#DejaVuSans-40"/>
      <use transform="translate(99.316406 0.125)" xlink:href="#DejaVuSans-Oblique-114"/>
      <use transform="translate(140.429688 0.125)" xlink:href="#DejaVuSans-41"/>
     </g>
    </g>
   </g>
   <g id="patch_3">
    <path clip-path="url(#pb7753d090c)" d="M 55.371477 276.3 
L 55.371477 50.244643 
L 57.481773 50.244643 
L 57.481773 192.002821 
L 59.592068 192.002821 
L 59.592068 218.523282 
L 61.702364 218.523282 
L 61.702364 241.255105 
L 63.812659 241.255105 
L 63.812659 243.623004 
L 65.922955 243.623004 
L 65.922955 235.887869 
L 68.03325 235.887869 
L 68.03325 250.410979 
L 70.143545 250.410979 
L 70.143545 256.883234 
L 72.253841 256.883234 
L 72.253841 252.305297 
L 74.364136 252.305297 
L 74.364136 255.304635 
L 76.474432 255.304635 
L 76.474432 265.249808 
L 80.695023 265.249808 
L 80.695023 268.407006 
L 82.805318 268.407006 
L 82.805318 249.463819 
L 84.915614 249.463819 
L 84.915614 262.56619 
L 87.025909 262.56619 
L 87.025909 267.775566 
L 89.136205 267.775566 
L 89.136205 270.459184 
L 91.2465 270.459184 
L 91.2465 252.305297 
L 93.356795 252.305297 
L 93.356795 271.879923 
L 95.467091 271.879923 
L 95.467091 271.406344 
L 97.577386 271.406344 
L 97.577386 270.143464 
L 99.687682 270.143464 
L 99.687682 271.879923 
L 101.797977 271.879923 
L 101.797977 273.458522 
L 103.908273 273.458522 
L 103.908273 267.933426 
L 106.018568 267.933426 
L 106.018568 274.405681 
L 108.128864 274.405681 
L 108.128864 270.932764 
L 110.239159 270.932764 
L 110.239159 273.142802 
L 112.349455 273.142802 
L 112.349455 267.775566 
L 114.45975 267.775566 
L 114.45975 267.933426 
L 116.570045 267.933426 
L 116.570045 272.984942 
L 118.680341 272.984942 
L 118.680341 272.195643 
L 120.790636 272.195643 
L 120.790636 272.037783 
L 122.900932 272.037783 
L 122.900932 272.827083 
L 125.011227 272.827083 
L 125.011227 274.563541 
L 127.121523 274.563541 
L 127.121523 269.827745 
L 129.231818 269.827745 
L 129.231818 269.985605 
L 131.342114 269.985605 
L 131.342114 275.352841 
L 133.452409 275.352841 
L 133.452409 264.144789 
L 135.562705 264.144789 
L 135.562705 274.563541 
L 137.673 274.563541 
L 137.673 274.405681 
L 139.783295 274.405681 
L 139.783295 270.932764 
L 141.893591 270.932764 
L 141.893591 275.352841 
L 144.003886 275.352841 
L 144.003886 273.932102 
L 146.114182 273.932102 
L 146.114182 273.774242 
L 148.224477 273.774242 
L 148.224477 274.721401 
L 150.334773 274.721401 
L 150.334773 269.985605 
L 152.445068 269.985605 
L 152.445068 274.405681 
L 154.555364 274.405681 
L 154.555364 275.66856 
L 156.665659 275.66856 
L 156.665659 273.774242 
L 158.775955 273.774242 
L 158.775955 274.405681 
L 160.88625 274.405681 
L 160.88625 266.196967 
L 162.996545 266.196967 
L 162.996545 270.143464 
L 165.106841 270.143464 
L 165.106841 274.405681 
L 167.217136 274.405681 
L 167.217136 274.879261 
L 169.327432 274.879261 
L 169.327432 275.352841 
L 171.437727 275.352841 
L 171.437727 274.405681 
L 173.548023 274.405681 
L 173.548023 276.14214 
L 175.658318 276.14214 
L 175.658318 275.82642 
L 177.768614 275.82642 
L 177.768614 273.300662 
L 179.878909 273.300662 
L 179.878909 240.623666 
L 181.989205 240.623666 
L 181.989205 274.563541 
L 184.0995 274.563541 
L 184.0995 274.089962 
L 186.209795 274.089962 
L 186.209795 275.98428 
L 188.320091 275.98428 
L 188.320091 275.82642 
L 190.430386 275.82642 
L 190.430386 275.66856 
L 192.540682 275.66856 
L 192.540682 274.247821 
L 194.650977 274.247821 
L 194.650977 276.14214 
L 198.871568 276.14214 
L 198.871568 272.511363 
L 200.981864 272.511363 
L 200.981864 274.405681 
L 203.092159 274.405681 
L 203.092159 275.66856 
L 205.202455 275.66856 
L 205.202455 274.405681 
L 207.31275 274.405681 
L 207.31275 275.352841 
L 209.423045 275.352841 
L 209.423045 274.405681 
L 211.533341 274.405681 
L 211.533341 276.14214 
L 213.643636 276.14214 
L 213.643636 275.82642 
L 215.753932 275.82642 
L 215.753932 275.194981 
L 217.864227 275.194981 
L 217.864227 275.98428 
L 219.974523 275.98428 
L 219.974523 275.510701 
L 222.084818 275.510701 
L 222.084818 276.3 
L 224.195114 276.3 
L 224.195114 275.98428 
L 226.305409 275.98428 
L 226.305409 276.3 
L 228.415705 276.3 
L 228.415705 275.82642 
L 230.526 275.82642 
L 230.526 275.194981 
L 232.636295 275.194981 
L 232.636295 274.563541 
L 234.746591 274.563541 
L 234.746591 275.352841 
L 236.856886 275.352841 
L 236.856886 275.66856 
L 238.967182 275.66856 
L 238.967182 276.3 
L 241.077477 276.3 
L 241.077477 275.352841 
L 243.187773 275.352841 
L 243.187773 275.037121 
L 245.298068 275.037121 
L 245.298068 275.352841 
L 247.408364 275.352841 
L 247.408364 273.616382 
L 249.518659 273.616382 
L 249.518659 275.66856 
L 251.628955 275.66856 
L 251.628955 272.511363 
L 253.73925 272.511363 
L 253.73925 275.037121 
L 255.849545 275.037121 
L 255.849545 275.194981 
L 257.959841 275.194981 
L 257.959841 276.3 
L 260.070136 276.3 
L 260.070136 275.66856 
L 262.180432 275.66856 
L 262.180432 275.510701 
L 264.290727 275.510701 
L 264.290727 275.98428 
L 266.401023 275.98428 
L 266.401023 276.3 
L 266.401023 276.3 
" style="fill:none;stroke:#4c72b0;stroke-linejoin:miter;"/>
   </g>
   <g id="line2d_13">
    <path clip-path="url(#pb7753d090c)" d="M 55.371477 230.836353 
L 57.503089 235.102773 
L 59.6347 238.795648 
L 61.766312 242.013357 
L 63.897924 244.834058 
L 66.029535 247.320473 
L 68.161147 249.523412 
L 70.292758 251.484384 
L 72.42437 253.23757 
L 74.555981 254.811323 
L 76.687593 256.229318 
L 78.819205 257.511452 
L 80.950816 258.674542 
L 83.082428 259.732882 
L 85.214039 260.698683 
L 87.345651 261.582428 
L 89.477262 262.393155 
L 91.608874 263.138693 
L 93.740486 263.825847 
L 95.872097 264.460559 
L 98.003709 265.048031 
L 100.13532 265.592839 
L 102.266932 266.099015 
L 104.398543 266.570128 
L 106.530155 267.009343 
L 108.661767 267.419475 
L 110.793378 267.803038 
L 112.92499 268.162276 
L 115.056601 268.499205 
L 117.188213 268.815634 
L 119.319824 269.113193 
L 121.451436 269.393353 
L 123.583048 269.657445 
L 125.714659 269.906675 
L 127.846271 270.142136 
L 129.977882 270.364825 
L 132.109494 270.575649 
L 134.241105 270.775436 
L 136.372717 270.964944 
L 138.504329 271.144865 
L 140.63594 271.315836 
L 142.767552 271.478441 
L 144.899163 271.633216 
L 147.030775 271.780656 
L 149.162386 271.921218 
L 151.293998 272.055323 
L 153.42561 272.18336 
L 155.557221 272.30569 
L 157.688833 272.422648 
L 159.820444 272.534542 
L 161.952056 272.641662 
L 164.083667 272.744275 
L 166.215279 272.842631 
L 168.34689 272.936961 
L 170.478502 273.027483 
L 172.610114 273.114398 
L 174.741725 273.197897 
L 176.873337 273.278155 
L 179.004948 273.355338 
L 181.13656 273.429601 
L 183.268171 273.50109 
L 185.399783 273.569942 
L 187.531395 273.636283 
L 189.663006 273.700236 
L 191.794618 273.761912 
L 193.926229 273.82142 
L 196.057841 273.878859 
L 198.189452 273.934324 
L 200.321064 273.987905 
L 202.452676 274.039686 
L 204.584287 274.089747 
L 206.715899 274.138163 
L 208.84751 274.185005 
L 210.979122 274.230341 
L 213.110733 274.274235 
L 215.242345 274.316748 
L 217.373957 274.357936 
L 219.505568 274.397854 
L 221.63718 274.436553 
L 223.768791 274.474084 
L 225.900403 274.510492 
L 228.032014 274.545822 
L 230.163626 274.580116 
L 232.295238 274.613414 
L 234.426849 274.645755 
L 236.558461 274.677174 
L 238.690072 274.707706 
L 240.821684 274.737384 
L 242.953295 274.766241 
L 245.084907 274.794306 
L 247.216519 274.821607 
L 249.34813 274.848172 
L 251.479742 274.874028 
L 253.611353 274.899199 
L 255.742965 274.923709 
L 257.874576 274.947582 
L 260.006188 274.970839 
L 262.1378 274.993501 
L 264.269411 275.015589 
L 266.401023 275.037121 
" style="fill:none;stroke:#dd8452;stroke-linecap:round;stroke-width:1.5;"/>
   </g>
   <g id="line2d_14">
    <path clip-path="url(#pb7753d090c)" d="M 55.371477 276.3 
L 57.503089 275.138122 
L 59.6347 272.182602 
L 61.766312 268.179536 
L 63.897924 263.755222 
L 66.029535 259.38505 
L 68.161147 255.394448 
L 70.292758 251.978347 
L 72.42437 249.228491 
L 74.555981 247.161544 
L 76.687593 245.744016 
L 78.819205 244.91238 
L 80.950816 244.588128 
L 83.082428 244.688302 
L 85.214039 245.132359 
L 87.345651 245.846233 
L 89.477262 246.764411 
L 91.608874 247.830646 
L 93.740486 248.997815 
L 95.872097 250.227273 
L 98.003709 251.487947 
L 100.13532 252.755334 
L 102.266932 254.01051 
L 104.398543 255.239199 
L 106.530155 256.430941 
L 108.661767 257.578366 
L 110.793378 258.676571 
L 112.92499 259.7226 
L 115.056601 260.715011 
L 117.188213 261.653524 
L 119.319824 262.538733 
L 121.451436 263.371876 
L 123.583048 264.154653 
L 125.714659 264.889078 
L 127.846271 265.577372 
L 129.977882 266.221868 
L 132.109494 266.824954 
L 134.241105 267.389011 
L 136.372717 267.916386 
L 138.504329 268.40936 
L 140.63594 268.870129 
L 142.767552 269.300794 
L 144.899163 269.703352 
L 147.030775 270.079692 
L 149.162386 270.431593 
L 151.293998 270.760726 
L 153.42561 271.068657 
L 155.557221 271.35685 
L 157.688833 271.626671 
L 159.820444 271.87939 
L 161.952056 272.116193 
L 164.083667 272.33818 
L 166.215279 272.546373 
L 168.34689 272.741723 
L 170.478502 272.92511 
L 172.610114 273.097352 
L 174.741725 273.259207 
L 176.873337 273.411379 
L 179.004948 273.55452 
L 181.13656 273.689235 
L 183.268171 273.816085 
L 185.399783 273.935592 
L 187.531395 274.048238 
L 189.663006 274.154472 
L 191.794618 274.254709 
L 193.926229 274.349338 
L 196.057841 274.438716 
L 198.189452 274.523179 
L 200.321064 274.603035 
L 202.452676 274.678574 
L 204.584287 274.750065 
L 206.715899 274.817757 
L 208.84751 274.881883 
L 210.979122 274.94266 
L 213.110733 275.00029 
L 215.242345 275.054962 
L 217.373957 275.106852 
L 219.505568 275.156123 
L 221.63718 275.202928 
L 223.768791 275.247412 
L 225.900403 275.289708 
L 228.032014 275.329941 
L 230.163626 275.368227 
L 232.295238 275.404678 
L 234.426849 275.439394 
L 236.558461 275.472473 
L 238.690072 275.504005 
L 240.821684 275.534073 
L 242.953295 275.562758 
L 245.084907 275.590133 
L 247.216519 275.616269 
L 249.34813 275.64123 
L 251.479742 275.66508 
L 253.611353 275.687875 
L 255.742965 275.709671 
L 257.874576 275.730519 
L 260.006188 275.750466 
L 262.1378 275.76956 
L 264.269411 275.787842 
L 266.401023 275.805353 
" style="fill:none;stroke:#55a868;stroke-linecap:round;stroke-width:1.5;"/>
   </g>
   <g id="line2d_15">
    <path clip-path="url(#pb7753d090c)" d="M 55.371477 276.3 
L 57.503089 269.146105 
L 59.6347 263.190059 
L 61.766312 258.391587 
L 63.897924 254.662193 
L 66.029535 251.885553 
L 68.161147 249.933415 
L 70.292758 248.677016 
L 72.42437 247.994574 
L 74.555981 247.775637 
L 76.687593 247.923148 
L 78.819205 248.353897 
L 80.950816 248.997985 
L 83.082428 249.797692 
L 85.214039 250.706075 
L 87.345651 251.685494 
L 89.477262 252.706174 
L 91.608874 253.744891 
L 93.740486 254.783808 
L 95.872097 255.809464 
L 98.003709 256.811921 
L 100.13532 257.784047 
L 102.266932 258.720928 
L 104.398543 259.619387 
L 106.530155 260.477592 
L 108.661767 261.294743 
L 110.793378 262.070819 
L 112.92499 262.80638 
L 115.056601 263.50241 
L 117.188213 264.160191 
L 119.319824 264.781207 
L 121.451436 265.367073 
L 123.583048 265.919473 
L 125.714659 266.440121 
L 127.846271 266.930723 
L 129.977882 267.392959 
L 132.109494 267.828462 
L 134.241105 268.238808 
L 136.372717 268.625505 
L 138.504329 268.989993 
L 140.63594 269.333637 
L 142.767552 269.657727 
L 144.899163 269.963481 
L 147.030775 270.252045 
L 149.162386 270.524496 
L 151.293998 270.78184 
L 153.42561 271.025025 
L 155.557221 271.254934 
L 157.688833 271.472393 
L 159.820444 271.678177 
L 161.952056 271.873005 
L 164.083667 272.057552 
L 166.215279 272.232448 
L 168.34689 272.39828 
L 170.478502 272.555595 
L 172.610114 272.704906 
L 174.741725 272.84669 
L 176.873337 272.981394 
L 179.004948 273.109435 
L 181.13656 273.231201 
L 183.268171 273.347058 
L 185.399783 273.457344 
L 187.531395 273.562378 
L 189.663006 273.662458 
L 191.794618 273.757863 
L 193.926229 273.848852 
L 196.057841 273.93567 
L 198.189452 274.018545 
L 200.321064 274.097693 
L 202.452676 274.173315 
L 204.584287 274.245598 
L 206.715899 274.31472 
L 208.84751 274.380848 
L 210.979122 274.444138 
L 213.110733 274.504736 
L 215.242345 274.56278 
L 217.373957 274.618401 
L 219.505568 274.671721 
L 221.63718 274.722855 
L 223.768791 274.771911 
L 225.900403 274.818992 
L 228.032014 274.864194 
L 230.163626 274.907608 
L 232.295238 274.94932 
L 234.426849 274.989411 
L 236.558461 275.027957 
L 238.690072 275.065031 
L 240.821684 275.100701 
L 242.953295 275.135032 
L 245.084907 275.168084 
L 247.216519 275.199917 
L 249.34813 275.230585 
L 251.479742 275.26014 
L 253.611353 275.28863 
L 255.742965 275.316104 
L 257.874576 275.342605 
L 260.006188 275.368175 
L 262.1378 275.392854 
L 264.269411 275.41668 
L 266.401023 275.43969 
" style="fill:none;stroke:#c44e52;stroke-linecap:round;stroke-width:1.5;"/>
   </g>
   <g id="line2d_16">
    <path clip-path="url(#pb7753d090c)" d="M 55.371477 276.3 
L 57.503089 276.274793 
L 59.6347 275.96597 
L 61.766312 274.926759 
L 63.897924 272.831985 
L 66.029535 269.622147 
L 68.161147 265.490749 
L 70.292758 260.791971 
L 72.42437 255.933497 
L 74.555981 251.291582 
L 76.687593 247.160715 
L 78.819205 243.734995 
L 80.950816 241.111986 
L 83.082428 239.309128 
L 85.214039 238.284866 
L 87.345651 237.959364 
L 89.477262 238.232124 
L 91.608874 238.995478 
L 93.740486 240.14404 
L 95.872097 241.580678 
L 98.003709 243.219769 
L 100.13532 244.988496 
L 102.266932 246.82682 
L 104.398543 248.686648 
L 106.530155 250.530546 
L 108.661767 252.330287 
L 110.793378 254.065371 
L 112.92499 255.721638 
L 115.056601 257.290023 
L 117.188213 258.765468 
L 119.319824 260.14601 
L 121.451436 261.432015 
L 123.583048 262.62556 
L 125.714659 263.729936 
L 127.846271 264.749253 
L 129.977882 265.688137 
L 132.109494 266.551496 
L 134.241105 267.344339 
L 136.372717 268.071651 
L 138.504329 268.738296 
L 140.63594 269.348955 
L 142.767552 269.90808 
L 144.899163 270.41987 
L 147.030775 270.888257 
L 149.162386 271.316903 
L 151.293998 271.709198 
L 153.42561 272.068278 
L 155.557221 272.397023 
L 157.688833 272.698081 
L 159.820444 272.973877 
L 161.952056 273.226626 
L 164.083667 273.458355 
L 166.215279 273.670909 
L 168.34689 273.865973 
L 170.478502 274.045077 
L 172.610114 274.209618 
L 174.741725 274.360866 
L 176.873337 274.499974 
L 179.004948 274.627993 
L 181.13656 274.745878 
L 183.268171 274.854499 
L 185.399783 274.954644 
L 187.531395 275.047034 
L 189.663006 275.132323 
L 191.794618 275.211106 
L 193.926229 275.283926 
L 196.057841 275.351276 
L 198.189452 275.413607 
L 200.321064 275.47133 
L 202.452676 275.524819 
L 204.584287 275.574415 
L 206.715899 275.620431 
L 208.84751 275.663152 
L 210.979122 275.702837 
L 213.110733 275.739726 
L 215.242345 275.774035 
L 217.373957 275.805966 
L 219.505568 275.835699 
L 221.63718 275.863404 
L 223.768791 275.889232 
L 225.900403 275.913326 
L 228.032014 275.935815 
L 230.163626 275.956817 
L 232.295238 275.976442 
L 234.426849 275.994791 
L 236.558461 276.011955 
L 238.690072 276.02802 
L 240.821684 276.043064 
L 242.953295 276.05716 
L 245.084907 276.070374 
L 247.216519 276.082768 
L 249.34813 276.094398 
L 251.479742 276.105318 
L 253.611353 276.115576 
L 255.742965 276.125216 
L 257.874576 276.13428 
L 260.006188 276.142807 
L 262.1378 276.150833 
L 264.269411 276.15839 
L 266.401023 276.165508 
" style="fill:none;stroke:#8172b3;stroke-linecap:round;stroke-width:1.5;"/>
   </g>
   <g id="patch_4">
    <path d="M 44.82 276.3 
L 44.82 38.941875 
" style="fill:none;stroke:#ffffff;stroke-linecap:square;stroke-linejoin:miter;stroke-width:1.25;"/>
   </g>
   <g id="patch_5">
    <path d="M 276.9525 276.3 
L 276.9525 38.941875 
" style="fill:none;stroke:#ffffff;stroke-linecap:square;stroke-linejoin:miter;stroke-width:1.25;"/>
   </g>
   <g id="patch_6">
    <path d="M 44.82 276.3 
L 276.9525 276.3 
" style="fill:none;stroke:#ffffff;stroke-linecap:square;stroke-linejoin:miter;stroke-width:1.25;"/>
   </g>
   <g id="patch_7">
    <path d="M 44.82 38.941875 
L 276.9525 38.941875 
" style="fill:none;stroke:#ffffff;stroke-linecap:square;stroke-linejoin:miter;stroke-width:1.25;"/>
   </g>
   <g id="legend_1">
    <g id="patch_8">
     <path d="M 182.079219 125.541094 
L 269.2525 125.541094 
Q 271.4525 125.541094 271.4525 123.341094 
L 271.4525 46.641875 
Q 271.4525 44.441875 269.2525 44.441875 
L 182.079219 44.441875 
Q 179.879219 44.441875 179.879219 46.641875 
L 179.879219 123.341094 
Q 179.879219 125.541094 182.079219 125.541094 
z
" style="fill:#eaeaf2;opacity:0.8;stroke:#cccccc;stroke-linejoin:miter;"/>
    </g>
    <g id="line2d_17">
     <path d="M 184.279219 52.865469 
L 206.279219 52.865469 
" style="fill:none;stroke:#dd8452;stroke-linecap:round;stroke-width:1.5;"/>
    </g>
    <g id="line2d_18"/>
    <g id="text_15">
     <!-- Poisson -->
     <g style="fill:#262626;" transform="translate(215.079219 56.715469)scale(0.11 -0.11)">
      <defs>
       <path d="M 7.71875 0 
L 7.71875 71.578125 
L 34.71875 71.578125 
Q 41.84375 71.578125 45.609375 70.90625 
Q 50.875 70.015625 54.4375 67.546875 
Q 58.015625 65.09375 60.1875 60.640625 
Q 62.359375 56.203125 62.359375 50.875 
Q 62.359375 41.75 56.546875 35.421875 
Q 50.734375 29.109375 35.546875 29.109375 
L 17.1875 29.109375 
L 17.1875 0 
z
M 17.1875 37.546875 
L 35.6875 37.546875 
Q 44.875 37.546875 48.734375 40.96875 
Q 52.59375 44.390625 52.59375 50.59375 
Q 52.59375 55.078125 50.3125 58.265625 
Q 48.046875 61.46875 44.34375 62.5 
Q 41.9375 63.140625 35.5 63.140625 
L 17.1875 63.140625 
z
" id="ArialMT-80"/>
       <path d="M 3.328125 25.921875 
Q 3.328125 40.328125 11.328125 47.265625 
Q 18.015625 53.03125 27.640625 53.03125 
Q 38.328125 53.03125 45.109375 46.015625 
Q 51.90625 39.015625 51.90625 26.65625 
Q 51.90625 16.65625 48.90625 10.90625 
Q 45.90625 5.171875 40.15625 2 
Q 34.421875 -1.171875 27.640625 -1.171875 
Q 16.75 -1.171875 10.03125 5.8125 
Q 3.328125 12.796875 3.328125 25.921875 
z
M 12.359375 25.921875 
Q 12.359375 15.96875 16.703125 11.015625 
Q 21.046875 6.0625 27.640625 6.0625 
Q 34.1875 6.0625 38.53125 11.03125 
Q 42.875 16.015625 42.875 26.21875 
Q 42.875 35.84375 38.5 40.796875 
Q 34.125 45.75 27.640625 45.75 
Q 21.046875 45.75 16.703125 40.8125 
Q 12.359375 35.890625 12.359375 25.921875 
z
" id="ArialMT-111"/>
       <path d="M 6.640625 61.46875 
L 6.640625 71.578125 
L 15.4375 71.578125 
L 15.4375 61.46875 
z
M 6.640625 0 
L 6.640625 51.859375 
L 15.4375 51.859375 
L 15.4375 0 
z
" id="ArialMT-105"/>
       <path d="M 3.078125 15.484375 
L 11.765625 16.84375 
Q 12.5 11.625 15.84375 8.84375 
Q 19.1875 6.0625 25.203125 6.0625 
Q 31.25 6.0625 34.171875 8.515625 
Q 37.109375 10.984375 37.109375 14.3125 
Q 37.109375 17.28125 34.515625 19 
Q 32.71875 20.171875 25.53125 21.96875 
Q 15.875 24.421875 12.140625 26.203125 
Q 8.40625 27.984375 6.46875 31.125 
Q 4.546875 34.28125 4.546875 38.09375 
Q 4.546875 41.546875 6.125 44.5 
Q 7.71875 47.46875 10.453125 49.421875 
Q 12.5 50.921875 16.03125 51.96875 
Q 19.578125 53.03125 23.640625 53.03125 
Q 29.734375 53.03125 34.34375 51.265625 
Q 38.96875 49.515625 41.15625 46.5 
Q 43.359375 43.5 44.1875 38.484375 
L 35.59375 37.3125 
Q 35.015625 41.3125 32.203125 43.546875 
Q 29.390625 45.796875 24.265625 45.796875 
Q 18.21875 45.796875 15.625 43.796875 
Q 13.03125 41.796875 13.03125 39.109375 
Q 13.03125 37.40625 14.109375 36.03125 
Q 15.1875 34.625 17.484375 33.6875 
Q 18.796875 33.203125 25.25 31.453125 
Q 34.578125 28.953125 38.25 27.359375 
Q 41.9375 25.78125 44.03125 22.75 
Q 46.140625 19.734375 46.140625 15.234375 
Q 46.140625 10.84375 43.578125 6.953125 
Q 41.015625 3.078125 36.171875 0.953125 
Q 31.34375 -1.171875 25.25 -1.171875 
Q 15.140625 -1.171875 9.84375 3.03125 
Q 4.546875 7.234375 3.078125 15.484375 
z
" id="ArialMT-115"/>
       <path d="M 6.59375 0 
L 6.59375 51.859375 
L 14.5 51.859375 
L 14.5 44.484375 
Q 20.21875 53.03125 31 53.03125 
Q 35.6875 53.03125 39.625 51.34375 
Q 43.5625 49.65625 45.515625 46.921875 
Q 47.46875 44.1875 48.25 40.4375 
Q 48.734375 37.984375 48.734375 31.890625 
L 48.734375 0 
L 39.9375 0 
L 39.9375 31.546875 
Q 39.9375 36.921875 38.90625 39.578125 
Q 37.890625 42.234375 35.28125 43.8125 
Q 32.671875 45.40625 29.15625 45.40625 
Q 23.53125 45.40625 19.453125 41.84375 
Q 15.375 38.28125 15.375 28.328125 
L 15.375 0 
z
" id="ArialMT-110"/>
      </defs>
      <use xlink:href="#ArialMT-80"/>
      <use x="66.699219" xlink:href="#ArialMT-111"/>
      <use x="122.314453" xlink:href="#ArialMT-105"/>
      <use x="144.53125" xlink:href="#ArialMT-115"/>
      <use x="194.53125" xlink:href="#ArialMT-115"/>
      <use x="244.53125" xlink:href="#ArialMT-111"/>
      <use x="300.146484" xlink:href="#ArialMT-110"/>
     </g>
    </g>
    <g id="line2d_19">
     <path d="M 184.279219 68.425313 
L 206.279219 68.425313 
" style="fill:none;stroke:#55a868;stroke-linecap:round;stroke-width:1.5;"/>
    </g>
    <g id="line2d_20"/>
    <g id="text_16">
     <!-- CUE -->
     <g style="fill:#262626;" transform="translate(215.079219 72.275313)scale(0.11 -0.11)">
      <defs>
       <path d="M 58.796875 25.09375 
L 68.265625 22.703125 
Q 65.28125 11.03125 57.546875 4.90625 
Q 49.8125 -1.21875 38.625 -1.21875 
Q 27.046875 -1.21875 19.796875 3.484375 
Q 12.546875 8.203125 8.765625 17.140625 
Q 4.984375 26.078125 4.984375 36.328125 
Q 4.984375 47.515625 9.25 55.828125 
Q 13.53125 64.15625 21.40625 68.46875 
Q 29.296875 72.796875 38.765625 72.796875 
Q 49.515625 72.796875 56.828125 67.328125 
Q 64.15625 61.859375 67.046875 51.953125 
L 57.71875 49.75 
Q 55.21875 57.5625 50.484375 61.125 
Q 45.75 64.703125 38.578125 64.703125 
Q 30.328125 64.703125 24.78125 60.734375 
Q 19.234375 56.78125 16.984375 50.109375 
Q 14.75 43.453125 14.75 36.375 
Q 14.75 27.25 17.40625 20.4375 
Q 20.0625 13.625 25.671875 10.25 
Q 31.296875 6.890625 37.84375 6.890625 
Q 45.796875 6.890625 51.3125 11.46875 
Q 56.84375 16.0625 58.796875 25.09375 
z
" id="ArialMT-67"/>
       <path d="M 54.6875 71.578125 
L 64.15625 71.578125 
L 64.15625 30.21875 
Q 64.15625 19.4375 61.71875 13.078125 
Q 59.28125 6.734375 52.90625 2.75 
Q 46.53125 -1.21875 36.1875 -1.21875 
Q 26.125 -1.21875 19.71875 2.25 
Q 13.328125 5.71875 10.59375 12.28125 
Q 7.859375 18.84375 7.859375 30.21875 
L 7.859375 71.578125 
L 17.328125 71.578125 
L 17.328125 30.28125 
Q 17.328125 20.953125 19.0625 16.53125 
Q 20.796875 12.109375 25.015625 9.71875 
Q 29.25 7.328125 35.359375 7.328125 
Q 45.796875 7.328125 50.234375 12.0625 
Q 54.6875 16.796875 54.6875 30.28125 
z
" id="ArialMT-85"/>
       <path d="M 7.90625 0 
L 7.90625 71.578125 
L 59.671875 71.578125 
L 59.671875 63.140625 
L 17.390625 63.140625 
L 17.390625 41.21875 
L 56.984375 41.21875 
L 56.984375 32.8125 
L 17.390625 32.8125 
L 17.390625 8.453125 
L 61.328125 8.453125 
L 61.328125 0 
z
" id="ArialMT-69"/>
      </defs>
      <use xlink:href="#ArialMT-67"/>
      <use x="72.216797" xlink:href="#ArialMT-85"/>
      <use x="144.433594" xlink:href="#ArialMT-69"/>
     </g>
    </g>
    <g id="line2d_21">
     <path d="M 184.279219 83.985156 
L 206.279219 83.985156 
" style="fill:none;stroke:#c44e52;stroke-linecap:round;stroke-width:1.5;"/>
    </g>
    <g id="line2d_22"/>
    <g id="text_17">
     <!-- COE -->
     <g style="fill:#262626;" transform="translate(215.079219 87.835156)scale(0.11 -0.11)">
      <defs>
       <path d="M 4.828125 34.859375 
Q 4.828125 52.6875 14.390625 62.765625 
Q 23.96875 72.859375 39.109375 72.859375 
Q 49.03125 72.859375 56.984375 68.109375 
Q 64.9375 63.375 69.109375 54.90625 
Q 73.296875 46.4375 73.296875 35.6875 
Q 73.296875 24.8125 68.890625 16.21875 
Q 64.5 7.625 56.4375 3.203125 
Q 48.390625 -1.21875 39.0625 -1.21875 
Q 28.953125 -1.21875 20.984375 3.65625 
Q 13.03125 8.546875 8.921875 16.984375 
Q 4.828125 25.4375 4.828125 34.859375 
z
M 14.59375 34.71875 
Q 14.59375 21.78125 21.546875 14.328125 
Q 28.515625 6.890625 39.015625 6.890625 
Q 49.703125 6.890625 56.609375 14.40625 
Q 63.53125 21.921875 63.53125 35.75 
Q 63.53125 44.484375 60.578125 51 
Q 57.625 57.515625 51.921875 61.109375 
Q 46.234375 64.703125 39.15625 64.703125 
Q 29.109375 64.703125 21.84375 57.78125 
Q 14.59375 50.875 14.59375 34.71875 
z
" id="ArialMT-79"/>
      </defs>
      <use xlink:href="#ArialMT-67"/>
      <use x="72.216797" xlink:href="#ArialMT-79"/>
      <use x="150" xlink:href="#ArialMT-69"/>
     </g>
    </g>
    <g id="line2d_23">
     <path d="M 184.279219 99.545 
L 206.279219 99.545 
" style="fill:none;stroke:#8172b3;stroke-linecap:round;stroke-width:1.5;"/>
    </g>
    <g id="line2d_24"/>
    <g id="text_18">
     <!-- CSE -->
     <g style="fill:#262626;" transform="translate(215.079219 103.395)scale(0.11 -0.11)">
      <defs>
       <path d="M 4.5 23 
L 13.421875 23.78125 
Q 14.0625 18.40625 16.375 14.96875 
Q 18.703125 11.53125 23.578125 9.40625 
Q 28.46875 7.28125 34.578125 7.28125 
Q 39.984375 7.28125 44.140625 8.890625 
Q 48.296875 10.5 50.3125 13.296875 
Q 52.34375 16.109375 52.34375 19.4375 
Q 52.34375 22.796875 50.390625 25.3125 
Q 48.4375 27.828125 43.953125 29.546875 
Q 41.0625 30.671875 31.203125 33.03125 
Q 21.34375 35.40625 17.390625 37.5 
Q 12.25 40.1875 9.734375 44.15625 
Q 7.234375 48.140625 7.234375 53.078125 
Q 7.234375 58.5 10.296875 63.203125 
Q 13.375 67.921875 19.28125 70.359375 
Q 25.203125 72.796875 32.421875 72.796875 
Q 40.375 72.796875 46.453125 70.234375 
Q 52.546875 67.671875 55.8125 62.6875 
Q 59.078125 57.71875 59.328125 51.421875 
L 50.25 50.734375 
Q 49.515625 57.515625 45.28125 60.984375 
Q 41.0625 64.453125 32.8125 64.453125 
Q 24.21875 64.453125 20.28125 61.296875 
Q 16.359375 58.15625 16.359375 53.71875 
Q 16.359375 49.859375 19.140625 47.359375 
Q 21.875 44.875 33.421875 42.265625 
Q 44.96875 39.65625 49.265625 37.703125 
Q 55.515625 34.8125 58.484375 30.390625 
Q 61.46875 25.984375 61.46875 20.21875 
Q 61.46875 14.5 58.203125 9.4375 
Q 54.9375 4.390625 48.796875 1.578125 
Q 42.671875 -1.21875 35.015625 -1.21875 
Q 25.296875 -1.21875 18.71875 1.609375 
Q 12.15625 4.4375 8.421875 10.125 
Q 4.6875 15.828125 4.5 23 
z
" id="ArialMT-83"/>
      </defs>
      <use xlink:href="#ArialMT-67"/>
      <use x="72.216797" xlink:href="#ArialMT-83"/>
      <use x="138.916016" xlink:href="#ArialMT-69"/>
     </g>
    </g>
    <g id="patch_9">
     <path d="M 184.279219 118.954844 
L 206.279219 118.954844 
L 206.279219 111.254844 
L 184.279219 111.254844 
z
" style="fill:none;stroke:#4c72b0;stroke-linejoin:miter;"/>
    </g>
    <g id="text_19">
     <!-- Calculated -->
     <g style="fill:#262626;" transform="translate(215.079219 118.954844)scale(0.11 -0.11)">
      <defs>
       <path d="M 40.4375 6.390625 
Q 35.546875 2.25 31.03125 0.53125 
Q 26.515625 -1.171875 21.34375 -1.171875 
Q 12.796875 -1.171875 8.203125 3 
Q 3.609375 7.171875 3.609375 13.671875 
Q 3.609375 17.484375 5.34375 20.625 
Q 7.078125 23.78125 9.890625 25.6875 
Q 12.703125 27.59375 16.21875 28.5625 
Q 18.796875 29.25 24.03125 29.890625 
Q 34.671875 31.15625 39.703125 32.90625 
Q 39.75 34.71875 39.75 35.203125 
Q 39.75 40.578125 37.25 42.78125 
Q 33.890625 45.75 27.25 45.75 
Q 21.046875 45.75 18.09375 43.578125 
Q 15.140625 41.40625 13.71875 35.890625 
L 5.125 37.0625 
Q 6.296875 42.578125 8.984375 45.96875 
Q 11.671875 49.359375 16.75 51.1875 
Q 21.828125 53.03125 28.515625 53.03125 
Q 35.15625 53.03125 39.296875 51.46875 
Q 43.453125 49.90625 45.40625 47.53125 
Q 47.359375 45.171875 48.140625 41.546875 
Q 48.578125 39.3125 48.578125 33.453125 
L 48.578125 21.734375 
Q 48.578125 9.46875 49.140625 6.21875 
Q 49.703125 2.984375 51.375 0 
L 42.1875 0 
Q 40.828125 2.734375 40.4375 6.390625 
z
M 39.703125 26.03125 
Q 34.90625 24.078125 25.34375 22.703125 
Q 19.921875 21.921875 17.671875 20.9375 
Q 15.4375 19.96875 14.203125 18.09375 
Q 12.984375 16.21875 12.984375 13.921875 
Q 12.984375 10.40625 15.640625 8.0625 
Q 18.3125 5.71875 23.4375 5.71875 
Q 28.515625 5.71875 32.46875 7.9375 
Q 36.421875 10.15625 38.28125 14.015625 
Q 39.703125 17 39.703125 22.796875 
z
" id="ArialMT-97"/>
       <path d="M 6.390625 0 
L 6.390625 71.578125 
L 15.1875 71.578125 
L 15.1875 0 
z
" id="ArialMT-108"/>
       <path d="M 40.4375 19 
L 49.078125 17.875 
Q 47.65625 8.9375 41.8125 3.875 
Q 35.984375 -1.171875 27.484375 -1.171875 
Q 16.84375 -1.171875 10.375 5.78125 
Q 3.90625 12.75 3.90625 25.734375 
Q 3.90625 34.125 6.6875 40.421875 
Q 9.46875 46.734375 15.15625 49.875 
Q 20.84375 53.03125 27.546875 53.03125 
Q 35.984375 53.03125 41.359375 48.75 
Q 46.734375 44.484375 48.25 36.625 
L 39.703125 35.296875 
Q 38.484375 40.53125 35.375 43.15625 
Q 32.28125 45.796875 27.875 45.796875 
Q 21.234375 45.796875 17.078125 41.03125 
Q 12.9375 36.28125 12.9375 25.984375 
Q 12.9375 15.53125 16.9375 10.796875 
Q 20.953125 6.0625 27.390625 6.0625 
Q 32.5625 6.0625 36.03125 9.234375 
Q 39.5 12.40625 40.4375 19 
z
" id="ArialMT-99"/>
       <path d="M 40.578125 0 
L 40.578125 7.625 
Q 34.515625 -1.171875 24.125 -1.171875 
Q 19.53125 -1.171875 15.546875 0.578125 
Q 11.578125 2.34375 9.640625 5 
Q 7.71875 7.671875 6.9375 11.53125 
Q 6.390625 14.109375 6.390625 19.734375 
L 6.390625 51.859375 
L 15.1875 51.859375 
L 15.1875 23.09375 
Q 15.1875 16.21875 15.71875 13.8125 
Q 16.546875 10.359375 19.234375 8.375 
Q 21.921875 6.390625 25.875 6.390625 
Q 29.828125 6.390625 33.296875 8.421875 
Q 36.765625 10.453125 38.203125 13.9375 
Q 39.65625 17.4375 39.65625 24.078125 
L 39.65625 51.859375 
L 48.4375 51.859375 
L 48.4375 0 
z
" id="ArialMT-117"/>
       <path d="M 25.78125 7.859375 
L 27.046875 0.09375 
Q 23.34375 -0.6875 20.40625 -0.6875 
Q 15.625 -0.6875 12.984375 0.828125 
Q 10.359375 2.34375 9.28125 4.8125 
Q 8.203125 7.28125 8.203125 15.1875 
L 8.203125 45.015625 
L 1.765625 45.015625 
L 1.765625 51.859375 
L 8.203125 51.859375 
L 8.203125 64.703125 
L 16.9375 69.96875 
L 16.9375 51.859375 
L 25.78125 51.859375 
L 25.78125 45.015625 
L 16.9375 45.015625 
L 16.9375 14.703125 
Q 16.9375 10.9375 17.40625 9.859375 
Q 17.875 8.796875 18.921875 8.15625 
Q 19.96875 7.515625 21.921875 7.515625 
Q 23.390625 7.515625 25.78125 7.859375 
z
" id="ArialMT-116"/>
       <path d="M 42.09375 16.703125 
L 51.171875 15.578125 
Q 49.03125 7.625 43.21875 3.21875 
Q 37.40625 -1.171875 28.375 -1.171875 
Q 17 -1.171875 10.328125 5.828125 
Q 3.65625 12.84375 3.65625 25.484375 
Q 3.65625 38.578125 10.390625 45.796875 
Q 17.140625 53.03125 27.875 53.03125 
Q 38.28125 53.03125 44.875 45.953125 
Q 51.46875 38.875 51.46875 26.03125 
Q 51.46875 25.25 51.421875 23.6875 
L 12.75 23.6875 
Q 13.234375 15.140625 17.578125 10.59375 
Q 21.921875 6.0625 28.421875 6.0625 
Q 33.25 6.0625 36.671875 8.59375 
Q 40.09375 11.140625 42.09375 16.703125 
z
M 13.234375 30.90625 
L 42.1875 30.90625 
Q 41.609375 37.453125 38.875 40.71875 
Q 34.671875 45.796875 27.984375 45.796875 
Q 21.921875 45.796875 17.796875 41.75 
Q 13.671875 37.703125 13.234375 30.90625 
z
" id="ArialMT-101"/>
       <path d="M 40.234375 0 
L 40.234375 6.546875 
Q 35.296875 -1.171875 25.734375 -1.171875 
Q 19.53125 -1.171875 14.328125 2.25 
Q 9.125 5.671875 6.265625 11.796875 
Q 3.421875 17.921875 3.421875 25.875 
Q 3.421875 33.640625 6 39.96875 
Q 8.59375 46.296875 13.765625 49.65625 
Q 18.953125 53.03125 25.34375 53.03125 
Q 30.03125 53.03125 33.6875 51.046875 
Q 37.359375 49.078125 39.65625 45.90625 
L 39.65625 71.578125 
L 48.390625 71.578125 
L 48.390625 0 
z
M 12.453125 25.875 
Q 12.453125 15.921875 16.640625 10.984375 
Q 20.84375 6.0625 26.5625 6.0625 
Q 32.328125 6.0625 36.34375 10.765625 
Q 40.375 15.484375 40.375 25.140625 
Q 40.375 35.796875 36.265625 40.765625 
Q 32.171875 45.75 26.171875 45.75 
Q 20.3125 45.75 16.375 40.96875 
Q 12.453125 36.1875 12.453125 25.875 
z
" id="ArialMT-100"/>
      </defs>
      <use xlink:href="#ArialMT-67"/>
      <use x="72.216797" xlink:href="#ArialMT-97"/>
      <use x="127.832031" xlink:href="#ArialMT-108"/>
      <use x="150.048828" xlink:href="#ArialMT-99"/>
      <use x="200.048828" xlink:href="#ArialMT-117"/>
      <use x="255.664062" xlink:href="#ArialMT-108"/>
      <use x="277.880859" xlink:href="#ArialMT-97"/>
      <use x="333.496094" xlink:href="#ArialMT-116"/>
      <use x="361.279297" xlink:href="#ArialMT-101"/>
      <use x="416.894531" xlink:href="#ArialMT-100"/>
     </g>
    </g>
   </g>
  </g>
  <g id="axes_2">
   <g id="patch_10">
    <path d="M 330.9075 276.3 
L 563.04 276.3 
L 563.04 38.941875 
L 330.9075 38.941875 
z
" style="fill:#eaeaf2;"/>
   </g>
   <g id="matplotlib.axis_3">
    <g id="xtick_7">
     <g id="line2d_25">
      <path clip-path="url(#p02813d2ab7)" d="M 341.458977 276.3 
L 341.458977 38.941875 
" style="fill:none;stroke:#ffffff;stroke-linecap:round;"/>
     </g>
     <g id="text_20">
      <!-- 0 -->
      <g style="fill:#262626;" transform="translate(338.400462 293.673594)scale(0.11 -0.11)">
       <use xlink:href="#ArialMT-48"/>
      </g>
     </g>
    </g>
    <g id="xtick_8">
     <g id="line2d_26">
      <path clip-path="url(#p02813d2ab7)" d="M 383.664886 276.3 
L 383.664886 38.941875 
" style="fill:none;stroke:#ffffff;stroke-linecap:round;"/>
     </g>
     <g id="text_21">
      <!-- 1 -->
      <g style="fill:#262626;" transform="translate(380.606371 293.673594)scale(0.11 -0.11)">
       <use xlink:href="#ArialMT-49"/>
      </g>
     </g>
    </g>
    <g id="xtick_9">
     <g id="line2d_27">
      <path clip-path="url(#p02813d2ab7)" d="M 425.870795 276.3 
L 425.870795 38.941875 
" style="fill:none;stroke:#ffffff;stroke-linecap:round;"/>
     </g>
     <g id="text_22">
      <!-- 2 -->
      <g style="fill:#262626;" transform="translate(422.81228 293.673594)scale(0.11 -0.11)">
       <use xlink:href="#ArialMT-50"/>
      </g>
     </g>
    </g>
    <g id="xtick_10">
     <g id="line2d_28">
      <path clip-path="url(#p02813d2ab7)" d="M 468.076705 276.3 
L 468.076705 38.941875 
" style="fill:none;stroke:#ffffff;stroke-linecap:round;"/>
     </g>
     <g id="text_23">
      <!-- 3 -->
      <g style="fill:#262626;" transform="translate(465.018189 293.673594)scale(0.11 -0.11)">
       <use xlink:href="#ArialMT-51"/>
      </g>
     </g>
    </g>
    <g id="xtick_11">
     <g id="line2d_29">
      <path clip-path="url(#p02813d2ab7)" d="M 510.282614 276.3 
L 510.282614 38.941875 
" style="fill:none;stroke:#ffffff;stroke-linecap:round;"/>
     </g>
     <g id="text_24">
      <!-- 4 -->
      <g style="fill:#262626;" transform="translate(507.224098 293.673594)scale(0.11 -0.11)">
       <use xlink:href="#ArialMT-52"/>
      </g>
     </g>
    </g>
    <g id="xtick_12">
     <g id="line2d_30">
      <path clip-path="url(#p02813d2ab7)" d="M 552.488523 276.3 
L 552.488523 38.941875 
" style="fill:none;stroke:#ffffff;stroke-linecap:round;"/>
     </g>
     <g id="text_25">
      <!-- 5 -->
      <g style="fill:#262626;" transform="translate(549.430007 293.673594)scale(0.11 -0.11)">
       <use xlink:href="#ArialMT-53"/>
      </g>
     </g>
    </g>
    <g id="text_26">
     <!-- $s$ -->
     <g style="fill:#262626;" transform="translate(443.79375 308.449219)scale(0.12 -0.12)">
      <defs>
       <path d="M 50 53.078125 
L 48.296875 44.578125 
Q 44.734375 46.53125 40.765625 47.5 
Q 36.8125 48.484375 32.625 48.484375 
Q 25.53125 48.484375 21.453125 46.0625 
Q 17.390625 43.65625 17.390625 39.5 
Q 17.390625 34.671875 26.859375 32.078125 
Q 27.59375 31.890625 27.9375 31.78125 
L 30.8125 30.90625 
Q 39.796875 28.421875 42.796875 25.6875 
Q 45.796875 22.953125 45.796875 18.21875 
Q 45.796875 9.515625 38.890625 4.046875 
Q 31.984375 -1.421875 20.796875 -1.421875 
Q 16.453125 -1.421875 11.671875 -0.578125 
Q 6.890625 0.25 1.125 2 
L 2.875 11.28125 
Q 7.8125 8.734375 12.59375 7.421875 
Q 17.390625 6.109375 21.78125 6.109375 
Q 28.375 6.109375 32.5 8.9375 
Q 36.625 11.765625 36.625 16.109375 
Q 36.625 20.796875 25.78125 23.6875 
L 24.859375 23.921875 
L 21.78125 24.703125 
Q 14.9375 26.515625 11.765625 29.46875 
Q 8.59375 32.421875 8.59375 37.015625 
Q 8.59375 45.75 15.15625 50.875 
Q 21.734375 56 33.015625 56 
Q 37.453125 56 41.671875 55.265625 
Q 45.90625 54.546875 50 53.078125 
z
" id="DejaVuSans-Oblique-115"/>
      </defs>
      <use xlink:href="#DejaVuSans-Oblique-115"/>
     </g>
    </g>
   </g>
   <g id="matplotlib.axis_4">
    <g id="ytick_7">
     <g id="line2d_31">
      <path clip-path="url(#p02813d2ab7)" d="M 330.9075 276.3 
L 563.04 276.3 
" style="fill:none;stroke:#ffffff;stroke-linecap:round;"/>
     </g>
     <g id="text_27">
      <!-- 0.0 -->
      <g style="fill:#262626;" transform="translate(306.1175 280.236797)scale(0.11 -0.11)">
       <defs>
        <path d="M 9.078125 0 
L 9.078125 10.015625 
L 19.09375 10.015625 
L 19.09375 0 
z
" id="ArialMT-46"/>
       </defs>
       <use xlink:href="#ArialMT-48"/>
       <use x="55.615234" xlink:href="#ArialMT-46"/>
       <use x="83.398438" xlink:href="#ArialMT-48"/>
      </g>
     </g>
    </g>
    <g id="ytick_8">
     <g id="line2d_32">
      <path clip-path="url(#p02813d2ab7)" d="M 330.9075 244.49635 
L 563.04 244.49635 
" style="fill:none;stroke:#ffffff;stroke-linecap:round;"/>
     </g>
     <g id="text_28">
      <!-- 0.5 -->
      <g style="fill:#262626;" transform="translate(306.1175 248.433147)scale(0.11 -0.11)">
       <use xlink:href="#ArialMT-48"/>
       <use x="55.615234" xlink:href="#ArialMT-46"/>
       <use x="83.398438" xlink:href="#ArialMT-53"/>
      </g>
     </g>
    </g>
    <g id="ytick_9">
     <g id="line2d_33">
      <path clip-path="url(#p02813d2ab7)" d="M 330.9075 212.6927 
L 563.04 212.6927 
" style="fill:none;stroke:#ffffff;stroke-linecap:round;"/>
     </g>
     <g id="text_29">
      <!-- 1.0 -->
      <g style="fill:#262626;" transform="translate(306.1175 216.629496)scale(0.11 -0.11)">
       <use xlink:href="#ArialMT-49"/>
       <use x="55.615234" xlink:href="#ArialMT-46"/>
       <use x="83.398438" xlink:href="#ArialMT-48"/>
      </g>
     </g>
    </g>
    <g id="ytick_10">
     <g id="line2d_34">
      <path clip-path="url(#p02813d2ab7)" d="M 330.9075 180.889049 
L 563.04 180.889049 
" style="fill:none;stroke:#ffffff;stroke-linecap:round;"/>
     </g>
     <g id="text_30">
      <!-- 1.5 -->
      <g style="fill:#262626;" transform="translate(306.1175 184.825846)scale(0.11 -0.11)">
       <use xlink:href="#ArialMT-49"/>
       <use x="55.615234" xlink:href="#ArialMT-46"/>
       <use x="83.398438" xlink:href="#ArialMT-53"/>
      </g>
     </g>
    </g>
    <g id="ytick_11">
     <g id="line2d_35">
      <path clip-path="url(#p02813d2ab7)" d="M 330.9075 149.085399 
L 563.04 149.085399 
" style="fill:none;stroke:#ffffff;stroke-linecap:round;"/>
     </g>
     <g id="text_31">
      <!-- 2.0 -->
      <g style="fill:#262626;" transform="translate(306.1175 153.022196)scale(0.11 -0.11)">
       <use xlink:href="#ArialMT-50"/>
       <use x="55.615234" xlink:href="#ArialMT-46"/>
       <use x="83.398438" xlink:href="#ArialMT-48"/>
      </g>
     </g>
    </g>
    <g id="ytick_12">
     <g id="line2d_36">
      <path clip-path="url(#p02813d2ab7)" d="M 330.9075 117.281749 
L 563.04 117.281749 
" style="fill:none;stroke:#ffffff;stroke-linecap:round;"/>
     </g>
     <g id="text_32">
      <!-- 2.5 -->
      <g style="fill:#262626;" transform="translate(306.1175 121.218546)scale(0.11 -0.11)">
       <use xlink:href="#ArialMT-50"/>
       <use x="55.615234" xlink:href="#ArialMT-46"/>
       <use x="83.398438" xlink:href="#ArialMT-53"/>
      </g>
     </g>
    </g>
    <g id="ytick_13">
     <g id="line2d_37">
      <path clip-path="url(#p02813d2ab7)" d="M 330.9075 85.478099 
L 563.04 85.478099 
" style="fill:none;stroke:#ffffff;stroke-linecap:round;"/>
     </g>
     <g id="text_33">
      <!-- 3.0 -->
      <g style="fill:#262626;" transform="translate(306.1175 89.414895)scale(0.11 -0.11)">
       <use xlink:href="#ArialMT-51"/>
       <use x="55.615234" xlink:href="#ArialMT-46"/>
       <use x="83.398438" xlink:href="#ArialMT-48"/>
      </g>
     </g>
    </g>
    <g id="ytick_14">
     <g id="line2d_38">
      <path clip-path="url(#p02813d2ab7)" d="M 330.9075 53.674448 
L 563.04 53.674448 
" style="fill:none;stroke:#ffffff;stroke-linecap:round;"/>
     </g>
     <g id="text_34">
      <!-- 3.5 -->
      <g style="fill:#262626;" transform="translate(306.1175 57.611245)scale(0.11 -0.11)">
       <use xlink:href="#ArialMT-51"/>
       <use x="55.615234" xlink:href="#ArialMT-46"/>
       <use x="83.398438" xlink:href="#ArialMT-53"/>
      </g>
     </g>
    </g>
    <g id="text_35">
     <!-- $P(s)$ -->
     <g style="fill:#262626;" transform="translate(299.7325 169.080938)rotate(-90)scale(0.12 -0.12)">
      <use transform="translate(0 0.125)" xlink:href="#DejaVuSans-Oblique-80"/>
      <use transform="translate(60.302734 0.125)" xlink:href="#DejaVuSans-40"/>
      <use transform="translate(99.316406 0.125)" xlink:href="#DejaVuSans-Oblique-115"/>
      <use transform="translate(151.416016 0.125)" xlink:href="#DejaVuSans-41"/>
     </g>
    </g>
   </g>
   <g id="patch_11">
    <path clip-path="url(#p02813d2ab7)" d="M 341.458977 276.3 
L 341.458977 50.244643 
L 343.569273 50.244643 
L 343.569273 164.831324 
L 345.679568 164.831324 
L 345.679568 255.409367 
L 347.789864 255.409367 
L 347.789864 122.894158 
L 349.900159 122.894158 
L 349.900159 252.291362 
L 352.010455 252.291362 
L 352.010455 261.021776 
L 354.12075 261.021776 
L 354.12075 264.295681 
L 356.231045 264.295681 
L 356.231045 249.485158 
L 358.341341 249.485158 
L 358.341341 255.253467 
L 360.451636 255.253467 
L 360.451636 266.166484 
L 362.561932 266.166484 
L 362.561932 209.730595 
L 364.672227 209.730595 
L 364.672227 265.386983 
L 366.782523 265.386983 
L 366.782523 261.645377 
L 368.892818 261.645377 
L 368.892818 264.607482 
L 371.003114 264.607482 
L 371.003114 259.150973 
L 373.113409 259.150973 
L 373.113409 255.565267 
L 375.223705 255.565267 
L 375.223705 246.523053 
L 377.334 246.523053 
L 377.334 237.792639 
L 379.444295 237.792639 
L 379.444295 260.086374 
L 381.554591 260.086374 
L 381.554591 266.322384 
L 383.664886 266.322384 
L 383.664886 253.538564 
L 385.775182 253.538564 
L 385.775182 238.728041 
L 387.885477 238.728041 
L 387.885477 255.253467 
L 389.995773 255.253467 
L 389.995773 264.295681 
L 392.106068 264.295681 
L 392.106068 246.990754 
L 394.216364 246.990754 
L 394.216364 271.622993 
L 396.326659 271.622993 
L 396.326659 252.447262 
L 398.436955 252.447262 
L 398.436955 274.117397 
L 400.54725 274.117397 
L 400.54725 268.816788 
L 402.657545 268.816788 
L 402.657545 272.870195 
L 404.767841 272.870195 
L 404.767841 271.155292 
L 406.878136 271.155292 
L 406.878136 273.026095 
L 408.988432 273.026095 
L 408.988432 258.371472 
L 411.098727 258.371472 
L 411.098727 273.805596 
L 413.209023 273.805596 
L 413.209023 264.763382 
L 415.319318 264.763382 
L 415.319318 248.549756 
L 417.429614 248.549756 
L 417.429614 246.678953 
L 419.539909 246.678953 
L 419.539909 272.714294 
L 421.650205 272.714294 
L 421.650205 274.273297 
L 423.7605 274.273297 
L 423.7605 272.246594 
L 425.870795 272.246594 
L 425.870795 275.364599 
L 427.981091 275.364599 
L 427.981091 273.805596 
L 430.091386 273.805596 
L 430.091386 272.246594 
L 432.201682 272.246594 
L 432.201682 270.843491 
L 434.311977 270.843491 
L 434.311977 272.246594 
L 436.422273 272.246594 
L 436.422273 273.026095 
L 438.532568 273.026095 
L 438.532568 270.999392 
L 440.642864 270.999392 
L 440.642864 270.687591 
L 442.753159 270.687591 
L 442.753159 274.896898 
L 444.863455 274.896898 
L 444.863455 275.520499 
L 446.97375 275.520499 
L 446.97375 274.585097 
L 449.084045 274.585097 
L 449.084045 272.558394 
L 451.194341 272.558394 
L 451.194341 274.117397 
L 453.304636 274.117397 
L 453.304636 256.812469 
L 455.414932 256.812469 
L 455.414932 275.364599 
L 457.525227 275.364599 
L 457.525227 274.585097 
L 459.635523 274.585097 
L 459.635523 273.337895 
L 461.745818 273.337895 
L 461.745818 273.649696 
L 463.856114 273.649696 
L 463.856114 269.284489 
L 465.966409 269.284489 
L 465.966409 275.364599 
L 468.076705 275.364599 
L 468.076705 276.3 
L 470.187 276.3 
L 470.187 273.805596 
L 472.297295 273.805596 
L 472.297295 274.117397 
L 474.407591 274.117397 
L 474.407591 258.059671 
L 476.517886 258.059671 
L 476.517886 275.520499 
L 478.628182 275.520499 
L 478.628182 276.1441 
L 480.738477 276.1441 
L 480.738477 274.429197 
L 482.848773 274.429197 
L 482.848773 274.740998 
L 484.959068 274.740998 
L 484.959068 275.520499 
L 487.069364 275.520499 
L 487.069364 275.052798 
L 489.179659 275.052798 
L 489.179659 276.3 
L 491.289955 276.3 
L 491.289955 276.1441 
L 495.510545 276.1441 
L 495.510545 267.569586 
L 497.620841 267.569586 
L 497.620841 276.3 
L 499.731136 276.3 
L 499.731136 274.117397 
L 501.841432 274.117397 
L 501.841432 274.273297 
L 503.951727 274.273297 
L 503.951727 275.208698 
L 506.062023 275.208698 
L 506.062023 275.9882 
L 508.172318 275.9882 
L 508.172318 276.1441 
L 510.282614 276.1441 
L 510.282614 275.052798 
L 512.392909 275.052798 
L 512.392909 274.896898 
L 514.503205 274.896898 
L 514.503205 274.273297 
L 516.6135 274.273297 
L 516.6135 272.558394 
L 518.723795 272.558394 
L 518.723795 276.3 
L 520.834091 276.3 
L 520.834091 275.9882 
L 522.944386 275.9882 
L 522.944386 276.1441 
L 525.054682 276.1441 
L 525.054682 275.676399 
L 527.164977 275.676399 
L 527.164977 275.208698 
L 529.275273 275.208698 
L 529.275273 275.676399 
L 533.495864 275.676399 
L 533.495864 276.1441 
L 535.606159 276.1441 
L 535.606159 276.3 
L 537.716455 276.3 
L 537.716455 275.9882 
L 539.82675 275.9882 
L 539.82675 273.805596 
L 541.937045 273.805596 
L 541.937045 275.9882 
L 544.047341 275.9882 
L 544.047341 276.3 
L 546.157636 276.3 
L 546.157636 275.676399 
L 548.267932 275.676399 
L 548.267932 272.090693 
L 550.378227 272.090693 
L 550.378227 273.961496 
L 552.488523 273.961496 
L 552.488523 276.3 
L 552.488523 276.3 
" style="fill:none;stroke:#4c72b0;stroke-linejoin:miter;"/>
   </g>
   <g id="line2d_39">
    <path clip-path="url(#p02813d2ab7)" d="M 341.458977 212.6927 
L 343.590589 215.825415 
L 345.7222 218.803841 
L 347.853812 221.635577 
L 349.985424 224.327847 
L 352.117035 226.887521 
L 354.248647 229.321129 
L 356.380258 231.634879 
L 358.51187 233.834676 
L 360.643481 235.92613 
L 362.775093 237.914578 
L 364.906705 239.805094 
L 367.038316 241.6025 
L 369.169928 243.311382 
L 371.301539 244.9361 
L 373.433151 246.4808 
L 375.564762 247.949421 
L 377.696374 249.345712 
L 379.827986 250.673234 
L 381.959597 251.935375 
L 384.091209 253.135354 
L 386.22282 254.276233 
L 388.354432 255.360923 
L 390.486043 256.392191 
L 392.617655 257.372668 
L 394.749267 258.304855 
L 396.880878 259.191132 
L 399.01249 260.033758 
L 401.144101 260.834885 
L 403.275713 261.596555 
L 405.407324 262.320713 
L 407.538936 263.009205 
L 409.670548 263.663788 
L 411.802159 264.286133 
L 413.933771 264.877826 
L 416.065382 265.440378 
L 418.196994 265.975224 
L 420.328605 266.483728 
L 422.460217 266.967188 
L 424.591829 267.426837 
L 426.72344 267.863848 
L 428.855052 268.279336 
L 430.986663 268.674361 
L 433.118275 269.04993 
L 435.249886 269.407003 
L 437.381498 269.746489 
L 439.51311 270.069255 
L 441.644721 270.376125 
L 443.776333 270.667881 
L 445.907944 270.945267 
L 448.039556 271.208993 
L 450.171167 271.459729 
L 452.302779 271.698117 
L 454.43439 271.924764 
L 456.566002 272.140248 
L 458.697614 272.345119 
L 460.829225 272.5399 
L 462.960837 272.725089 
L 465.092448 272.901156 
L 467.22406 273.068552 
L 469.355671 273.227704 
L 471.487283 273.379017 
L 473.618895 273.522878 
L 475.750506 273.659654 
L 477.882118 273.789693 
L 480.013729 273.913328 
L 482.145341 274.030874 
L 484.276952 274.14263 
L 486.408564 274.248882 
L 488.540176 274.349902 
L 490.671787 274.445946 
L 492.803399 274.53726 
L 494.93501 274.624076 
L 497.066622 274.706617 
L 499.198233 274.785092 
L 501.329845 274.859703 
L 503.461457 274.930639 
L 505.593068 274.998081 
L 507.72468 275.062202 
L 509.856291 275.123164 
L 511.987903 275.181124 
L 514.119514 275.23623 
L 516.251126 275.288622 
L 518.382738 275.338433 
L 520.514349 275.385791 
L 522.645961 275.430817 
L 524.777572 275.473625 
L 526.909184 275.514324 
L 529.040795 275.553019 
L 531.172407 275.589809 
L 533.304019 275.624786 
L 535.43563 275.658041 
L 537.567242 275.689658 
L 539.698853 275.719718 
L 541.830465 275.748298 
L 543.962076 275.775469 
L 546.093688 275.801303 
L 548.2253 275.825864 
L 550.356911 275.849216 
L 552.488523 275.871417 
" style="fill:none;stroke:#dd8452;stroke-linecap:round;stroke-width:1.5;"/>
   </g>
   <g id="line2d_40">
    <path clip-path="url(#p02813d2ab7)" d="M 341.458977 276.3 
L 343.590589 275.775656 
L 345.7222 274.22296 
L 347.853812 271.701935 
L 349.985424 268.309402 
L 352.117035 264.174349 
L 354.248647 259.451844 
L 356.380258 254.315842 
L 358.51187 248.951301 
L 360.643481 243.546048 
L 362.775093 238.282833 
L 364.906705 233.33199 
L 367.038316 228.845048 
L 369.169928 224.949582 
L 371.301539 221.745492 
L 373.433151 219.30281 
L 375.564762 217.661035 
L 377.696374 216.829903 
L 379.827986 216.791454 
L 381.959597 217.503142 
L 384.091209 218.901763 
L 386.22282 220.907897 
L 388.354432 223.430599 
L 390.486043 226.372074 
L 392.617655 229.632105 
L 394.749267 233.11204 
L 396.880878 236.718216 
L 399.01249 240.364702 
L 401.144101 243.975345 
L 403.275713 247.485107 
L 405.407324 250.840741 
L 407.538936 254.00087 
L 409.670548 256.935564 
L 411.802159 259.625525 
L 413.933771 262.060964 
L 416.065382 264.240304 
L 418.196994 266.168777 
L 420.328605 267.857016 
L 422.460217 269.319695 
L 424.591829 270.574279 
L 426.72344 271.639916 
L 428.855052 272.536487 
L 430.986663 273.283834 
L 433.118275 273.901148 
L 435.249886 274.406519 
L 437.381498 274.816632 
L 439.51311 275.146582 
L 441.644721 275.409789 
L 443.776333 275.617999 
L 445.907944 275.781345 
L 448.039556 275.908447 
L 450.171167 276.006551 
L 452.302779 276.081666 
L 454.43439 276.138725 
L 456.566002 276.181728 
L 458.697614 276.213885 
L 460.829225 276.237746 
L 462.960837 276.255315 
L 465.092448 276.268154 
L 467.22406 276.277464 
L 469.355671 276.284164 
L 471.487283 276.288951 
L 473.618895 276.292345 
L 475.750506 276.294733 
L 477.882118 276.296402 
L 480.013729 276.297559 
L 482.145341 276.298355 
L 484.276952 276.2989 
L 486.408564 276.299269 
L 488.540176 276.299518 
L 490.671787 276.299684 
L 492.803399 276.299794 
L 494.93501 276.299867 
L 497.066622 276.299915 
L 499.198233 276.299946 
L 501.329845 276.299966 
L 503.461457 276.299978 
L 505.593068 276.299986 
L 507.72468 276.299992 
L 509.856291 276.299995 
L 511.987903 276.299997 
L 514.119514 276.299998 
L 516.251126 276.299999 
L 518.382738 276.299999 
L 520.514349 276.3 
L 522.645961 276.3 
L 524.777572 276.3 
L 526.909184 276.3 
L 529.040795 276.3 
L 531.172407 276.3 
L 533.304019 276.3 
L 535.43563 276.3 
L 537.567242 276.3 
L 539.698853 276.3 
L 541.830465 276.3 
L 543.962076 276.3 
L 546.093688 276.3 
L 548.2253 276.3 
L 550.356911 276.3 
L 552.488523 276.3 
" style="fill:none;stroke:#55a868;stroke-linecap:round;stroke-width:1.5;"/>
   </g>
   <g id="line2d_41">
    <path clip-path="url(#p02813d2ab7)" d="M 341.458977 276.3 
L 343.590589 271.263932 
L 345.7222 266.288216 
L 347.853812 261.432003 
L 349.985424 256.752066 
L 352.117035 252.301703 
L 354.248647 248.129722 
L 356.380258 244.279561 
L 358.51187 240.788543 
L 360.643481 237.6873 
L 362.775093 234.999365 
L 364.906705 232.740952 
L 367.038316 230.920907 
L 369.169928 229.540841 
L 371.301539 228.595424 
L 373.433151 228.072823 
L 375.564762 227.955281 
L 377.696374 228.21979 
L 379.827986 228.838855 
L 381.959597 229.781308 
L 384.091209 231.013165 
L 386.22282 232.498473 
L 388.354432 234.200153 
L 390.486043 236.080797 
L 392.617655 238.103413 
L 394.749267 240.232096 
L 396.880878 242.432609 
L 399.01249 244.672887 
L 401.144101 246.923428 
L 403.275713 249.157598 
L 405.407324 251.351834 
L 407.538936 253.485757 
L 409.670548 255.542204 
L 411.802159 257.507177 
L 413.933771 259.369737 
L 416.065382 261.12183 
L 418.196994 262.758075 
L 420.328605 264.275528 
L 422.460217 265.673403 
L 424.591829 266.952802 
L 426.72344 268.116428 
L 428.855052 269.168304 
L 430.986663 270.113512 
L 433.118275 270.957935 
L 435.249886 271.70803 
L 437.381498 272.370615 
L 439.51311 272.952694 
L 441.644721 273.461291 
L 443.776333 273.903323 
L 445.907944 274.285489 
L 448.039556 274.61419 
L 450.171167 274.895461 
L 452.302779 275.13493 
L 454.43439 275.337791 
L 456.566002 275.50879 
L 458.697614 275.652223 
L 460.829225 275.77195 
L 462.960837 275.871405 
L 465.092448 275.953627 
L 467.22406 276.021277 
L 469.355671 276.076676 
L 471.487283 276.121828 
L 473.618895 276.158458 
L 475.750506 276.188036 
L 477.882118 276.21181 
L 480.013729 276.23083 
L 482.145341 276.245978 
L 484.276952 276.257987 
L 486.408564 276.267464 
L 488.540176 276.27491 
L 490.671787 276.280733 
L 492.803399 276.285267 
L 494.93501 276.288781 
L 497.066622 276.291493 
L 499.198233 276.293576 
L 501.329845 276.295169 
L 503.461457 276.296383 
L 505.593068 276.297303 
L 507.72468 276.297997 
L 509.856291 276.298519 
L 511.987903 276.298909 
L 514.119514 276.2992 
L 516.251126 276.299416 
L 518.382738 276.299575 
L 520.514349 276.299692 
L 522.645961 276.299778 
L 524.777572 276.299841 
L 526.909184 276.299886 
L 529.040795 276.299919 
L 531.172407 276.299942 
L 533.304019 276.299959 
L 535.43563 276.299971 
L 537.567242 276.29998 
L 539.698853 276.299986 
L 541.830465 276.29999 
L 543.962076 276.299993 
L 546.093688 276.299995 
L 548.2253 276.299997 
L 550.356911 276.299998 
L 552.488523 276.299999 
" style="fill:none;stroke:#c44e52;stroke-linecap:round;stroke-width:1.5;"/>
   </g>
   <g id="line2d_42">
    <path clip-path="url(#p02813d2ab7)" d="M 341.458977 276.3 
L 343.590589 276.295228 
L 345.7222 276.224959 
L 347.853812 275.930915 
L 349.985424 275.179714 
L 352.117035 273.703422 
L 354.248647 271.247063 
L 356.380258 267.615727 
L 358.51187 262.714091 
L 360.643481 256.572537 
L 362.775093 249.356213 
L 364.906705 241.356065 
L 367.038316 232.963535 
L 369.169928 224.632872 
L 371.301539 216.836501 
L 373.433151 210.019502 
L 375.564762 204.558897 
L 377.696374 200.732302 
L 379.827986 198.698894 
L 381.959597 198.493716 
L 384.091209 200.034588 
L 386.22282 203.139413 
L 388.354432 207.550732 
L 390.486043 212.963939 
L 392.617655 219.055731 
L 394.749267 225.509859 
L 396.880878 232.038095 
L 399.01249 238.39521 
L 401.144101 244.387673 
L 403.275713 249.876481 
L 405.407324 254.775108 
L 407.538936 259.043805 
L 409.670548 262.68162 
L 411.802159 265.717371 
L 413.933771 268.200639 
L 416.065382 270.19354 
L 418.196994 271.763775 
L 420.328605 272.979192 
L 422.460217 273.90388 
L 424.591829 274.595666 
L 426.72344 275.104792 
L 428.855052 275.473522 
L 430.986663 275.736401 
L 433.118275 275.920939 
L 435.249886 276.048526 
L 437.381498 276.135425 
L 439.51311 276.193742 
L 441.644721 276.23231 
L 443.776333 276.257451 
L 445.907944 276.273608 
L 448.039556 276.283844 
L 450.171167 276.290239 
L 452.302779 276.29418 
L 454.43439 276.296574 
L 456.566002 276.29801 
L 458.697614 276.298859 
L 460.829225 276.299354 
L 462.960837 276.299639 
L 465.092448 276.299801 
L 467.22406 276.299891 
L 469.355671 276.299942 
L 471.487283 276.299969 
L 473.618895 276.299984 
L 475.750506 276.299992 
L 477.882118 276.299996 
L 480.013729 276.299998 
L 482.145341 276.299999 
L 484.276952 276.299999 
L 486.408564 276.3 
L 488.540176 276.3 
L 490.671787 276.3 
L 492.803399 276.3 
L 494.93501 276.3 
L 497.066622 276.3 
L 499.198233 276.3 
L 501.329845 276.3 
L 503.461457 276.3 
L 505.593068 276.3 
L 507.72468 276.3 
L 509.856291 276.3 
L 511.987903 276.3 
L 514.119514 276.3 
L 516.251126 276.3 
L 518.382738 276.3 
L 520.514349 276.3 
L 522.645961 276.3 
L 524.777572 276.3 
L 526.909184 276.3 
L 529.040795 276.3 
L 531.172407 276.3 
L 533.304019 276.3 
L 535.43563 276.3 
L 537.567242 276.3 
L 539.698853 276.3 
L 541.830465 276.3 
L 543.962076 276.3 
L 546.093688 276.3 
L 548.2253 276.3 
L 550.356911 276.3 
L 552.488523 276.3 
" style="fill:none;stroke:#8172b3;stroke-linecap:round;stroke-width:1.5;"/>
   </g>
   <g id="patch_12">
    <path d="M 330.9075 276.3 
L 330.9075 38.941875 
" style="fill:none;stroke:#ffffff;stroke-linecap:square;stroke-linejoin:miter;stroke-width:1.25;"/>
   </g>
   <g id="patch_13">
    <path d="M 563.04 276.3 
L 563.04 38.941875 
" style="fill:none;stroke:#ffffff;stroke-linecap:square;stroke-linejoin:miter;stroke-width:1.25;"/>
   </g>
   <g id="patch_14">
    <path d="M 330.9075 276.3 
L 563.04 276.3 
" style="fill:none;stroke:#ffffff;stroke-linecap:square;stroke-linejoin:miter;stroke-width:1.25;"/>
   </g>
   <g id="patch_15">
    <path d="M 330.9075 38.941875 
L 563.04 38.941875 
" style="fill:none;stroke:#ffffff;stroke-linecap:square;stroke-linejoin:miter;stroke-width:1.25;"/>
   </g>
   <g id="legend_2">
    <g id="patch_16">
     <path d="M 468.166719 125.541094 
L 555.34 125.541094 
Q 557.54 125.541094 557.54 123.341094 
L 557.54 46.641875 
Q 557.54 44.441875 555.34 44.441875 
L 468.166719 44.441875 
Q 465.966719 44.441875 465.966719 46.641875 
L 465.966719 123.341094 
Q 465.966719 125.541094 468.166719 125.541094 
z
" style="fill:#eaeaf2;opacity:0.8;stroke:#cccccc;stroke-linejoin:miter;"/>
    </g>
    <g id="line2d_43">
     <path d="M 470.366719 52.865469 
L 492.366719 52.865469 
" style="fill:none;stroke:#dd8452;stroke-linecap:round;stroke-width:1.5;"/>
    </g>
    <g id="line2d_44"/>
    <g id="text_36">
     <!-- Poisson -->
     <g style="fill:#262626;" transform="translate(501.166719 56.715469)scale(0.11 -0.11)">
      <use xlink:href="#ArialMT-80"/>
      <use x="66.699219" xlink:href="#ArialMT-111"/>
      <use x="122.314453" xlink:href="#ArialMT-105"/>
      <use x="144.53125" xlink:href="#ArialMT-115"/>
      <use x="194.53125" xlink:href="#ArialMT-115"/>
      <use x="244.53125" xlink:href="#ArialMT-111"/>
      <use x="300.146484" xlink:href="#ArialMT-110"/>
     </g>
    </g>
    <g id="line2d_45">
     <path d="M 470.366719 68.425313 
L 492.366719 68.425313 
" style="fill:none;stroke:#55a868;stroke-linecap:round;stroke-width:1.5;"/>
    </g>
    <g id="line2d_46"/>
    <g id="text_37">
     <!-- CUE -->
     <g style="fill:#262626;" transform="translate(501.166719 72.275313)scale(0.11 -0.11)">
      <use xlink:href="#ArialMT-67"/>
      <use x="72.216797" xlink:href="#ArialMT-85"/>
      <use x="144.433594" xlink:href="#ArialMT-69"/>
     </g>
    </g>
    <g id="line2d_47">
     <path d="M 470.366719 83.985156 
L 492.366719 83.985156 
" style="fill:none;stroke:#c44e52;stroke-linecap:round;stroke-width:1.5;"/>
    </g>
    <g id="line2d_48"/>
    <g id="text_38">
     <!-- COE -->
     <g style="fill:#262626;" transform="translate(501.166719 87.835156)scale(0.11 -0.11)">
      <use xlink:href="#ArialMT-67"/>
      <use x="72.216797" xlink:href="#ArialMT-79"/>
      <use x="150" xlink:href="#ArialMT-69"/>
     </g>
    </g>
    <g id="line2d_49">
     <path d="M 470.366719 99.545 
L 492.366719 99.545 
" style="fill:none;stroke:#8172b3;stroke-linecap:round;stroke-width:1.5;"/>
    </g>
    <g id="line2d_50"/>
    <g id="text_39">
     <!-- CSE -->
     <g style="fill:#262626;" transform="translate(501.166719 103.395)scale(0.11 -0.11)">
      <use xlink:href="#ArialMT-67"/>
      <use x="72.216797" xlink:href="#ArialMT-83"/>
      <use x="138.916016" xlink:href="#ArialMT-69"/>
     </g>
    </g>
    <g id="patch_17">
     <path d="M 470.366719 118.954844 
L 492.366719 118.954844 
L 492.366719 111.254844 
L 470.366719 111.254844 
z
" style="fill:none;stroke:#4c72b0;stroke-linejoin:miter;"/>
    </g>
    <g id="text_40">
     <!-- Calculated -->
     <g style="fill:#262626;" transform="translate(501.166719 118.954844)scale(0.11 -0.11)">
      <use xlink:href="#ArialMT-67"/>
      <use x="72.216797" xlink:href="#ArialMT-97"/>
      <use x="127.832031" xlink:href="#ArialMT-108"/>
      <use x="150.048828" xlink:href="#ArialMT-99"/>
      <use x="200.048828" xlink:href="#ArialMT-117"/>
      <use x="255.664062" xlink:href="#ArialMT-108"/>
      <use x="277.880859" xlink:href="#ArialMT-97"/>
      <use x="333.496094" xlink:href="#ArialMT-116"/>
      <use x="361.279297" xlink:href="#ArialMT-101"/>
      <use x="416.894531" xlink:href="#ArialMT-100"/>
     </g>
    </g>
   </g>
  </g>
  <g id="text_41">
   <!-- Quasiperiodic Kicked Rotor (K = 4, Alpha = 0.1) -->
   <g style="fill:#262626;" transform="translate(136.724625 16.97175)scale(0.144 -0.144)">
    <defs>
     <path d="M 61.96875 7.671875 
Q 68.5625 3.125 74.125 1.03125 
L 71.34375 -5.5625 
Q 63.625 -2.78125 55.953125 3.21875 
Q 48 -1.21875 38.375 -1.21875 
Q 28.65625 -1.21875 20.75 3.46875 
Q 12.84375 8.15625 8.5625 16.640625 
Q 4.296875 25.140625 4.296875 35.796875 
Q 4.296875 46.390625 8.59375 55.078125 
Q 12.890625 63.765625 20.828125 68.3125 
Q 28.765625 72.859375 38.578125 72.859375 
Q 48.484375 72.859375 56.4375 68.140625 
Q 64.40625 63.421875 68.578125 54.953125 
Q 72.75 46.484375 72.75 35.84375 
Q 72.75 27 70.0625 19.9375 
Q 67.390625 12.890625 61.96875 7.671875 
z
M 41.109375 19.78125 
Q 49.3125 17.484375 54.640625 12.9375 
Q 62.984375 20.5625 62.984375 35.84375 
Q 62.984375 44.53125 60.03125 51.015625 
Q 57.078125 57.515625 51.390625 61.109375 
Q 45.703125 64.703125 38.625 64.703125 
Q 28.03125 64.703125 21.046875 57.453125 
Q 14.0625 50.203125 14.0625 35.796875 
Q 14.0625 21.828125 20.96875 14.359375 
Q 27.875 6.890625 38.625 6.890625 
Q 43.703125 6.890625 48.1875 8.796875 
Q 43.75 11.671875 38.8125 12.890625 
z
" id="ArialMT-81"/>
     <path d="M 6.59375 -19.875 
L 6.59375 51.859375 
L 14.59375 51.859375 
L 14.59375 45.125 
Q 17.4375 49.078125 21 51.046875 
Q 24.5625 53.03125 29.640625 53.03125 
Q 36.28125 53.03125 41.359375 49.609375 
Q 46.4375 46.1875 49.015625 39.953125 
Q 51.609375 33.734375 51.609375 26.3125 
Q 51.609375 18.359375 48.75 11.984375 
Q 45.90625 5.609375 40.453125 2.21875 
Q 35.015625 -1.171875 29 -1.171875 
Q 24.609375 -1.171875 21.109375 0.6875 
Q 17.625 2.546875 15.375 5.375 
L 15.375 -19.875 
z
M 14.546875 25.640625 
Q 14.546875 15.625 18.59375 10.84375 
Q 22.65625 6.0625 28.421875 6.0625 
Q 34.28125 6.0625 38.453125 11.015625 
Q 42.625 15.96875 42.625 26.375 
Q 42.625 36.28125 38.546875 41.203125 
Q 34.46875 46.140625 28.8125 46.140625 
Q 23.1875 46.140625 18.859375 40.890625 
Q 14.546875 35.640625 14.546875 25.640625 
z
" id="ArialMT-112"/>
     <path d="M 6.5 0 
L 6.5 51.859375 
L 14.40625 51.859375 
L 14.40625 44 
Q 17.4375 49.515625 20 51.265625 
Q 22.5625 53.03125 25.640625 53.03125 
Q 30.078125 53.03125 34.671875 50.203125 
L 31.640625 42.046875 
Q 28.421875 43.953125 25.203125 43.953125 
Q 22.3125 43.953125 20.015625 42.21875 
Q 17.71875 40.484375 16.75 37.40625 
Q 15.28125 32.71875 15.28125 27.15625 
L 15.28125 0 
z
" id="ArialMT-114"/>
     <path id="ArialMT-32"/>
     <path d="M 7.328125 0 
L 7.328125 71.578125 
L 16.796875 71.578125 
L 16.796875 36.078125 
L 52.34375 71.578125 
L 65.1875 71.578125 
L 35.15625 42.578125 
L 66.5 0 
L 54 0 
L 28.515625 36.234375 
L 16.796875 24.8125 
L 16.796875 0 
z
" id="ArialMT-75"/>
     <path d="M 6.640625 0 
L 6.640625 71.578125 
L 15.4375 71.578125 
L 15.4375 30.765625 
L 36.234375 51.859375 
L 47.609375 51.859375 
L 27.78125 32.625 
L 49.609375 0 
L 38.765625 0 
L 21.625 26.515625 
L 15.4375 20.5625 
L 15.4375 0 
z
" id="ArialMT-107"/>
     <path d="M 7.859375 0 
L 7.859375 71.578125 
L 39.59375 71.578125 
Q 49.171875 71.578125 54.140625 69.640625 
Q 59.125 67.71875 62.109375 62.828125 
Q 65.09375 57.953125 65.09375 52.046875 
Q 65.09375 44.4375 60.15625 39.203125 
Q 55.21875 33.984375 44.921875 32.5625 
Q 48.6875 30.765625 50.640625 29 
Q 54.78125 25.203125 58.5 19.484375 
L 70.953125 0 
L 59.03125 0 
L 49.5625 14.890625 
Q 45.40625 21.34375 42.71875 24.75 
Q 40.046875 28.171875 37.921875 29.53125 
Q 35.796875 30.90625 33.59375 31.453125 
Q 31.984375 31.78125 28.328125 31.78125 
L 17.328125 31.78125 
L 17.328125 0 
z
M 17.328125 39.984375 
L 37.703125 39.984375 
Q 44.1875 39.984375 47.84375 41.328125 
Q 51.515625 42.671875 53.421875 45.625 
Q 55.328125 48.578125 55.328125 52.046875 
Q 55.328125 57.125 51.640625 60.390625 
Q 47.953125 63.671875 39.984375 63.671875 
L 17.328125 63.671875 
z
" id="ArialMT-82"/>
     <path d="M 23.390625 -21.046875 
Q 16.109375 -11.859375 11.078125 0.4375 
Q 6.0625 12.75 6.0625 25.921875 
Q 6.0625 37.546875 9.8125 48.1875 
Q 14.203125 60.546875 23.390625 72.796875 
L 29.6875 72.796875 
Q 23.78125 62.640625 21.875 58.296875 
Q 18.890625 51.5625 17.1875 44.234375 
Q 15.09375 35.109375 15.09375 25.875 
Q 15.09375 2.390625 29.6875 -21.046875 
z
" id="ArialMT-40"/>
     <path d="M 52.828125 42.09375 
L 5.5625 42.09375 
L 5.5625 50.296875 
L 52.828125 50.296875 
z
M 52.828125 20.359375 
L 5.5625 20.359375 
L 5.5625 28.5625 
L 52.828125 28.5625 
z
" id="ArialMT-61"/>
     <path d="M 8.890625 0 
L 8.890625 10.015625 
L 18.890625 10.015625 
L 18.890625 0 
Q 18.890625 -5.515625 16.9375 -8.90625 
Q 14.984375 -12.3125 10.75 -14.15625 
L 8.296875 -10.40625 
Q 11.078125 -9.1875 12.390625 -6.8125 
Q 13.71875 -4.4375 13.875 0 
z
" id="ArialMT-44"/>
     <path d="M -0.140625 0 
L 27.34375 71.578125 
L 37.546875 71.578125 
L 66.84375 0 
L 56.0625 0 
L 47.703125 21.6875 
L 17.78125 21.6875 
L 9.90625 0 
z
M 20.515625 29.390625 
L 44.78125 29.390625 
L 37.3125 49.21875 
Q 33.890625 58.25 32.234375 64.0625 
Q 30.859375 57.171875 28.375 50.390625 
z
" id="ArialMT-65"/>
     <path d="M 6.59375 0 
L 6.59375 71.578125 
L 15.375 71.578125 
L 15.375 45.90625 
Q 21.53125 53.03125 30.90625 53.03125 
Q 36.671875 53.03125 40.921875 50.75 
Q 45.171875 48.484375 47 44.484375 
Q 48.828125 40.484375 48.828125 32.859375 
L 48.828125 0 
L 40.046875 0 
L 40.046875 32.859375 
Q 40.046875 39.453125 37.1875 42.453125 
Q 34.328125 45.453125 29.109375 45.453125 
Q 25.203125 45.453125 21.75 43.421875 
Q 18.3125 41.40625 16.84375 37.9375 
Q 15.375 34.46875 15.375 28.375 
L 15.375 0 
z
" id="ArialMT-104"/>
     <path d="M 12.359375 -21.046875 
L 6.0625 -21.046875 
Q 20.65625 2.390625 20.65625 25.875 
Q 20.65625 35.0625 18.5625 44.09375 
Q 16.890625 51.421875 13.921875 58.15625 
Q 12.015625 62.546875 6.0625 72.796875 
L 12.359375 72.796875 
Q 21.53125 60.546875 25.921875 48.1875 
Q 29.6875 37.546875 29.6875 25.921875 
Q 29.6875 12.75 24.625 0.4375 
Q 19.578125 -11.859375 12.359375 -21.046875 
z
" id="ArialMT-41"/>
    </defs>
    <use xlink:href="#ArialMT-81"/>
    <use x="77.783203" xlink:href="#ArialMT-117"/>
    <use x="133.398438" xlink:href="#ArialMT-97"/>
    <use x="189.013672" xlink:href="#ArialMT-115"/>
    <use x="239.013672" xlink:href="#ArialMT-105"/>
    <use x="261.230469" xlink:href="#ArialMT-112"/>
    <use x="316.845703" xlink:href="#ArialMT-101"/>
    <use x="372.460938" xlink:href="#ArialMT-114"/>
    <use x="405.761719" xlink:href="#ArialMT-105"/>
    <use x="427.978516" xlink:href="#ArialMT-111"/>
    <use x="483.59375" xlink:href="#ArialMT-100"/>
    <use x="539.208984" xlink:href="#ArialMT-105"/>
    <use x="561.425781" xlink:href="#ArialMT-99"/>
    <use x="611.425781" xlink:href="#ArialMT-32"/>
    <use x="639.208984" xlink:href="#ArialMT-75"/>
    <use x="705.908203" xlink:href="#ArialMT-105"/>
    <use x="728.125" xlink:href="#ArialMT-99"/>
    <use x="778.125" xlink:href="#ArialMT-107"/>
    <use x="828.125" xlink:href="#ArialMT-101"/>
    <use x="883.740234" xlink:href="#ArialMT-100"/>
    <use x="939.355469" xlink:href="#ArialMT-32"/>
    <use x="967.138672" xlink:href="#ArialMT-82"/>
    <use x="1039.355469" xlink:href="#ArialMT-111"/>
    <use x="1094.970703" xlink:href="#ArialMT-116"/>
    <use x="1122.753906" xlink:href="#ArialMT-111"/>
    <use x="1178.369141" xlink:href="#ArialMT-114"/>
    <use x="1211.669922" xlink:href="#ArialMT-32"/>
    <use x="1239.453125" xlink:href="#ArialMT-40"/>
    <use x="1272.753906" xlink:href="#ArialMT-75"/>
    <use x="1339.453125" xlink:href="#ArialMT-32"/>
    <use x="1367.236328" xlink:href="#ArialMT-61"/>
    <use x="1425.634766" xlink:href="#ArialMT-32"/>
    <use x="1453.417969" xlink:href="#ArialMT-52"/>
    <use x="1509.033203" xlink:href="#ArialMT-44"/>
    <use x="1536.816406" xlink:href="#ArialMT-32"/>
    <use x="1559.099609" xlink:href="#ArialMT-65"/>
    <use x="1625.798828" xlink:href="#ArialMT-108"/>
    <use x="1648.015625" xlink:href="#ArialMT-112"/>
    <use x="1703.630859" xlink:href="#ArialMT-104"/>
    <use x="1759.246094" xlink:href="#ArialMT-97"/>
    <use x="1814.861328" xlink:href="#ArialMT-32"/>
    <use x="1842.644531" xlink:href="#ArialMT-61"/>
    <use x="1901.042969" xlink:href="#ArialMT-32"/>
    <use x="1928.826172" xlink:href="#ArialMT-48"/>
    <use x="1984.441406" xlink:href="#ArialMT-46"/>
    <use x="2012.224609" xlink:href="#ArialMT-49"/>
    <use x="2067.839844" xlink:href="#ArialMT-41"/>
   </g>
  </g>
 </g>
 <defs>
  <clipPath id="pb7753d090c">
   <rect height="237.358125" width="232.1325" x="44.82" y="38.941875"/>
  </clipPath>
  <clipPath id="p02813d2ab7">
   <rect height="237.358125" width="232.1325" x="330.9075" y="38.941875"/>
  </clipPath>
 </defs>
</svg>
